{
.appVersion = "1141";
classes = (
{
automatic = 1;

glyphs = (
{
color = 0;
glyphname = A;
lastChange = "2018-05-16 11:34:52 +0000";
layers = (
{
anchors = (
{
name = bottom;
position = "{321, 0}";
},
{
name = ogonek;
position = "{653, 0}";
},
{
name = top;
position = "{325, 720}";
}
);
background = {
paths = (
{
closed = 0;
nodes = (
"430 232 LINE",
"451 172 LINE",
"478 64 LINE",
"405 44 LINE",
"409 -5 LINE",
"409 -5 OFFCURVE",
"521 0 OFFCURVE",
"552 0 CURVE",
"653 0 LINE",
"658 54 LINE",
"596 64 LINE",
"557 149 LINE",
"351 715 LINE",
"293 705 LINE",
"114 160 LINE",
"71 61 LINE",
"8 44 LINE",
"12 -5 LINE",
"12 -5 OFFCURVE",
"122 0 OFFCURVE",
"147 0 CURVE",
"233 0 LINE",
"238 54 LINE",
"168 64 LINE",
"178 127 LINE",
"210 232 LINE"
);
},
{
closed = 0;
nodes = (
"410 286 LINE",
"228 282 LINE"
);
},
{
closed = 0;
nodes = (
"210 232 LINE",
"430 232 LINE"
);
},
{
closed = 0;
nodes = (
"228 282 LINE",
"316 557 LINE",
"410 286 LINE"
);
}
);
};
layerId = UUID0;
paths = (
{
closed = 1;
nodes = (
"451 172 LINE SMOOTH",
"463 137 OFFCURVE",
"470 100 OFFCURVE",
"478 64 CURVE",
"405 44 LINE",
"409 -5 LINE",
"409 -5 OFFCURVE",
"521 0 OFFCURVE",
"552 0 CURVE",
"653 0 LINE",
"658 54 LINE",
"596 64 LINE",
"583 91 OFFCURVE",
"567 120 OFFCURVE",
"557 149 CURVE SMOOTH",
"351 715 LINE",
"293 705 LINE",
"114 160 LINE SMOOTH",
"103 126 OFFCURVE",
"85 89 OFFCURVE",
"71 61 CURVE",
"8 44 LINE",
"12 -5 LINE",
"12 -5 OFFCURVE",
"122 0 OFFCURVE",
"147 0 CURVE",
"233 0 LINE",
"238 54 LINE",
"168 64 LINE",
"170 85 OFFCURVE",
"172 107 OFFCURVE",
"178 127 CURVE SMOOTH",
"316 557 LINE"
);
},
{
closed = 1;
nodes = (
"415 285 LINE",
"223 285 LINE",
"205 232 LINE",
"435 232 LINE"
);
}
);
width = 668;
},
{
anchors = (
{
name = bottom;
position = "{328, 0}";
},
{
name = ogonek;
position = "{671, 0}";
},
{
name = top;
position = "{348, 720}";
}
);
background = {
paths = (
{
closed = 1;
nodes = (
"617 80 LINE",
"609 96 OFFCURVE",
"603 111 OFFCURVE",
"597 128 CURVE SMOOTH",
"397 716 LINE",
"285 705 LINE",
"96 161 LINE SMOOTH",
"86 131 OFFCURVE",
"69 102 OFFCURVE",
"53 73 CURVE",
"9 65 LINE",
"14 -5 LINE",
"14 -5 OFFCURVE",
"124 0 OFFCURVE",
"154 0 CURVE SMOOTH",
"259 0 LINE",
"264 71 LINE",
"206 77 LINE",
"207 90 OFFCURVE",
"208 102 OFFCURVE",
"212 115 CURVE SMOOTH",
"232 179 LINE",
"418 179 LINE",
"432 129 LINE SMOOTH",
"437 112 OFFCURVE",
"436 94 OFFCURVE",
"437 76 CURVE",
"378 65 LINE",
"383 -5 LINE",
"383 -5 OFFCURVE",
"537 0 OFFCURVE",
"587 0 CURVE SMOOTH",
"671 0 LINE",
"676 71 LINE"
);
},
{
closed = 1;
nodes = (
"257 263 LINE",
"328 498 LINE",
"395 263 LINE"
);
}
);
};
guideLines = (
{
position = "{310, 65}";
}
);
layerId = "16643525-C5DD-48EC-8E99-463BF28F5E85";
paths = (
{
closed = 1;
nodes = (
"285 705 LINE",
"96 161 LINE SMOOTH",
"86 131 OFFCURVE",
"69 102 OFFCURVE",
"53 73 CURVE",
"9 65 LINE",
"14 -5 LINE",
"14 -5 OFFCURVE",
"124 0 OFFCURVE",
"154 0 CURVE",
"259 0 LINE",
"264 71 LINE",
"206 77 LINE",
"207 90 OFFCURVE",
"208 102 OFFCURVE",
"212 115 CURVE SMOOTH",
"354 584 LINE"
);
},
{
closed = 1;
nodes = (
"396 263 LINE",
"255 263 LINE",
"229 179 LINE",
"420 179 LINE"
);
},
{
closed = 1;
nodes = (
"432 129 LINE SMOOTH",
"437 112 OFFCURVE",
"436 94 OFFCURVE",
"437 76 CURVE",
"378 65 LINE",
"383 -5 LINE",
"383 -5 OFFCURVE",
"537 0 OFFCURVE",
"587 0 CURVE",
"671 0 LINE",
"676 71 LINE",
"617 80 LINE",
"609 96 OFFCURVE",
"603 111 OFFCURVE",
"597 128 CURVE SMOOTH",
"397 716 LINE",
"285 705 LINE",
"304 582 LINE"
);
}
);
width = 686;
},
{
anchors = (
{
name = bottom;
position = "{287, 0}";
},
{
name = ogonek;
position = "{600, 0}";
},
{
name = top;
position = "{379, 720}";
}
);
background = {
paths = (
{
closed = 1;
nodes = (
"612 54 LINE",
"554 64 LINE",
"549 78 OFFCURVE",
"535 122 OFFCURVE",
"532 137 CURVE SMOOTH",
"409 715 LINE",
"349 705 LINE",
"102 167 LINE SMOOTH",
"88 137 OFFCURVE",
"52 75 OFFCURVE",
"43 61 CURVE",
"-20 44 LINE",
"-23 -5 LINE",
"-23 -5 OFFCURVE",
"83 0 OFFCURVE",
"108 0 CURVE SMOOTH",
"138 0 OFFCURVE",
"193 0 OFFCURVE",
"193 0 CURVE",
"205 54 LINE",
"139 64 LINE",
"142 78 OFFCURVE",
"155 122 OFFCURVE",
"162 137 CURVE SMOOTH",
"204 232 LINE",
"416 232 LINE",
"428 167 LINE SMOOTH",
"434 137 OFFCURVE",
"436 79 OFFCURVE",
"437 64 CURVE",
"364 44 LINE",
"360 -5 LINE",
"360 -5 OFFCURVE",
"477 0 OFFCURVE",
"502 0 CURVE SMOOTH",
"534 0 OFFCURVE",
"600 0 OFFCURVE",
"600 0 CURVE"
);
},
{
closed = 1;
nodes = (
"354 557 LINE",
"404 286 LINE",
"229 282 LINE"
);
}
);
};
layerId = "08C09966-8326-41C9-AE3D-74AAC6FC1D13";
paths = (
{
closed = 1;
nodes = (
"349 705 LINE",
"102 167 LINE SMOOTH",
"88 137 OFFCURVE",
"52 75 OFFCURVE",
"43 61 CURVE",
"-20 44 LINE",
"-23 -5 LINE",
"-23 -5 OFFCURVE",
"83 0 OFFCURVE",
"108 0 CURVE SMOOTH",
"138 0 OFFCURVE",
"193 0 OFFCURVE",
"193 0 CURVE",
"205 54 LINE",
"139 64 LINE",
"142 78 OFFCURVE",
"155 122 OFFCURVE",
"162 137 CURVE SMOOTH",
"364 578 LINE"
);
},
{
closed = 1;
nodes = (
"413 286 LINE",
"226 282 LINE SMOOTH",
"226 282 OFFCURVE",
"204 232 OFFCURVE",
"204 232 CURVE",
"417 232 LINE"
);
},
{
closed = 1;
nodes = (
"428 167 LINE SMOOTH",
"434 137 OFFCURVE",
"436 79 OFFCURVE",
"437 64 CURVE",
"364 44 LINE",
"360 -5 LINE",
"360 -5 OFFCURVE",
"477 0 OFFCURVE",
"502 0 CURVE SMOOTH",
"534 0 OFFCURVE",
"600 0 OFFCURVE",
"600 0 CURVE",
"612 54 LINE",
"554 64 LINE",
"549 78 OFFCURVE",
"535 122 OFFCURVE",
"532 137 CURVE SMOOTH",
"409 715 LINE",
"349 705 LINE",
"350 577 LINE"
);
}
);
width = 649;
},
{
anchors = (
{
name = bottom;
position = "{283, 0}";
},
{
name = ogonek;
position = "{616, 0}";
},
{
name = top;
position = "{400, 720}";
}
);
annotations = (
{
position = "{385.994, 179.577}";
type = Text;
}
);
background = {
paths = (
{
closed = 1;
nodes = (
"400 129 LINE SMOOTH",
"402 112 OFFCURVE",
"399 93 OFFCURVE",
"396 77 CURVE",
"338 66 LINE",
"332 -5 LINE",
"332 -5 OFFCURVE",
"450 0 OFFCURVE",
"480 0 CURVE SMOOTH",
"515 0 OFFCURVE",
"616 0 OFFCURVE",
"616 0 CURVE",
"630 71 LINE",
"577 76 LINE",
"572 92 OFFCURVE",
"567 111 OFFCURVE",
"564 128 CURVE SMOOTH",
"454 716 LINE",
"340 705 LINE",
"79 161 LINE SMOOTH",
"68 138 OFFCURVE",
"38 92 OFFCURVE",
"25 73 CURVE",
"-18 65 LINE",
"-23 -5 LINE",
"-23 -5 OFFCURVE",
"71 0 OFFCURVE",
"101 0 CURVE SMOOTH",
"148 0 OFFCURVE",
"217 0 OFFCURVE",
"217 0 CURVE",
"232 71 LINE",
"177 77 LINE",
"179 90 OFFCURVE",
"181 103 OFFCURVE",
"186 115 CURVE SMOOTH",
"355 498 LINE"
);
},
{
closed = 1;
nodes = (
"389 263 LINE",
"246 261 LINE",
"211 179 LINE",
"402 179 LINE"
);
}
);
};
layerId = "B953D09C-6DD0-450A-A78C-8C2188DD4016";
paths = (
{
closed = 1;
nodes = (
"340 705 LINE",
"79 161 LINE SMOOTH",
"68 138 OFFCURVE",
"38 92 OFFCURVE",
"25 73 CURVE",
"-18 65 LINE",
"-23 -5 LINE",
"-23 -5 OFFCURVE",
"71 0 OFFCURVE",
"101 0 CURVE SMOOTH",
"148 0 OFFCURVE",
"217 0 OFFCURVE",
"217 0 CURVE",
"232 71 LINE",
"177 77 LINE",
"179 90 OFFCURVE",
"181 103 OFFCURVE",
"186 115 CURVE SMOOTH",
"404 608 LINE"
);
},
{
closed = 1;
nodes = (
"389 263 LINE",
"246 261 LINE",
"211 179 LINE",
"402 179 LINE"
);
},
{
closed = 1;
nodes = (
"400 129 LINE SMOOTH",
"402 112 OFFCURVE",
"399 93 OFFCURVE",
"396 77 CURVE",
"338 66 LINE",
"332 -5 LINE",
"332 -5 OFFCURVE",
"450 0 OFFCURVE",
"480 0 CURVE SMOOTH",
"515 0 OFFCURVE",
"616 0 OFFCURVE",
"616 0 CURVE",
"630 71 LINE",
"577 76 LINE",
"572 92 OFFCURVE",
"567 111 OFFCURVE",
"564 128 CURVE SMOOTH",
"454 716 LINE",
"340 705 LINE",
"343 590 LINE"
);
}
);
width = 663;
}
);
leftKerningGroup = A;
rightKerningGroup = A;
unicode = 0041;
},
{
color = 1;
glyphname = AE;
lastChange = "2018-05-16 11:35:00 +0000";
layers = (
{
anchors = (
{
name = top;
position = "{607, 720}";
}
);
background = {
paths = (
{
closed = 1;
nodes = (
"470 130 LINE SMOOTH",
"473 110 OFFCURVE",
"475 90 OFFCURVE",
"475 64 CURVE",
"402 44 LINE",
"406 -5 LINE",
"406 -5 OFFCURVE",
"518 0 OFFCURVE",
"549 0 CURVE",
"734 0 LINE SMOOTH",
"754 0 OFFCURVE",
"848 -4 OFFCURVE",
"848 -4 CURVE",
"867 14 LINE",
"882 165 LINE",
"827 170 LINE",
"825 154 OFFCURVE",
"816 118 OFFCURVE",
"812 103 CURVE SMOOTH",
"810 96 OFFCURVE",
"801 80 OFFCURVE",
"791 66 CURVE",
"769 62 OFFCURVE",
"734 57 OFFCURVE",
"704 57 CURVE SMOOTH",
"582 57 LINE",
"557 167 LINE SMOOTH",
"500 541 LINE SMOOTH",
"494 578 OFFCURVE",
"491 627 OFFCURVE",
"489 649 CURVE",
"670 649 LINE SMOOTH",
"698 649 OFFCURVE",
"729 646 OFFCURVE",
"751 644 CURVE",
"761 631 OFFCURVE",
"770 617 OFFCURVE",
"771 610 CURVE",
"775 595 OFFCURVE",
"780 572 OFFCURVE",
"782 556 CURVE",
"840 561 LINE",
"833 697 LINE",
"814 715 LINE",
"814 715 OFFCURVE",
"720 705 OFFCURVE",
"700 705 CURVE SMOOTH",
"389 705 LINE",
"129 160 LINE SMOOTH",
"122 145 OFFCURVE",
"91 93 OFFCURVE",
"68 61 CURVE",
"5 44 LINE",
"9 -5 LINE",
"9 -5 OFFCURVE",
"119 0 OFFCURVE",
"144 0 CURVE",
"230 0 LINE",
"235 54 LINE",
"165 64 LINE",
"169 80 OFFCURVE",
"179 119 OFFCURVE",
"183 127 CURVE SMOOTH",
"400 584 LINE"
);
},
{
closed = 1;
nodes = (
"628 326 LINE",
"648 326 OFFCURVE",
"708 320 OFFCURVE",
"708 320 CURVE",
"717 257 LINE",
"765 263 LINE",
"765 263 OFFCURVE",
"762 322 OFFCURVE",
"762 372 CURVE SMOOTH",
"762 392 OFFCURVE",
"763 452 OFFCURVE",
"763 452 CURVE",
"717 457 LINE",
"708 391 LINE",
"708 391 OFFCURVE",
"668 382 OFFCURVE",
"648 382 CURVE",
"515 382 LINE",
"522 326 LINE"
);
},
{
closed = 1;
nodes = (
"453 285 LINE",
"248 285 LINE",
"230 232 LINE",
"460 232 LINE"
);
}
);
};
layerId = UUID0;
paths = (
{
closed = 1;
nodes = (
"470 130 LINE SMOOTH",
"473 110 OFFCURVE",
"475 90 OFFCURVE",
"475 64 CURVE",
"402 44 LINE",
"406 -5 LINE",
"406 -5 OFFCURVE",
"518 0 OFFCURVE",
"549 0 CURVE",
"734 0 LINE SMOOTH",
"754 0 OFFCURVE",
"848 -4 OFFCURVE",
"848 -4 CURVE",
"867 14 LINE",
"882 165 LINE",
"827 170 LINE",
"825 154 OFFCURVE",
"816 118 OFFCURVE",
"812 103 CURVE SMOOTH",
"810 96 OFFCURVE",
"801 80 OFFCURVE",
"791 66 CURVE",
"769 62 OFFCURVE",
"734 57 OFFCURVE",
"704 57 CURVE SMOOTH",
"582 57 LINE",
"557 167 LINE SMOOTH",
"500 541 LINE SMOOTH",
"494 578 OFFCURVE",
"491 627 OFFCURVE",
"489 649 CURVE",
"670 649 LINE SMOOTH",
"698 649 OFFCURVE",
"729 646 OFFCURVE",
"751 644 CURVE",
"761 631 OFFCURVE",
"770 617 OFFCURVE",
"771 610 CURVE",
"775 595 OFFCURVE",
"780 572 OFFCURVE",
"782 556 CURVE",
"840 561 LINE",
"833 697 LINE",
"814 715 LINE",
"814 715 OFFCURVE",
"720 705 OFFCURVE",
"700 705 CURVE SMOOTH",
"389 705 LINE",
"129 160 LINE SMOOTH",
"122 145 OFFCURVE",
"91 93 OFFCURVE",
"68 61 CURVE",
"5 44 LINE",
"9 -5 LINE",
"9 -5 OFFCURVE",
"119 0 OFFCURVE",
"144 0 CURVE",
"230 0 LINE",
"235 54 LINE",
"165 64 LINE",
"169 80 OFFCURVE",
"179 119 OFFCURVE",
"183 127 CURVE SMOOTH",
"400 584 LINE"
);
},
{
closed = 1;
nodes = (
"453 285 LINE",
"248 285 LINE",
"230 232 LINE",
"460 232 LINE"
);
},
{
closed = 1;
nodes = (
"522 326 LINE",
"628 326 LINE SMOOTH",
"648 326 OFFCURVE",
"699 321 OFFCURVE",
"708 320 CURVE",
"717 253 LINE",
"765 259 LINE",
"765 259 OFFCURVE",
"762 318 OFFCURVE",
"762 368 CURVE SMOOTH",
"762 388 OFFCURVE",
"763 452 OFFCURVE",
"763 452 CURVE",
"717 457 LINE",
"708 388 LINE",
"703 387 OFFCURVE",
"668 382 OFFCURVE",
"648 382 CURVE SMOOTH",
"522 382 LINE"
);
}
);
width = 917;
},
{
anchors = (
{
name = top;
position = "{625, 720}";
}
);
background = {
paths = (
{
closed = 1;
nodes = (
"220 179 LINE",
"246 263 LINE",
"447 263 LINE",
"471 179 LINE"
);
},
{
closed = 1;
nodes = (
"416 705 LINE",
"736 705 LINE SMOOTH",
"756 705 OFFCURVE",
"850 715 OFFCURVE",
"850 715 CURVE",
"869 697 LINE",
"876 542 LINE",
"804 537 LINE",
"802 553 OFFCURVE",
"799 575 OFFCURVE",
"795 590 CURVE",
"794 594 OFFCURVE",
"790 608 OFFCURVE",
"786 618 CURVE",
"766 620 OFFCURVE",
"736 623 OFFCURVE",
"706 623 CURVE SMOOTH",
"539 623 LINE",
"540 605 OFFCURVE",
"543 558 OFFCURVE",
"545 542 CURVE",
"599 193 LINE",
"619 87 LINE",
"720 87 LINE SMOOTH",
"749 87 OFFCURVE",
"777 91 OFFCURVE",
"797 95 CURVE",
"806 114 OFFCURVE",
"815 132 OFFCURVE",
"816 138 CURVE SMOOTH",
"820 153 OFFCURVE",
"826 179 OFFCURVE",
"828 195 CURVE",
"898 190 LINE",
"883 14 LINE",
"864 -4 LINE",
"864 -4 OFFCURVE",
"770 0 OFFCURVE",
"750 0 CURVE",
"613 0 LINE",
"563 0 OFFCURVE",
"409 -5 OFFCURVE",
"409 -5 CURVE",
"404 65 LINE",
"463 76 LINE",
"462 93 OFFCURVE",
"461 111 OFFCURVE",
"458 129 CURVE SMOOTH",
"403 487 LINE"
);
},
{
closed = 1;
nodes = (
"413 487 LINE",
"205 115 LINE SMOOTH",
"199 105 OFFCURVE",
"193 85 OFFCURVE",
"190 77 CURVE",
"256 71 LINE",
"251 0 LINE",
"147 0 LINE",
"117 0 OFFCURVE",
"12 -5 OFFCURVE",
"12 -5 CURVE",
"7 65 LINE",
"46 73 LINE",
"56 86 OFFCURVE",
"95 141 OFFCURVE",
"107 161 CURVE SMOOTH",
"416 705 LINE"
);
},
{
closed = 1;
nodes = (
"481 398 LINE",
"673 398 LINE SMOOTH",
"683 398 OFFCURVE",
"709 402 OFFCURVE",
"717 404 CURVE",
"726 471 LINE",
"788 466 LINE",
"788 466 OFFCURVE",
"787 403 OFFCURVE",
"787 383 CURVE SMOOTH",
"787 333 OFFCURVE",
"790 256 OFFCURVE",
"790 256 CURVE",
"726 250 LINE",
"717 312 LINE",
"707 313 OFFCURVE",
"673 316 OFFCURVE",
"653 316 CURVE SMOOTH",
"481 316 LINE"
);
}
);
};
layerId = "16643525-C5DD-48EC-8E99-463BF28F5E85";
paths = (
{
closed = 1;
nodes = (
"220 179 LINE",
"246 263 LINE",
"447 263 LINE",
"471 179 LINE"
);
},
{
closed = 1;
nodes = (
"416 705 LINE",
"736 705 LINE SMOOTH",
"756 705 OFFCURVE",
"850 715 OFFCURVE",
"850 715 CURVE",
"869 697 LINE",
"876 542 LINE",
"804 537 LINE",
"802 553 OFFCURVE",
"799 575 OFFCURVE",
"795 590 CURVE",
"794 594 OFFCURVE",
"790 608 OFFCURVE",
"786 618 CURVE",
"766 620 OFFCURVE",
"736 623 OFFCURVE",
"706 623 CURVE SMOOTH",
"539 623 LINE",
"540 605 OFFCURVE",
"543 558 OFFCURVE",
"545 542 CURVE",
"599 193 LINE",
"619 87 LINE",
"720 87 LINE SMOOTH",
"749 87 OFFCURVE",
"777 91 OFFCURVE",
"797 95 CURVE",
"806 114 OFFCURVE",
"815 132 OFFCURVE",
"816 138 CURVE SMOOTH",
"820 153 OFFCURVE",
"826 179 OFFCURVE",
"828 195 CURVE",
"898 190 LINE",
"883 14 LINE",
"864 -4 LINE",
"864 -4 OFFCURVE",
"770 0 OFFCURVE",
"750 0 CURVE",
"613 0 LINE",
"563 0 OFFCURVE",
"409 -5 OFFCURVE",
"409 -5 CURVE",
"404 65 LINE",
"463 76 LINE",
"462 93 OFFCURVE",
"461 111 OFFCURVE",
"458 129 CURVE SMOOTH",
"403 487 LINE"
);
},
{
closed = 1;
nodes = (
"413 487 LINE",
"205 115 LINE SMOOTH",
"199 105 OFFCURVE",
"193 85 OFFCURVE",
"190 77 CURVE",
"256 71 LINE",
"251 0 LINE",
"147 0 LINE",
"117 0 OFFCURVE",
"12 -5 OFFCURVE",
"12 -5 CURVE",
"7 65 LINE",
"46 73 LINE",
"56 86 OFFCURVE",
"95 141 OFFCURVE",
"107 161 CURVE SMOOTH",
"416 705 LINE"
);
},
{
closed = 1;
nodes = (
"481 398 LINE",
"673 398 LINE SMOOTH",
"683 398 OFFCURVE",
"704 400 OFFCURVE",
"717 402 CURVE",
"726 471 LINE",
"788 466 LINE",
"788 466 OFFCURVE",
"787 403 OFFCURVE",
"787 383 CURVE SMOOTH",
"787 333 OFFCURVE",
"790 256 OFFCURVE",
"790 256 CURVE",
"726 250 LINE",
"717 312 LINE",
"707 313 OFFCURVE",
"673 316 OFFCURVE",
"653 316 CURVE SMOOTH",
"481 316 LINE"
);
}
);
width = 925;
},
{
anchors = (
{
name = top;
position = "{591, 720}";
}
);
background = {
paths = (
{
closed = 1;
nodes = (
"452 678 LINE",
"134 167 LINE SMOOTH",
"116 139 OFFCURVE",
"73 75 OFFCURVE",
"60 61 CURVE",
"-3 44 LINE",
"-6 -5 LINE",
"-6 -5 OFFCURVE",
"100 0 OFFCURVE",
"125 0 CURVE SMOOTH",
"155 0 OFFCURVE",
"210 0 OFFCURVE",
"210 0 CURVE",
"222 54 LINE",
"156 64 LINE",
"159 78 OFFCURVE",
"180 122 OFFCURVE",
"189 137 CURVE SMOOTH",
"505 646 LINE"
);
},
{
closed = 1;
nodes = (
"480 286 LINE",
"263 282 LINE SMOOTH",
"263 282 OFFCURVE",
"241 232 OFFCURVE",
"241 232 CURVE",
"484 232 LINE"
);
},
{
closed = 1;
nodes = (
"732 649 LINE SMOOTH",
"759 649 OFFCURVE",
"789 646 OFFCURVE",
"810 644 CURVE",
"818 631 OFFCURVE",
"823 617 OFFCURVE",
"824 610 CURVE SMOOTH",
"826 595 OFFCURVE",
"827 572 OFFCURVE",
"827 556 CURVE",
"884 561 LINE",
"897 692 LINE",
"881 710 LINE",
"881 710 OFFCURVE",
"789 705 OFFCURVE",
"769 705 CURVE SMOOTH",
"454 705 LINE",
"449 649 LINE"
);
},
{
closed = 1;
nodes = (
"536 338 LINE",
"647 338 LINE SMOOTH",
"666 338 OFFCURVE",
"723 332 OFFCURVE",
"723 332 CURVE",
"720 265 LINE",
"768 271 LINE",
"768 271 OFFCURVE",
"775 330 OFFCURVE",
"783 380 CURVE SMOOTH",
"786 400 OFFCURVE",
"798 464 OFFCURVE",
"798 464 CURVE",
"753 469 LINE",
"733 403 LINE",
"733 403 OFFCURVE",
"694 394 OFFCURVE",
"674 394 CURVE SMOOTH",
"546 394 LINE"
);
},
{
closed = 1;
nodes = (
"488 0 LINE",
"699 0 LINE SMOOTH",
"719 0 OFFCURVE",
"809 -4 OFFCURVE",
"809 -4 CURVE",
"830 14 LINE",
"867 165 LINE",
"814 170 LINE",
"809 154 OFFCURVE",
"796 118 OFFCURVE",
"789 103 CURVE SMOOTH",
"785 94 OFFCURVE",
"775 80 OFFCURVE",
"764 66 CURVE",
"742 62 OFFCURVE",
"708 57 OFFCURVE",
"678 57 CURVE SMOOTH",
"540 57 LINE"
);
},
{
closed = 1;
nodes = (
"483 705 LINE",
"463 705 OFFCURVE",
"368 710 OFFCURVE",
"368 710 CURVE",
"355 656 LINE",
"435 643 LINE"
);
},
{
closed = 1;
nodes = (
"560 57 LINE",
"558 72 OFFCURVE",
"553 147 OFFCURVE",
"553 167 CURVE SMOOTH",
"551 538 LINE SMOOTH",
"551 567 OFFCURVE",
"556 631 OFFCURVE",
"557 650 CURVE",
"461 650 LINE",
"462 137 LINE SMOOTH",
"462 122 OFFCURVE",
"461 85 OFFCURVE",
"457 61 CURVE",
"378 45 LINE",
"376 -5 LINE",
"376 -5 OFFCURVE",
"492 0 OFFCURVE",
"511 0 CURVE"
);
}
);
};
layerId = "08C09966-8326-41C9-AE3D-74AAC6FC1D13";
paths = (
{
closed = 1;
nodes = (
"452 678 LINE",
"134 167 LINE SMOOTH",
"116 139 OFFCURVE",
"73 75 OFFCURVE",
"60 61 CURVE",
"-3 44 LINE",
"-6 -5 LINE",
"-6 -5 OFFCURVE",
"100 0 OFFCURVE",
"125 0 CURVE SMOOTH",
"155 0 OFFCURVE",
"210 0 OFFCURVE",
"210 0 CURVE",
"222 54 LINE",
"156 64 LINE",
"159 78 OFFCURVE",
"180 122 OFFCURVE",
"189 137 CURVE SMOOTH",
"505 646 LINE"
);
},
{
closed = 1;
nodes = (
"480 286 LINE",
"263 282 LINE SMOOTH",
"263 282 OFFCURVE",
"241 232 OFFCURVE",
"241 232 CURVE",
"484 232 LINE"
);
},
{
closed = 1;
nodes = (
"732 649 LINE SMOOTH",
"759 649 OFFCURVE",
"789 646 OFFCURVE",
"810 644 CURVE",
"818 631 OFFCURVE",
"823 617 OFFCURVE",
"824 610 CURVE SMOOTH",
"826 595 OFFCURVE",
"827 572 OFFCURVE",
"827 556 CURVE",
"884 561 LINE",
"897 692 LINE",
"881 710 LINE",
"881 710 OFFCURVE",
"789 705 OFFCURVE",
"769 705 CURVE SMOOTH",
"454 705 LINE",
"449 649 LINE"
);
},
{
closed = 1;
nodes = (
"488 0 LINE",
"699 0 LINE SMOOTH",
"719 0 OFFCURVE",
"809 -4 OFFCURVE",
"809 -4 CURVE",
"830 14 LINE",
"867 165 LINE",
"814 170 LINE",
"809 154 OFFCURVE",
"796 118 OFFCURVE",
"789 103 CURVE SMOOTH",
"785 94 OFFCURVE",
"775 80 OFFCURVE",
"764 66 CURVE",
"742 62 OFFCURVE",
"708 57 OFFCURVE",
"678 57 CURVE SMOOTH",
"540 57 LINE"
);
},
{
closed = 1;
nodes = (
"483 705 LINE",
"463 705 OFFCURVE",
"368 710 OFFCURVE",
"368 710 CURVE",
"355 656 LINE",
"435 643 LINE"
);
},
{
closed = 1;
nodes = (
"560 57 LINE",
"558 72 OFFCURVE",
"553 147 OFFCURVE",
"553 167 CURVE SMOOTH",
"551 538 LINE SMOOTH",
"551 567 OFFCURVE",
"556 631 OFFCURVE",
"557 650 CURVE",
"461 650 LINE",
"462 137 LINE SMOOTH",
"462 122 OFFCURVE",
"461 85 OFFCURVE",
"457 61 CURVE",
"378 45 LINE",
"376 -5 LINE",
"376 -5 OFFCURVE",
"492 0 OFFCURVE",
"511 0 CURVE"
);
},
{
closed = 1;
nodes = (
"516 338 LINE",
"647 338 LINE SMOOTH",
"667 338 OFFCURVE",
"712 333 OFFCURVE",
"723 332 CURVE",
"720 265 LINE",
"768 271 LINE",
"768 271 OFFCURVE",
"775 330 OFFCURVE",
"783 380 CURVE SMOOTH",
"786 400 OFFCURVE",
"798 464 OFFCURVE",
"798 464 CURVE",
"753 469 LINE",
"732 400 LINE",
"718 398 OFFCURVE",
"684 394 OFFCURVE",
"674 394 CURVE SMOOTH",
"526 394 LINE"
);
}
);
width = 880;
},
{
anchors = (
{
name = top;
position = "{628, 720}";
}
);
background = {
paths = (
{
closed = 1;
nodes = (
"440 263 LINE",
"279 263 LINE",
"223 179 LINE",
"434 179 LINE"
);
},
{
closed = 1;
nodes = (
"738 623 LINE SMOOTH",
"768 623 OFFCURVE",
"795 621 OFFCURVE",
"814 619 CURVE",
"818 611 OFFCURVE",
"819 599 OFFCURVE",
"820 595 CURVE",
"821 580 OFFCURVE",
"820 552 OFFCURVE",
"820 536 CURVE",
"891 541 LINE",
"907 692 LINE",
"891 710 LINE",
"891 710 OFFCURVE",
"799 705 OFFCURVE",
"779 705 CURVE SMOOTH",
"463 705 LINE",
"457 623 LINE"
);
},
{
closed = 1;
nodes = (
"554 0 LINE",
"694 0 LINE SMOOTH",
"714 0 OFFCURVE",
"804 -4 OFFCURVE",
"804 -4 CURVE",
"825 14 LINE",
"865 190 LINE",
"797 195 LINE",
"793 179 OFFCURVE",
"784 153 OFFCURVE",
"778 138 CURVE SMOOTH",
"773 128 OFFCURVE",
"765 113 OFFCURVE",
"753 95 CURVE",
"733 91 OFFCURVE",
"706 87 OFFCURVE",
"678 87 CURVE SMOOTH",
"540 87 LINE"
);
},
{
closed = 1;
nodes = (
"463 626 LINE",
"508 76 LINE",
"592 77 LINE",
"590 91 OFFCURVE",
"582 143 OFFCURVE",
"580 193 CURVE SMOOTH",
"570 542 LINE SMOOTH",
"569 562 OFFCURVE",
"574 611 OFFCURVE",
"575 626 CURVE"
);
},
{
closed = 1;
nodes = (
"489 705 LINE",
"459 705 OFFCURVE",
"369 710 OFFCURVE",
"369 710 CURVE",
"353 635 LINE",
"414 623 LINE"
);
},
{
closed = 1;
nodes = (
"178 90 OFFCURVE",
"183 102 OFFCURVE",
"192 115 CURVE SMOOTH",
"498 584 LINE",
"460 705 LINE",
"92 161 LINE SMOOTH",
"71 131 OFFCURVE",
"44 102 OFFCURVE",
"18 73 CURVE",
"-26 65 LINE",
"-21 -5 LINE",
"-21 -5 OFFCURVE",
"89 0 OFFCURVE",
"119 0 CURVE",
"224 0 LINE",
"229 71 LINE",
"173 77 LINE"
);
},
{
closed = 1;
nodes = (
"355 65 LINE",
"360 -5 LINE",
"360 -5 OFFCURVE",
"514 0 OFFCURVE",
"564 0 CURVE",
"534 586 LINE",
"426 582 LINE",
"426 129 LINE SMOOTH",
"426 112 OFFCURVE",
"419 94 OFFCURVE",
"414 76 CURVE"
);
},
{
closed = 1;
nodes = (
"644 316 LINE SMOOTH",
"664 316 OFFCURVE",
"689 314 OFFCURVE",
"704 312 CURVE",
"704 250 LINE",
"768 256 LINE",
"768 256 OFFCURVE",
"776 333 OFFCURVE",
"784 383 CURVE SMOOTH",
"786 403 OFFCURVE",
"797 466 OFFCURVE",
"797 466 CURVE",
"736 471 LINE",
"717 404 LINE",
"707 402 OFFCURVE",
"685 398 OFFCURVE",
"675 398 CURVE SMOOTH",
"560 398 LINE",
"549 316 LINE"
);
}
);
};
layerId = "B953D09C-6DD0-450A-A78C-8C2188DD4016";
paths = (
{
closed = 1;
nodes = (
"440 263 LINE",
"279 263 LINE",
"223 179 LINE",
"434 179 LINE"
);
},
{
closed = 1;
nodes = (
"738 623 LINE SMOOTH",
"768 623 OFFCURVE",
"795 621 OFFCURVE",
"814 619 CURVE",
"818 611 OFFCURVE",
"819 599 OFFCURVE",
"820 595 CURVE",
"821 580 OFFCURVE",
"820 552 OFFCURVE",
"820 536 CURVE",
"891 541 LINE",
"907 692 LINE",
"891 710 LINE",
"891 710 OFFCURVE",
"799 705 OFFCURVE",
"779 705 CURVE SMOOTH",
"463 705 LINE",
"457 623 LINE"
);
},
{
closed = 1;
nodes = (
"554 0 LINE",
"694 0 LINE SMOOTH",
"714 0 OFFCURVE",
"804 -4 OFFCURVE",
"804 -4 CURVE",
"825 14 LINE",
"865 190 LINE",
"797 195 LINE",
"793 179 OFFCURVE",
"784 153 OFFCURVE",
"778 138 CURVE SMOOTH",
"773 128 OFFCURVE",
"765 113 OFFCURVE",
"753 95 CURVE",
"733 91 OFFCURVE",
"706 87 OFFCURVE",
"678 87 CURVE SMOOTH",
"540 87 LINE"
);
},
{
closed = 1;
nodes = (
"463 626 LINE",
"508 76 LINE",
"592 77 LINE",
"590 91 OFFCURVE",
"582 143 OFFCURVE",
"580 193 CURVE SMOOTH",
"570 542 LINE SMOOTH",
"569 562 OFFCURVE",
"574 611 OFFCURVE",
"575 626 CURVE"
);
},
{
closed = 1;
nodes = (
"489 705 LINE",
"459 705 OFFCURVE",
"369 710 OFFCURVE",
"369 710 CURVE",
"353 635 LINE",
"414 623 LINE"
);
},
{
closed = 1;
nodes = (
"178 90 OFFCURVE",
"183 102 OFFCURVE",
"192 115 CURVE SMOOTH",
"498 584 LINE",
"460 705 LINE",
"92 161 LINE SMOOTH",
"71 131 OFFCURVE",
"44 102 OFFCURVE",
"18 73 CURVE",
"-26 65 LINE",
"-21 -5 LINE",
"-21 -5 OFFCURVE",
"89 0 OFFCURVE",
"119 0 CURVE",
"224 0 LINE",
"229 71 LINE",
"173 77 LINE"
);
},
{
closed = 1;
nodes = (
"355 65 LINE",
"360 -5 LINE",
"360 -5 OFFCURVE",
"514 0 OFFCURVE",
"564 0 CURVE",
"534 586 LINE",
"426 582 LINE",
"426 129 LINE SMOOTH",
"426 112 OFFCURVE",
"419 94 OFFCURVE",
"414 76 CURVE"
);
},
{
closed = 1;
nodes = (
"644 316 LINE SMOOTH",
"664 316 OFFCURVE",
"689 312 OFFCURVE",
"704 310 CURVE",
"704 250 LINE",
"768 256 LINE",
"768 256 OFFCURVE",
"776 333 OFFCURVE",
"784 383 CURVE SMOOTH",
"787 403 OFFCURVE",
"797 466 OFFCURVE",
"797 466 CURVE",
"736 471 LINE",
"717 404 LINE",
"707 402 OFFCURVE",
"685 398 OFFCURVE",
"675 398 CURVE SMOOTH",
"560 398 LINE",
"549 316 LINE"
);
}
);
width = 908;
}
);
leftKerningGroup = AE;
rightKerningGroup = E;
unicode = 00C6;
},
{
color = 1;
glyphname = Aogonek;
lastChange = "2018-05-16 11:35:16 +0000";
layers = (
{
components = (
{
name = A;
},
{
name = ogonekcomb;
transform = "{1, 0, 0, 1, 446, 0}";
}
);
layerId = UUID0;
width = 668;
},
{
components = (
{
name = A;
},
{
name = ogonekcomb;
transform = "{1, 0, 0, 1, 400, 0}";
}
);
layerId = "16643525-C5DD-48EC-8E99-463BF28F5E85";
width = 686;
},
{
background = {
paths = (
{
closed = 1;
nodes = (
"609 54 LINE",
"550 64 LINE",
"525 149 LINE",
"407 715 LINE",
"350 705 LINE",
"97 160 LINE",
"41 61 LINE",
"-23 44 LINE",
"-26 -5 LINE",
"-26 -5 OFFCURVE",
"70 0 OFFCURVE",
"106 0 CURVE SMOOTH",
"189 0 LINE",
"202 54 LINE",
"135 64 LINE",
"155 127 LINE",
"201 232 LINE",
"414 232 LINE",
"425 172 LINE",
"427 153 OFFCURVE",
"429 132 OFFCURVE",
"429 117 CURVE SMOOTH",
"429 71 OFFCURVE",
"413 40 OFFCURVE",
"379 13 CURVE SMOOTH",
"304 -47 OFFCURVE",
"280 -70 OFFCURVE",
"280 -122 CURVE SMOOTH",
"280 -172 OFFCURVE",
"315 -197 OFFCURVE",
"368 -197 CURVE SMOOTH",
"403 -197 OFFCURVE",
"436 -183 OFFCURVE",
"454 -175 CURVE",
"445 -142 LINE",
"423 -151 OFFCURVE",
"405 -155 OFFCURVE",
"390 -155 CURVE SMOOTH",
"358 -155 OFFCURVE",
"343 -135 OFFCURVE",
"343 -110 CURVE SMOOTH",
"343 -67 OFFCURVE",
"388 -9 OFFCURVE",
"456 0 CURVE",
"596 0 LINE"
);
},
{
closed = 1;
nodes = (
"350 557 LINE",
"403 286 LINE",
"225 282 LINE"
);
}
);
};
components = (
{
name = A;
},
{
name = ogonekcomb;
transform = "{1, 0, 0, 1, 393, 1}";
}
);
layerId = "08C09966-8326-41C9-AE3D-74AAC6FC1D13";
width = 649;
},
{
background = {
paths = (
{
closed = 1;
nodes = (
"619 65 LINE",
"567 74 LINE",
"552 128 LINE",
"443 716 LINE",
"334 705 LINE",
"70 161 LINE",
"18 75 LINE",
"-27 68 LINE",
"-33 -5 LINE",
"-33 -5 OFFCURVE",
"20 0 OFFCURVE",
"103 0 CURVE SMOOTH",
"148 0 OFFCURVE",
"204 -5 OFFCURVE",
"204 -5 CURVE",
"219 65 LINE",
"165 77 LINE",
"177 115 LINE",
"202 179 LINE",
"386 179 LINE",
"392 129 LINE",
"392 128 OFFCURVE",
"392 121 OFFCURVE",
"392 120 CURVE SMOOTH",
"392 -1 OFFCURVE",
"247 -23 OFFCURVE",
"247 -121 CURVE SMOOTH",
"247 -172 OFFCURVE",
"284 -197 OFFCURVE",
"340 -197 CURVE SMOOTH",
"380 -197 OFFCURVE",
"417 -183 OFFCURVE",
"437 -174 CURVE",
"426 -126 LINE",
"412 -131 OFFCURVE",
"402 -133 OFFCURVE",
"392 -133 CURVE SMOOTH",
"366 -133 OFFCURVE",
"354 -115 OFFCURVE",
"354 -93 CURVE SMOOTH",
"354 -56 OFFCURVE",
"387 -9 OFFCURVE",
"440 0 CURVE",
"524 0 LINE SMOOTH",
"558 0 OFFCURVE",
"604 -5 OFFCURVE",
"604 -5 CURVE"
);
},
{
closed = 1;
nodes = (
"345 498 LINE",
"372 263 LINE",
"241 261 LINE"
);
}
);
};
components = (
{
name = A;
},
{
name = ogonekcomb;
transform = "{1, 0, 0, 1, 389, 0}";
}
);
layerId = "B953D09C-6DD0-450A-A78C-8C2188DD4016";
width = 663;
}
);
unicode = 0104;
},
{
color = 0;
glyphname = B;
lastChange = "2018-05-16 11:34:52 +0000";
layers = (
{
background = {
paths = (
{
closed = 1;
nodes = (
"288 710 LINE",
"288 710 OFFCURVE",
"210 705 OFFCURVE",
"150 705 CURVE SMOOTH",
"130 705 OFFCURVE",
"35 710 OFFCURVE",
"35 710 CURVE",
"30 656 LINE",
"107 644 LINE",
"109 631 OFFCURVE",
"116 585 OFFCURVE",
"116 568 CURVE SMOOTH",
"116 137 LINE SMOOTH",
"116 120 OFFCURVE",
"109 74 OFFCURVE",
"107 61 CURVE",
"28 45 LINE",
"33 -5 LINE",
"33 -5 OFFCURVE",
"143 0 OFFCURVE",
"168 0 CURVE",
"297 0 LINE",
"304 54 LINE",
"214 61 LINE",
"212 75 OFFCURVE",
"207 125 OFFCURVE",
"207 167 CURVE SMOOTH",
"207 538 LINE SMOOTH",
"207 580 OFFCURVE",
"212 630 OFFCURVE",
"214 644 CURVE",
"292 651 LINE"
);
}
);
};
layerId = UUID0;
paths = (
{
closed = 1;
nodes = (
"35 710 CURVE",
"30 656 LINE",
"107 644 LINE",
"109 631 OFFCURVE",
"116 585 OFFCURVE",
"116 568 CURVE SMOOTH",
"116 137 LINE SMOOTH",
"116 120 OFFCURVE",
"109 74 OFFCURVE",
"107 61 CURVE",
"28 45 LINE",
"33 -5 LINE",
"33 -5 OFFCURVE",
"143 0 OFFCURVE",
"168 0 CURVE",
"218 0 OFFCURVE",
"285 -4 OFFCURVE",
"335 -4 CURVE SMOOTH",
"449 -4 OFFCURVE",
"539 69 OFFCURVE",
"539 183 CURVE SMOOTH",
"539 287 OFFCURVE",
"468 348 OFFCURVE",
"369 363 CURVE",
"369 370 LINE",
"450 390 OFFCURVE",
"508 455 OFFCURVE",
"508 543 CURVE SMOOTH",
"508 648 OFFCURVE",
"421 710 OFFCURVE",
"318 710 CURVE SMOOTH",
"268 710 OFFCURVE",
"200 705 OFFCURVE",
"150 705 CURVE SMOOTH",
"130 705 OFFCURVE",
"55 709 OFFCURVE"
);
},
{
closed = 1;
nodes = (
"239 656 OFFCURVE",
"268 656 OFFCURVE",
"297 656 CURVE SMOOTH",
"367 656 OFFCURVE",
"415 606 OFFCURVE",
"415 531 CURVE SMOOTH",
"415 442 OFFCURVE",
"353 394 OFFCURVE",
"273 394 CURVE SMOOTH",
"266 394 LINE",
"259 337 LINE",
"270 337 LINE SMOOTH",
"359 337 OFFCURVE",
"438 292 OFFCURVE",
"438 191 CURVE SMOOTH",
"438 102 OFFCURVE",
"383 54 OFFCURVE",
"304 54 CURVE SMOOTH",
"271 54 OFFCURVE",
"238 57 OFFCURVE",
"213 59 CURVE",
"211 71 OFFCURVE",
"207 123 OFFCURVE",
"207 167 CURVE SMOOTH",
"207 538 LINE SMOOTH",
"207 582 OFFCURVE",
"212 642 OFFCURVE",
"214 655 CURVE"
);
}
);
width = 586;
},
{
background = {
paths = (
{
closed = 1;
nodes = (
"247 628 OFFCURVE",
"305 628 CURVE SMOOTH",
"375 628 OFFCURVE",
"410 586 OFFCURVE",
"410 521 CURVE SMOOTH",
"410 451 OFFCURVE",
"374 407 OFFCURVE",
"304 407 CURVE SMOOTH",
"298 407 LINE",
"291 320 LINE",
"301 320 LINE SMOOTH",
"376 320 OFFCURVE",
"433 292 OFFCURVE",
"433 203 CURVE SMOOTH",
"433 124 OFFCURVE",
"384 77 OFFCURVE",
"312 77 CURVE SMOOTH",
"293 77 OFFCURVE",
"274 78 OFFCURVE",
"256 80 CURVE",
"178 0 LINE",
"228 0 OFFCURVE",
"297 -5 OFFCURVE",
"347 -5 CURVE SMOOTH",
"476 -5 OFFCURVE",
"586 56 OFFCURVE",
"586 189 CURVE SMOOTH",
"586 293 OFFCURVE",
"514 349 OFFCURVE",
"416 364 CURVE",
"416 371 LINE",
"497 391 OFFCURVE",
"555 455 OFFCURVE",
"555 543 CURVE SMOOTH",
"555 648 OFFCURVE",
"450 710 OFFCURVE",
"330 710 CURVE SMOOTH",
"280 710 OFFCURVE",
"199 705 OFFCURVE",
"149 705 CURVE",
"103 614 LINE",
"181 620 OFFCURVE"
);
},
{
closed = 1;
nodes = (
"149 705 LINE",
"119 705 OFFCURVE",
"29 710 OFFCURVE",
"29 710 CURVE",
"24 635 LINE",
"89 623 LINE",
"91 607 OFFCURVE",
"98 562 OFFCURVE",
"98 512 CURVE SMOOTH",
"98 163 LINE SMOOTH",
"98 143 OFFCURVE",
"90 87 OFFCURVE",
"89 77 CURVE",
"23 65 LINE",
"28 -5 LINE",
"28 -5 OFFCURVE",
"148 0 OFFCURVE",
"178 0 CURVE",
"262 77 LINE",
"260 91 OFFCURVE",
"253 143 OFFCURVE",
"253 193 CURVE SMOOTH",
"253 542 LINE SMOOTH",
"253 562 OFFCURVE",
"257 621 OFFCURVE",
"259 646 CURVE"
);
}
);
};
layerId = "16643525-C5DD-48EC-8E99-463BF28F5E85";
paths = (
{
closed = 1;
nodes = (
"181 620 OFFCURVE",
"247 628 OFFCURVE",
"305 628 CURVE SMOOTH",
"375 628 OFFCURVE",
"410 586 OFFCURVE",
"410 521 CURVE SMOOTH",
"410 451 OFFCURVE",
"374 407 OFFCURVE",
"304 407 CURVE SMOOTH",
"298 407 LINE",
"291 320 LINE",
"301 320 LINE SMOOTH",
"376 320 OFFCURVE",
"433 292 OFFCURVE",
"433 203 CURVE SMOOTH",
"433 124 OFFCURVE",
"384 77 OFFCURVE",
"312 77 CURVE SMOOTH",
"293 77 OFFCURVE",
"274 78 OFFCURVE",
"256 80 CURVE",
"178 0 LINE",
"228 0 OFFCURVE",
"297 -5 OFFCURVE",
"347 -5 CURVE SMOOTH",
"476 -5 OFFCURVE",
"586 56 OFFCURVE",
"586 189 CURVE SMOOTH",
"586 293 OFFCURVE",
"514 349 OFFCURVE",
"416 364 CURVE",
"416 371 LINE",
"497 391 OFFCURVE",
"555 455 OFFCURVE",
"555 543 CURVE SMOOTH",
"555 648 OFFCURVE",
"450 710 OFFCURVE",
"330 710 CURVE SMOOTH",
"280 710 OFFCURVE",
"199 705 OFFCURVE",
"149 705 CURVE",
"103 614 LINE"
);
},
{
closed = 1;
nodes = (
"149 705 LINE",
"119 705 OFFCURVE",
"29 710 OFFCURVE",
"29 710 CURVE",
"24 635 LINE",
"89 623 LINE",
"91 607 OFFCURVE",
"98 562 OFFCURVE",
"98 542 CURVE SMOOTH",
"98 163 LINE SMOOTH",
"98 143 OFFCURVE",
"90 87 OFFCURVE",
"89 77 CURVE",
"23 65 LINE",
"28 -5 LINE",
"28 -5 OFFCURVE",
"148 0 OFFCURVE",
"178 0 CURVE",
"262 57 LINE",
"260 81 OFFCURVE",
"253 153 OFFCURVE",
"253 193 CURVE SMOOTH",
"253 512 LINE SMOOTH",
"253 552 OFFCURVE",
"257 618 OFFCURVE",
"260 643 CURVE"
);
}
);
width = 613;
},
{
background = {
paths = (
{
closed = 1;
nodes = (
"134 0 LINE",
"184 0 OFFCURVE",
"254 -5 OFFCURVE",
"304 -5 CURVE SMOOTH",
"429 -5 OFFCURVE",
"531 79 OFFCURVE",
"531 208 CURVE SMOOTH",
"531 296 OFFCURVE",
"472 350 OFFCURVE",
"386 363 CURVE",
"387 370 LINE",
"480 392 OFFCURVE",
"553 467 OFFCURVE",
"553 566 CURVE SMOOTH",
"553 656 OFFCURVE",
"470 710 OFFCURVE",
"376 710 CURVE SMOOTH",
"336 710 OFFCURVE",
"260 705 OFFCURVE",
"220 705 CURVE",
"186 644 LINE",
"241 649 OFFCURVE",
"309 656 OFFCURVE",
"359 656 CURVE SMOOTH",
"420 656 OFFCURVE",
"459 614 OFFCURVE",
"459 553 CURVE SMOOTH",
"459 451 OFFCURVE",
"383 394 OFFCURVE",
"294 394 CURVE SMOOTH",
"287 394 LINE",
"272 337 LINE",
"283 337 LINE SMOOTH",
"364 337 OFFCURVE",
"430 298 OFFCURVE",
"430 212 CURVE SMOOTH",
"430 111 OFFCURVE",
"363 53 OFFCURVE",
"274 53 CURVE SMOOTH",
"240 53 OFFCURVE",
"208 56 OFFCURVE",
"184 59 CURVE"
);
},
{
closed = 1;
nodes = (
"220 705 LINE",
"200 705 OFFCURVE",
"105 710 OFFCURVE",
"105 710 CURVE",
"92 656 LINE",
"165 644 LINE",
"165 631 OFFCURVE",
"165 585 OFFCURVE",
"162 568 CURVE SMOOTH",
"99 137 LINE SMOOTH",
"97 120 OFFCURVE",
"83 74 OFFCURVE",
"80 61 CURVE",
"1 45 LINE",
"-1 -5 LINE",
"-1 -5 OFFCURVE",
"109 0 OFFCURVE",
"134 0 CURVE",
"185 57 LINE",
"185 71 OFFCURVE",
"189 125 OFFCURVE",
"195 167 CURVE SMOOTH",
"249 538 LINE SMOOTH",
"255 580 OFFCURVE",
"273 654 OFFCURVE",
"277 668 CURVE"
);
}
);
};
layerId = "08C09966-8326-41C9-AE3D-74AAC6FC1D13";
paths = (
{
closed = 1;
nodes = (
"134 0 LINE",
"184 0 OFFCURVE",
"254 -5 OFFCURVE",
"304 -5 CURVE SMOOTH",
"429 -5 OFFCURVE",
"531 79 OFFCURVE",
"531 208 CURVE SMOOTH",
"531 296 OFFCURVE",
"472 350 OFFCURVE",
"386 363 CURVE",
"387 370 LINE",
"480 392 OFFCURVE",
"553 467 OFFCURVE",
"553 566 CURVE SMOOTH",
"553 656 OFFCURVE",
"470 710 OFFCURVE",
"376 710 CURVE SMOOTH",
"336 710 OFFCURVE",
"260 705 OFFCURVE",
"220 705 CURVE",
"186 644 LINE",
"241 649 OFFCURVE",
"309 656 OFFCURVE",
"359 656 CURVE SMOOTH",
"420 656 OFFCURVE",
"459 614 OFFCURVE",
"459 553 CURVE SMOOTH",
"459 451 OFFCURVE",
"383 394 OFFCURVE",
"294 394 CURVE SMOOTH",
"287 394 LINE",
"272 337 LINE",
"283 337 LINE SMOOTH",
"364 337 OFFCURVE",
"430 298 OFFCURVE",
"430 212 CURVE SMOOTH",
"430 111 OFFCURVE",
"363 53 OFFCURVE",
"274 53 CURVE SMOOTH",
"240 53 OFFCURVE",
"208 56 OFFCURVE",
"184 59 CURVE"
);
},
{
closed = 1;
nodes = (
"220 705 LINE",
"200 705 OFFCURVE",
"105 710 OFFCURVE",
"105 710 CURVE",
"92 656 LINE",
"165 644 LINE",
"165 631 OFFCURVE",
"164 583 OFFCURVE",
"162 568 CURVE SMOOTH",
"99 137 LINE SMOOTH",
"97 122 OFFCURVE",
"83 74 OFFCURVE",
"80 61 CURVE",
"1 45 LINE",
"-1 -5 LINE",
"-1 -5 OFFCURVE",
"109 0 OFFCURVE",
"134 0 CURVE",
"185 57 LINE",
"185 71 OFFCURVE",
"191 137 OFFCURVE",
"195 167 CURVE SMOOTH",
"249 538 LINE SMOOTH",
"253 568 OFFCURVE",
"273 654 OFFCURVE",
"277 668 CURVE"
);
}
);
width = 586;
},
{
background = {
paths = (
{
closed = 1;
nodes = (
"358 715 OFFCURVE",
"241 705 OFFCURVE",
"199 705 CURVE",
"152 705 OFFCURVE",
"107 710 OFFCURVE",
"107 710 CURVE",
"91 635 LINE",
"148 623 LINE",
"150 600 OFFCURVE",
"147 552 OFFCURVE",
"141 512 CURVE SMOOTH",
"87 163 LINE SMOOTH",
"85 143 OFFCURVE",
"71 91 OFFCURVE",
"66 77 CURVE",
"4 65 LINE",
"-1 -5 LINE",
"-1 -5 OFFCURVE",
"44 0 OFFCURVE",
"92 0 CURVE",
"150 0 OFFCURVE",
"252 -5 OFFCURVE",
"312 -5 CURVE SMOOTH",
"453 -5 OFFCURVE",
"582 65 OFFCURVE",
"582 214 CURVE SMOOTH",
"582 301 OFFCURVE",
"522 351 OFFCURVE",
"436 364 CURVE",
"437 371 LINE",
"531 393 OFFCURVE",
"604 467 OFFCURVE",
"604 563 CURVE SMOOTH",
"604 660 OFFCURVE",
"513 715 OFFCURVE",
"402 715 CURVE SMOOTH"
);
},
{
closed = 1;
nodes = (
"332 631 OFFCURVE",
"349 633 OFFCURVE",
"366 633 CURVE SMOOTH",
"421 633 OFFCURVE",
"456 594 OFFCURVE",
"456 545 CURVE SMOOTH",
"456 457 OFFCURVE",
"403 407 OFFCURVE",
"334 407 CURVE SMOOTH",
"328 407 LINE",
"309 320 LINE",
"318 320 LINE SMOOTH",
"377 320 OFFCURVE",
"430 296 OFFCURVE",
"430 222 CURVE SMOOTH",
"430 134 OFFCURVE",
"370 77 OFFCURVE",
"288 77 CURVE SMOOTH",
"270 77 OFFCURVE",
"251 78 OFFCURVE",
"233 80 CURVE",
"234 94 OFFCURVE",
"240 149 OFFCURVE",
"247 193 CURVE SMOOTH",
"300 542 LINE SMOOTH",
"303 561 OFFCURVE",
"314 621 OFFCURVE",
"316 629 CURVE"
);
}
);
};
layerId = "B953D09C-6DD0-450A-A78C-8C2188DD4016";
paths = (
{
closed = 1;
nodes = (
"186 0 OFFCURVE",
"272 -5 OFFCURVE",
"312 -5 CURVE SMOOTH",
"453 -5 OFFCURVE",
"582 65 OFFCURVE",
"582 214 CURVE SMOOTH",
"582 301 OFFCURVE",
"522 351 OFFCURVE",
"436 364 CURVE",
"437 371 LINE",
"531 393 OFFCURVE",
"604 467 OFFCURVE",
"604 561 CURVE SMOOTH",
"604 657 OFFCURVE",
"513 710 OFFCURVE",
"402 710 CURVE SMOOTH",
"358 710 OFFCURVE",
"263 705 OFFCURVE",
"221 705 CURVE",
"306 625 LINE",
"322 626 OFFCURVE",
"349 628 OFFCURVE",
"366 628 CURVE SMOOTH",
"421 628 OFFCURVE",
"456 591 OFFCURVE",
"456 543 CURVE SMOOTH",
"456 457 OFFCURVE",
"403 407 OFFCURVE",
"334 407 CURVE SMOOTH",
"328 407 LINE",
"309 320 LINE",
"318 320 LINE SMOOTH",
"377 320 OFFCURVE",
"430 296 OFFCURVE",
"430 222 CURVE SMOOTH",
"430 134 OFFCURVE",
"370 77 OFFCURVE",
"288 77 CURVE SMOOTH",
"270 77 OFFCURVE",
"241 79 OFFCURVE",
"223 80 CURVE",
"146 0 LINE"
);
},
{
closed = 1;
nodes = (
"221 705 LINE",
"191 705 OFFCURVE",
"101 710 OFFCURVE",
"101 710 CURVE",
"85 635 LINE",
"146 623 LINE",
"146 608 OFFCURVE",
"145 562 OFFCURVE",
"138 512 CURVE SMOOTH",
"87 163 LINE SMOOTH",
"84 143 OFFCURVE",
"71 92 OFFCURVE",
"66 77 CURVE",
"1 65 LINE",
"-4 -5 LINE",
"-4 -5 OFFCURVE",
"116 0 OFFCURVE",
"146 0 CURVE",
"233 67 LINE",
"234 82 OFFCURVE",
"239 143 OFFCURVE",
"247 193 CURVE SMOOTH",
"297 542 LINE SMOOTH",
"300 562 OFFCURVE",
"314 618 OFFCURVE",
"318 633 CURVE"
);
}
);
width = 623;
}
);
leftKerningGroup = H;
rightKerningGroup = B;
unicode = 0042;
},
{
color = 0;
glyphname = C;
lastChange = "2018-05-16 11:34:52 +0000";
layers = (
{
anchors = (
{
name = bottom;
position = "{363, 0}";
},
{
name = top;
position = "{375, 720}";
}
);
layerId = UUID0;
paths = (
{
closed = 1;
nodes = (
"579 170 LINE",
"520 168 LINE",
"520 168 OFFCURVE",
"520 131 OFFCURVE",
"518 121 CURVE",
"518 111 OFFCURVE",
"511 88 OFFCURVE",
"504 65 CURVE",
"462 52 OFFCURVE",
"409 43 OFFCURVE",
"368 43 CURVE SMOOTH",
"225 43 OFFCURVE",
"155 180 OFFCURVE",
"155 353 CURVE SMOOTH",
"155 526 OFFCURVE",
"225 662 OFFCURVE",
"369 662 CURVE SMOOTH",
"407 662 OFFCURVE",
"456 652 OFFCURVE",
"495 639 CURVE",
"501 619 OFFCURVE",
"507 598 OFFCURVE",
"507 589 CURVE SMOOTH",
"507 542 LINE",
"566 538 LINE",
"576 686 LINE",
"513 702 OFFCURVE",
"451 720 OFFCURVE",
"369 720 CURVE SMOOTH",
"159 720 OFFCURVE",
"52 570 OFFCURVE",
"52 352 CURVE SMOOTH",
"52 134 OFFCURVE",
"159 -15 OFFCURVE",
"369 -15 CURVE SMOOTH",
"450 -15 OFFCURVE",
"522 3 OFFCURVE",
"585 19 CURVE"
);
}
);
width = 634;
},
{
anchors = (
{
name = bottom;
position = "{367, 0}";
},
{
name = top;
position = "{391, 720}";
}
);
layerId = "16643525-C5DD-48EC-8E99-463BF28F5E85";
paths = (
{
closed = 1;
nodes = (
"607 191 LINE",
"532 189 LINE",
"532 189 OFFCURVE",
"530 153 OFFCURVE",
"529 142 CURVE",
"529 134 OFFCURVE",
"515 100 OFFCURVE",
"513 93 CURVE",
"468 83 OFFCURVE",
"432 78 OFFCURVE",
"389 78 CURVE SMOOTH",
"266 78 OFFCURVE",
"220 200 OFFCURVE",
"220 353 CURVE SMOOTH",
"220 506 OFFCURVE",
"267 627 OFFCURVE",
"390 627 CURVE SMOOTH",
"429 627 OFFCURVE",
"461 622 OFFCURVE",
"502 613 CURVE",
"507 600 OFFCURVE",
"514 578 OFFCURVE",
"514 572 CURVE SMOOTH",
"517 511 LINE",
"594 507 LINE",
"606 686 LINE",
"541 704 OFFCURVE",
"476 720 OFFCURVE",
"390 720 CURVE SMOOTH",
"158 720 OFFCURVE",
"40 570 OFFCURVE",
"40 352 CURVE SMOOTH",
"40 134 OFFCURVE",
"158 -15 OFFCURVE",
"390 -15 CURVE SMOOTH",
"475 -15 OFFCURVE",
"550 3 OFFCURVE",
"615 19 CURVE"
);
}
);
width = 659;
},
{
anchors = (
{
name = bottom;
position = "{334, 0}";
},
{
name = top;
position = "{450, 720}";
}
);
layerId = "08C09966-8326-41C9-AE3D-74AAC6FC1D13";
paths = (
{
closed = 1;
nodes = (
"555 170 LINE",
"497 168 LINE",
"497 168 OFFCURVE",
"491 131 OFFCURVE",
"488 121 CURVE",
"486 111 OFFCURVE",
"476 88 OFFCURVE",
"466 65 CURVE",
"423 52 OFFCURVE",
"381 43 OFFCURVE",
"341 43 CURVE SMOOTH",
"227 43 OFFCURVE",
"165 147 OFFCURVE",
"165 283 CURVE SMOOTH",
"165 480 OFFCURVE",
"256 662 OFFCURVE",
"423 662 CURVE SMOOTH",
"459 662 OFFCURVE",
"505 652 OFFCURVE",
"541 639 CURVE",
"544 619 OFFCURVE",
"546 598 OFFCURVE",
"545 589 CURVE SMOOTH",
"538 542 LINE",
"596 538 LINE",
"627 686 LINE",
"568 702 OFFCURVE",
"511 720 OFFCURVE",
"431 720 CURVE SMOOTH",
"192 720 OFFCURVE",
"62 529 OFFCURVE",
"62 281 CURVE SMOOTH",
"62 105 OFFCURVE",
"158 -15 OFFCURVE",
"334 -15 CURVE SMOOTH",
"413 -15 OFFCURVE",
"475 3 OFFCURVE",
"539 19 CURVE"
);
}
);
width = 621;
},
{
anchors = (
{
name = bottom;
position = "{346, 0}";
},
{
name = top;
position = "{460, 720}";
}
);
layerId = "B953D09C-6DD0-450A-A78C-8C2188DD4016";
paths = (
{
closed = 1;
nodes = (
"586 191 LINE",
"512 189 LINE",
"512 189 OFFCURVE",
"504 153 OFFCURVE",
"502 142 CURVE",
"501 134 OFFCURVE",
"482 100 OFFCURVE",
"479 93 CURVE",
"434 83 OFFCURVE",
"399 78 OFFCURVE",
"357 78 CURVE SMOOTH",
"265 78 OFFCURVE",
"229 165 OFFCURVE",
"229 277 CURVE SMOOTH",
"229 442 OFFCURVE",
"285 627 OFFCURVE",
"438 627 CURVE SMOOTH",
"476 627 OFFCURVE",
"505 622 OFFCURVE",
"544 613 CURVE",
"547 600 OFFCURVE",
"551 578 OFFCURVE",
"550 572 CURVE SMOOTH",
"544 511 LINE",
"619 507 LINE",
"657 686 LINE",
"596 702 OFFCURVE",
"533 720 OFFCURVE",
"449 720 CURVE SMOOTH",
"189 720 OFFCURVE",
"50 533 OFFCURVE",
"50 287 CURVE SMOOTH",
"50 107 OFFCURVE",
"150 -15 OFFCURVE",
"348 -15 CURVE SMOOTH",
"431 -15 OFFCURVE",
"503 3 OFFCURVE",
"569 19 CURVE"
);
}
);
width = 645;
}
);
leftKerningGroup = O;
rightKerningGroup = C;
unicode = 0043;
},
{
color = 0;
glyphname = D;
lastChange = "2018-05-16 11:34:52 +0000";
layers = (
{
anchors = (
{
name = bottom;
position = "{316, 0}";
},
{
name = center;
position = "{171, 353}";
},
{
name = top;
position = "{317, 720}";
}
);
background = {
paths = (
{
closed = 1;
nodes = (
"288 710 LINE",
"288 710 OFFCURVE",
"210 705 OFFCURVE",
"150 705 CURVE SMOOTH",
"130 705 OFFCURVE",
"35 710 OFFCURVE",
"35 710 CURVE",
"30 656 LINE",
"107 644 LINE",
"109 631 OFFCURVE",
"116 585 OFFCURVE",
"116 568 CURVE SMOOTH",
"116 137 LINE SMOOTH",
"116 120 OFFCURVE",
"109 74 OFFCURVE",
"107 61 CURVE",
"28 45 LINE",
"33 -5 LINE",
"33 -5 OFFCURVE",
"143 0 OFFCURVE",
"168 0 CURVE",
"297 0 LINE",
"304 54 LINE",
"214 61 LINE",
"212 75 OFFCURVE",
"207 125 OFFCURVE",
"207 167 CURVE SMOOTH",
"207 538 LINE SMOOTH",
"207 580 OFFCURVE",
"212 630 OFFCURVE",
"214 644 CURVE",
"292 651 LINE"
);
}
);
};
guideLines = (
{
position = "{260, 55}";
}
);
layerId = UUID0;
paths = (
{
closed = 1;
nodes = (
"35 710 CURVE",
"30 656 LINE",
"107 644 LINE",
"109 631 OFFCURVE",
"116 585 OFFCURVE",
"116 568 CURVE SMOOTH",
"116 137 LINE SMOOTH",
"116 120 OFFCURVE",
"109 74 OFFCURVE",
"107 61 CURVE",
"28 45 LINE",
"33 -5 LINE",
"33 -5 OFFCURVE",
"143 0 OFFCURVE",
"168 0 CURVE SMOOTH",
"218 0 OFFCURVE",
"270 -4 OFFCURVE",
"320 -4 CURVE SMOOTH",
"536 -4 OFFCURVE",
"665 141 OFFCURVE",
"665 352 CURVE SMOOTH",
"665 570 OFFCURVE",
"543 710 OFFCURVE",
"320 710 CURVE SMOOTH",
"254 710 OFFCURVE",
"214 705 OFFCURVE",
"150 705 CURVE SMOOTH",
"130 705 OFFCURVE",
"68 708 OFFCURVE"
);
},
{
closed = 1;
nodes = (
"488 650 OFFCURVE",
"566 514 OFFCURVE",
"566 352 CURVE SMOOTH",
"566 189 OFFCURVE",
"488 55 OFFCURVE",
"321 55 CURVE SMOOTH",
"277 55 OFFCURVE",
"240 57 OFFCURVE",
"214 58 CURVE",
"213 62 OFFCURVE",
"207 119 OFFCURVE",
"207 167 CURVE SMOOTH",
"207 538 LINE SMOOTH",
"207 578 OFFCURVE",
"212 631 OFFCURVE",
"214 650 CURVE",
"239 650 OFFCURVE",
"275 650 OFFCURVE",
"321 650 CURVE SMOOTH"
);
}
);
width = 713;
},
{
anchors = (
{
name = bottom;
position = "{325, 0}";
},
{
name = center;
position = "{182, 353}";
},
{
name = top;
position = "{328, 720}";
}
);
background = {
paths = (
{
closed = 1;
nodes = (
"29 710 CURVE",
"24 635 LINE",
"89 623 LINE",
"91 607 OFFCURVE",
"98 562 OFFCURVE",
"98 512 CURVE SMOOTH",
"98 163 LINE SMOOTH",
"98 143 OFFCURVE",
"90 87 OFFCURVE",
"89 77 CURVE",
"23 65 LINE",
"28 -5 LINE",
"28 -5 OFFCURVE",
"148 0 OFFCURVE",
"178 0 CURVE SMOOTH",
"228 0 OFFCURVE",
"288 -5 OFFCURVE",
"338 -5 CURVE SMOOTH",
"570 -5 OFFCURVE",
"690 142 OFFCURVE",
"690 352 CURVE SMOOTH",
"690 562 OFFCURVE",
"570 710 OFFCURVE",
"338 710 CURVE SMOOTH",
"288 710 OFFCURVE",
"199 705 OFFCURVE",
"149 705 CURVE SMOOTH",
"119 705 OFFCURVE",
"29 710 OFFCURVE"
);
},
{
closed = 1;
nodes = (
"471 627 OFFCURVE",
"523 501 OFFCURVE",
"523 354 CURVE SMOOTH",
"523 200 OFFCURVE",
"472 78 OFFCURVE",
"322 78 CURVE SMOOTH",
"295 78 OFFCURVE",
"268 79 OFFCURVE",
"257 80 CURVE",
"256 92 OFFCURVE",
"253 149 OFFCURVE",
"253 193 CURVE SMOOTH",
"253 542 LINE SMOOTH",
"253 558 OFFCURVE",
"256 607 OFFCURVE",
"257 624 CURVE",
"280 626 OFFCURVE",
"304 627 OFFCURVE",
"324 627 CURVE SMOOTH"
);
}
);
};
layerId = "16643525-C5DD-48EC-8E99-463BF28F5E85";
paths = (
{
closed = 1;
nodes = (
"247 624 LINE",
"270 626 OFFCURVE",
"304 627 OFFCURVE",
"324 627 CURVE SMOOTH",
"471 627 OFFCURVE",
"523 501 OFFCURVE",
"523 354 CURVE SMOOTH",
"523 200 OFFCURVE",
"472 78 OFFCURVE",
"322 78 CURVE SMOOTH",
"295 78 OFFCURVE",
"258 79 OFFCURVE",
"247 80 CURVE",
"178 0 LINE",
"228 0 OFFCURVE",
"288 -5 OFFCURVE",
"338 -5 CURVE SMOOTH",
"570 -5 OFFCURVE",
"690 142 OFFCURVE",
"690 352 CURVE SMOOTH",
"690 562 OFFCURVE",
"570 710 OFFCURVE",
"338 710 CURVE SMOOTH",
"288 710 OFFCURVE",
"199 705 OFFCURVE",
"149 705 CURVE"
);
},
{
closed = 1;
nodes = (
"149 705 LINE",
"119 705 OFFCURVE",
"29 710 OFFCURVE",
"29 710 CURVE",
"24 635 LINE",
"89 623 LINE",
"91 607 OFFCURVE",
"98 562 OFFCURVE",
"98 542 CURVE SMOOTH",
"98 163 LINE SMOOTH",
"98 143 OFFCURVE",
"90 87 OFFCURVE",
"89 77 CURVE",
"23 65 LINE",
"28 -5 LINE",
"28 -5 OFFCURVE",
"148 0 OFFCURVE",
"178 0 CURVE",
"262 57 LINE",
"260 81 OFFCURVE",
"253 153 OFFCURVE",
"253 193 CURVE SMOOTH",
"253 512 LINE SMOOTH",
"253 552 OFFCURVE",
"257 618 OFFCURVE",
"260 643 CURVE"
);
}
);
width = 719;
},
{
anchors = (
{
name = bottom;
position = "{284, 0}";
},
{
name = center;
position = "{189, 353}";
},
{
name = top;
position = "{386, 720}";
}
);
background = {
paths = (
{
closed = 1;
nodes = (
"134 0 LINE",
"184 0 OFFCURVE",
"237 -6 OFFCURVE",
"287 -6 CURVE SMOOTH",
"525 -6 OFFCURVE",
"670 170 OFFCURVE",
"670 418 CURVE SMOOTH",
"670 595 OFFCURVE",
"562 710 OFFCURVE",
"372 710 CURVE SMOOTH",
"332 710 OFFCURVE",
"260 705 OFFCURVE",
"220 705 CURVE",
"169 645 LINE",
"194 646 OFFCURVE",
"330 651 OFFCURVE",
"374 650 CURVE SMOOTH",
"511 650 OFFCURVE",
"571 543 OFFCURVE",
"571 412 CURVE SMOOTH",
"571 225 OFFCURVE",
"485 53 OFFCURVE",
"296 53 CURVE SMOOTH",
"266 53 OFFCURVE",
"209 55 OFFCURVE",
"185 57 CURVE"
);
},
{
closed = 1;
nodes = (
"220 705 LINE",
"200 705 OFFCURVE",
"105 710 OFFCURVE",
"105 710 CURVE",
"92 656 LINE",
"165 644 LINE",
"165 631 OFFCURVE",
"164 583 OFFCURVE",
"162 568 CURVE SMOOTH",
"99 137 LINE SMOOTH",
"97 122 OFFCURVE",
"83 74 OFFCURVE",
"80 61 CURVE",
"1 45 LINE",
"-1 -5 LINE",
"-1 -5 OFFCURVE",
"109 0 OFFCURVE",
"134 0 CURVE",
"185 57 LINE",
"185 71 OFFCURVE",
"191 137 OFFCURVE",
"195 167 CURVE SMOOTH",
"249 538 LINE SMOOTH",
"253 568 OFFCURVE",
"273 654 OFFCURVE",
"277 668 CURVE"
);
}
);
};
layerId = "08C09966-8326-41C9-AE3D-74AAC6FC1D13";
paths = (
{
closed = 1;
nodes = (
"134 0 LINE",
"184 0 OFFCURVE",
"237 -5 OFFCURVE",
"287 -5 CURVE SMOOTH",
"525 -5 OFFCURVE",
"670 171 OFFCURVE",
"670 418 CURVE SMOOTH",
"670 595 OFFCURVE",
"562 710 OFFCURVE",
"372 710 CURVE SMOOTH",
"332 710 OFFCURVE",
"260 705 OFFCURVE",
"220 705 CURVE",
"169 645 LINE",
"194 646 OFFCURVE",
"330 651 OFFCURVE",
"374 650 CURVE SMOOTH",
"511 650 OFFCURVE",
"571 543 OFFCURVE",
"571 412 CURVE SMOOTH",
"571 226 OFFCURVE",
"485 54 OFFCURVE",
"296 54 CURVE SMOOTH",
"266 54 OFFCURVE",
"209 56 OFFCURVE",
"185 57 CURVE"
);
},
{
closed = 1;
nodes = (
"220 705 LINE",
"200 705 OFFCURVE",
"105 710 OFFCURVE",
"105 710 CURVE",
"92 656 LINE",
"165 644 LINE",
"165 631 OFFCURVE",
"164 583 OFFCURVE",
"162 568 CURVE SMOOTH",
"99 137 LINE SMOOTH",
"97 122 OFFCURVE",
"83 74 OFFCURVE",
"80 61 CURVE",
"1 45 LINE",
"-1 -5 LINE",
"-1 -5 OFFCURVE",
"109 0 OFFCURVE",
"134 0 CURVE",
"185 57 LINE",
"185 71 OFFCURVE",
"191 137 OFFCURVE",
"195 167 CURVE SMOOTH",
"249 538 LINE SMOOTH",
"253 568 OFFCURVE",
"273 654 OFFCURVE",
"277 668 CURVE"
);
}
);
width = 700;
},
{
anchors = (
{
name = bottom;
position = "{269, 0}";
},
{
name = center;
position = "{204, 353}";
},
{
name = top;
position = "{398, 720}";
}
);
background = {
paths = (
{
closed = 1;
nodes = (
"183 621 OFFCURVE",
"359 626 OFFCURVE",
"377 627 CURVE SMOOTH",
"491 627 OFFCURVE",
"532 534 OFFCURVE",
"532 423 CURVE SMOOTH",
"532 264 OFFCURVE",
"482 78 OFFCURVE",
"294 78 CURVE SMOOTH",
"269 77 OFFCURVE",
"199 83 OFFCURVE",
"179 85 CURVE",
"147 0 LINE",
"207 0 OFFCURVE",
"241 -5 OFFCURVE",
"301 -5 CURVE SMOOTH",
"560 -5 OFFCURVE",
"698 176 OFFCURVE",
"698 415 CURVE SMOOTH",
"698 588 OFFCURVE",
"597 710 OFFCURVE",
"400 710 CURVE SMOOTH",
"355 710 OFFCURVE",
"267 705 OFFCURVE",
"222 705 CURVE",
"160 621 LINE"
);
},
{
closed = 1;
nodes = (
"221 705 LINE",
"191 705 OFFCURVE",
"101 710 OFFCURVE",
"101 710 CURVE",
"85 635 LINE",
"146 623 LINE",
"145 607 OFFCURVE",
"145 562 OFFCURVE",
"138 512 CURVE SMOOTH",
"87 163 LINE SMOOTH",
"84 143 OFFCURVE",
"69 87 OFFCURVE",
"66 77 CURVE",
"1 65 LINE",
"-4 -5 LINE",
"-4 -5 OFFCURVE",
"116 0 OFFCURVE",
"146 0 CURVE",
"233 67 LINE",
"234 81 OFFCURVE",
"239 143 OFFCURVE",
"247 193 CURVE SMOOTH",
"297 542 LINE SMOOTH",
"300 562 OFFCURVE",
"311 614 OFFCURVE",
"316 633 CURVE"
);
}
);
};
layerId = "B953D09C-6DD0-450A-A78C-8C2188DD4016";
paths = (
{
closed = 1;
nodes = (
"183 621 OFFCURVE",
"359 626 OFFCURVE",
"377 627 CURVE SMOOTH",
"491 627 OFFCURVE",
"532 534 OFFCURVE",
"532 423 CURVE SMOOTH",
"532 264 OFFCURVE",
"482 78 OFFCURVE",
"294 78 CURVE SMOOTH",
"269 77 OFFCURVE",
"199 83 OFFCURVE",
"179 85 CURVE",
"147 0 LINE",
"207 0 OFFCURVE",
"241 -5 OFFCURVE",
"301 -5 CURVE SMOOTH",
"560 -5 OFFCURVE",
"698 176 OFFCURVE",
"698 415 CURVE SMOOTH",
"698 588 OFFCURVE",
"597 710 OFFCURVE",
"400 710 CURVE SMOOTH",
"355 710 OFFCURVE",
"266 705 OFFCURVE",
"221 705 CURVE",
"160 621 LINE"
);
},
{
closed = 1;
nodes = (
"221 705 LINE",
"191 705 OFFCURVE",
"101 710 OFFCURVE",
"101 710 CURVE",
"85 635 LINE",
"146 623 LINE",
"146 608 OFFCURVE",
"145 562 OFFCURVE",
"138 512 CURVE SMOOTH",
"87 163 LINE SMOOTH",
"84 143 OFFCURVE",
"71 92 OFFCURVE",
"66 77 CURVE",
"1 65 LINE",
"-4 -5 LINE",
"-4 -5 OFFCURVE",
"116 0 OFFCURVE",
"146 0 CURVE",
"233 67 LINE",
"234 82 OFFCURVE",
"239 143 OFFCURVE",
"247 193 CURVE SMOOTH",
"297 542 LINE SMOOTH",
"300 562 OFFCURVE",
"314 618 OFFCURVE",
"318 633 CURVE"
);
}
);
width = 717;
}
);
leftKerningGroup = H;
rightKerningGroup = O;
unicode = 0044;
},
{
glyphname = Dcroat;
lastChange = "2018-05-16 18:26:24 +0000";
layers = (
{
background = {
paths = (
{
closed = 1;
nodes = (
"41 656 LINE",
"118 644 LINE",
"120 631 OFFCURVE",
"127 585 OFFCURVE",
"127 568 CURVE SMOOTH",
"127 380 LINE",
"39 380 LINE",
"39 337 LINE",
"127 337 LINE",
"127 137 LINE SMOOTH",
"127 120 OFFCURVE",
"120 74 OFFCURVE",
"118 61 CURVE",
"39 45 LINE",
"44 -5 LINE",
"44 -5 OFFCURVE",
"141 0 OFFCURVE",
"162 0 CURVE SMOOTH",
"222 0 OFFCURVE",
"291 -6 OFFCURVE",
"331 -6 CURVE SMOOTH",
"547 -6 OFFCURVE",
"676 139 OFFCURVE",
"676 352 CURVE SMOOTH",
"676 575 OFFCURVE",
"554 715 OFFCURVE",
"331 715 CURVE SMOOTH",
"265 715 OFFCURVE",
"208 707 OFFCURVE",
"144 705 CURVE",
"110 707 OFFCURVE",
"46 710 OFFCURVE",
"46 710 CURVE"
);
},
{
closed = 1;
nodes = (
"218 337 LINE",
"356 337 LINE",
"361 380 LINE",
"218 380 LINE",
"218 538 LINE SMOOTH",
"218 578 OFFCURVE",
"223 631 OFFCURVE",
"225 650 CURVE",
"250 653 OFFCURVE",
"286 655 OFFCURVE",
"332 655 CURVE SMOOTH",
"499 655 OFFCURVE",
"577 519 OFFCURVE",
"577 352 CURVE SMOOTH",
"577 187 OFFCURVE",
"499 53 OFFCURVE",
"332 53 CURVE SMOOTH",
"288 53 OFFCURVE",
"251 55 OFFCURVE",
"225 57 CURVE",
"224 61 OFFCURVE",
"218 119 OFFCURVE",
"218 167 CURVE SMOOTH"
);
}
);
};
components = (
{
name = D;
},
{
name = barcomp;
transform = "{1, 0, 0, 1, 4, -252}";
}
);
layerId = UUID0;
width = 713;
},
{
components = (
{
name = D;
},
{
name = barcomp;
transform = "{1, 0, 0, 1, -30, -239}";
}
);
layerId = "16643525-C5DD-48EC-8E99-463BF28F5E85";
width = 719;
},
{
background = {
paths = (
{
closed = 1;
nodes = (
"61 380 LINE",
"55 337 LINE",
"362 337 LINE",
"373 380 LINE"
);
}
);
};
components = (
{
name = D;
},
{
name = barcomp;
transform = "{1, 0, 0, 1, -18, -252}";
}
);
layerId = "08C09966-8326-41C9-AE3D-74AAC6FC1D13";
width = 700;
},
{
background = {
paths = (
{
closed = 1;
nodes = (
"53 322 LINE",
"359 322 LINE",
"375 395 LINE",
"63 395 LINE"
);
}
);
};
components = (
{
name = D;
},
{
name = barcomp;
transform = "{1, 0, 0, 1, -70, -239}";
}
);
layerId = "B953D09C-6DD0-450A-A78C-8C2188DD4016";
width = 717;
}
);
rightKerningGroup = O;
unicode = 0110;
},
{
color = 0;
glyphname = E;
lastChange = "2018-05-16 11:34:52 +0000";
layers = (
{
anchors = (
{
name = bottom;
position = "{294, 0}";
},
{
name = ogonek;
position = "{502, -4}";
},
{
name = top;
position = "{280, 720}";
}
);
background = {
paths = (
{
closed = 1;
nodes = (
"130 705 OFFCURVE",
"35 710 OFFCURVE",
"35 710 CURVE",
"30 656 LINE",
"107 644 LINE",
"109 631 OFFCURVE",
"116 585 OFFCURVE",
"116 568 CURVE SMOOTH",
"116 137 LINE SMOOTH",
"116 120 OFFCURVE",
"109 74 OFFCURVE",
"107 61 CURVE",
"28 45 LINE",
"33 -5 LINE",
"33 -5 OFFCURVE",
"143 0 OFFCURVE",
"168 0 CURVE SMOOTH",
"388 0 LINE SMOOTH",
"408 0 OFFCURVE",
"502 -4 OFFCURVE",
"502 -4 CURVE",
"521 14 LINE",
"536 165 LINE",
"481 170 LINE",
"479 154 OFFCURVE",
"469 118 OFFCURVE",
"466 103 CURVE SMOOTH",
"464 94 OFFCURVE",
"455 80 OFFCURVE",
"445 66 CURVE",
"423 62 OFFCURVE",
"389 57 OFFCURVE",
"358 57 CURVE SMOOTH",
"214 57 LINE",
"212 76 OFFCURVE",
"207 127 OFFCURVE",
"207 167 CURVE SMOOTH",
"207 338 LINE",
"303 338 LINE",
"323 338 OFFCURVE",
"383 332 OFFCURVE",
"383 332 CURVE",
"392 265 LINE",
"440 271 LINE",
"440 271 OFFCURVE",
"437 330 OFFCURVE",
"437 380 CURVE SMOOTH",
"437 400 OFFCURVE",
"438 464 OFFCURVE",
"438 464 CURVE",
"392 469 LINE",
"383 403 LINE",
"383 403 OFFCURVE",
"343 394 OFFCURVE",
"323 394 CURVE",
"207 394 LINE",
"207 538 LINE SMOOTH",
"207 577 OFFCURVE",
"212 628 OFFCURVE",
"214 649 CURVE",
"345 649 LINE SMOOTH",
"373 649 OFFCURVE",
"404 646 OFFCURVE",
"426 644 CURVE",
"436 631 OFFCURVE",
"445 617 OFFCURVE",
"446 610 CURVE",
"450 595 OFFCURVE",
"455 572 OFFCURVE",
"457 556 CURVE",
"515 561 LINE",
"508 692 LINE",
"489 710 LINE",
"489 710 OFFCURVE",
"395 705 OFFCURVE",
"375 705 CURVE SMOOTH",
"150 705 LINE SMOOTH"
);
}
);
};
guideLines = (
{
position = "{193, 338}";
}
);
layerId = UUID0;
paths = (
{
closed = 1;
nodes = (
"130 705 OFFCURVE",
"35 710 OFFCURVE",
"35 710 CURVE",
"30 656 LINE",
"107 644 LINE",
"109 631 OFFCURVE",
"116 585 OFFCURVE",
"116 568 CURVE SMOOTH",
"116 137 LINE SMOOTH",
"116 120 OFFCURVE",
"109 74 OFFCURVE",
"107 61 CURVE",
"28 45 LINE",
"33 -5 LINE",
"33 -5 OFFCURVE",
"143 0 OFFCURVE",
"168 0 CURVE SMOOTH",
"388 0 LINE SMOOTH",
"408 0 OFFCURVE",
"502 -4 OFFCURVE",
"502 -4 CURVE",
"521 14 LINE",
"536 165 LINE",
"481 170 LINE",
"479 154 OFFCURVE",
"469 118 OFFCURVE",
"466 103 CURVE SMOOTH",
"464 94 OFFCURVE",
"455 80 OFFCURVE",
"445 66 CURVE",
"423 62 OFFCURVE",
"389 57 OFFCURVE",
"358 57 CURVE SMOOTH",
"214 57 LINE",
"212 76 OFFCURVE",
"207 127 OFFCURVE",
"207 167 CURVE",
"207 538 LINE",
"207 577 OFFCURVE",
"212 628 OFFCURVE",
"214 649 CURVE",
"345 649 LINE SMOOTH",
"373 649 OFFCURVE",
"404 646 OFFCURVE",
"426 644 CURVE",
"436 631 OFFCURVE",
"445 617 OFFCURVE",
"446 610 CURVE",
"450 595 OFFCURVE",
"455 572 OFFCURVE",
"457 556 CURVE",
"515 561 LINE",
"508 692 LINE",
"489 710 LINE",
"489 710 OFFCURVE",
"395 705 OFFCURVE",
"375 705 CURVE SMOOTH",
"150 705 LINE SMOOTH"
);
},
{
closed = 1;
nodes = (
"197 338 LINE",
"303 338 LINE SMOOTH",
"323 338 OFFCURVE",
"374 333 OFFCURVE",
"383 332 CURVE",
"392 265 LINE",
"440 271 LINE",
"440 271 OFFCURVE",
"437 330 OFFCURVE",
"437 380 CURVE SMOOTH",
"437 400 OFFCURVE",
"438 464 OFFCURVE",
"438 464 CURVE",
"392 469 LINE",
"383 400 LINE",
"378 399 OFFCURVE",
"343 394 OFFCURVE",
"323 394 CURVE SMOOTH",
"197 394 LINE"
);
}
);
width = 579;
},
{
anchors = (
{
name = bottom;
position = "{313, 0}";
},
{
name = ogonek;
position = "{525, -4}";
},
{
name = top;
position = "{283, 720}";
}
);
background = {
paths = (
{
closed = 1;
nodes = (
"371 623 LINE",
"401 623 OFFCURVE",
"426 621 OFFCURVE",
"446 619 CURVE",
"459 583 LINE",
"461 568 OFFCURVE",
"463 554 OFFCURVE",
"465 537 CURVE",
"537 542 LINE",
"530 692 LINE",
"511 710 LINE",
"481 708 OFFCURVE",
"416 705 OFFCURVE",
"396 705 CURVE",
"149 705 LINE",
"257 623 LINE"
);
},
{
closed = 1;
nodes = (
"411 0 LINE SMOOTH",
"431 0 OFFCURVE",
"525 -4 OFFCURVE",
"525 -4 CURVE",
"544 14 LINE",
"559 190 LINE",
"489 195 LINE",
"487 179 OFFCURVE",
"481 153 OFFCURVE",
"477 138 CURVE SMOOTH",
"474 128 OFFCURVE",
"468 113 OFFCURVE",
"458 95 CURVE",
"438 91 OFFCURVE",
"410 87 OFFCURVE",
"381 87 CURVE SMOOTH",
"256 87 LINE",
"178 0 LINE"
);
},
{
closed = 1;
nodes = (
"149 705 LINE",
"119 705 OFFCURVE",
"29 710 OFFCURVE",
"29 710 CURVE",
"24 635 LINE",
"89 623 LINE",
"91 607 OFFCURVE",
"98 562 OFFCURVE",
"98 542 CURVE SMOOTH",
"98 163 LINE SMOOTH",
"98 143 OFFCURVE",
"90 87 OFFCURVE",
"89 77 CURVE",
"23 65 LINE",
"28 -5 LINE",
"28 -5 OFFCURVE",
"148 0 OFFCURVE",
"178 0 CURVE",
"262 57 LINE",
"260 81 OFFCURVE",
"253 153 OFFCURVE",
"253 193 CURVE SMOOTH",
"253 512 LINE SMOOTH",
"253 552 OFFCURVE",
"257 618 OFFCURVE",
"260 643 CURVE"
);
},
{
closed = 1;
nodes = (
"315 316 LINE SMOOTH",
"335 316 OFFCURVE",
"369 313 OFFCURVE",
"379 312 CURVE",
"388 250 LINE",
"452 256 LINE",
"452 256 OFFCURVE",
"449 333 OFFCURVE",
"449 383 CURVE SMOOTH",
"449 403 OFFCURVE",
"450 466 OFFCURVE",
"450 466 CURVE",
"388 471 LINE",
"379 404 LINE",
"371 402 OFFCURVE",
"345 398 OFFCURVE",
"335 398 CURVE SMOOTH",
"243 398 LINE",
"243 316 LINE"
);
}
);
};
layerId = "16643525-C5DD-48EC-8E99-463BF28F5E85";
paths = (
{
closed = 1;
nodes = (
"371 623 LINE",
"401 623 OFFCURVE",
"426 621 OFFCURVE",
"446 619 CURVE",
"459 583 LINE",
"461 568 OFFCURVE",
"463 554 OFFCURVE",
"465 537 CURVE",
"537 542 LINE",
"530 692 LINE",
"511 710 LINE",
"481 708 OFFCURVE",
"416 705 OFFCURVE",
"396 705 CURVE",
"149 705 LINE",
"257 623 LINE"
);
},
{
closed = 1;
nodes = (
"411 0 LINE SMOOTH",
"431 0 OFFCURVE",
"525 -4 OFFCURVE",
"525 -4 CURVE",
"544 14 LINE",
"559 190 LINE",
"489 195 LINE",
"487 179 OFFCURVE",
"481 153 OFFCURVE",
"477 138 CURVE SMOOTH",
"474 128 OFFCURVE",
"468 113 OFFCURVE",
"458 95 CURVE",
"438 91 OFFCURVE",
"410 87 OFFCURVE",
"381 87 CURVE SMOOTH",
"256 87 LINE",
"178 0 LINE"
);
},
{
closed = 1;
nodes = (
"149 705 LINE",
"119 705 OFFCURVE",
"29 710 OFFCURVE",
"29 710 CURVE",
"24 635 LINE",
"89 623 LINE",
"91 607 OFFCURVE",
"98 562 OFFCURVE",
"98 542 CURVE SMOOTH",
"98 163 LINE SMOOTH",
"98 143 OFFCURVE",
"90 87 OFFCURVE",
"89 77 CURVE",
"23 65 LINE",
"28 -5 LINE",
"28 -5 OFFCURVE",
"148 0 OFFCURVE",
"178 0 CURVE",
"262 57 LINE",
"260 81 OFFCURVE",
"253 153 OFFCURVE",
"253 193 CURVE SMOOTH",
"253 512 LINE SMOOTH",
"253 552 OFFCURVE",
"257 618 OFFCURVE",
"260 643 CURVE"
);
},
{
closed = 1;
nodes = (
"315 316 LINE SMOOTH",
"335 316 OFFCURVE",
"369 313 OFFCURVE",
"379 312 CURVE",
"388 250 LINE",
"452 256 LINE",
"452 256 OFFCURVE",
"449 333 OFFCURVE",
"449 383 CURVE SMOOTH",
"449 403 OFFCURVE",
"450 466 OFFCURVE",
"450 466 CURVE",
"388 471 LINE",
"379 402 LINE",
"366 400 OFFCURVE",
"345 398 OFFCURVE",
"335 398 CURVE SMOOTH",
"243 398 LINE",
"243 316 LINE"
);
}
);
width = 585;
},
{
anchors = (
{
name = bottom;
position = "{244, 0}";
},
{
name = ogonek;
position = "{455, -4}";
},
{
name = top;
position = "{350, 720}";
}
);
background = {
paths = (
{
closed = 1;
nodes = (
"398 649 LINE SMOOTH",
"425 649 OFFCURVE",
"455 646 OFFCURVE",
"476 644 CURVE",
"484 631 OFFCURVE",
"489 617 OFFCURVE",
"490 610 CURVE SMOOTH",
"492 595 OFFCURVE",
"493 572 OFFCURVE",
"493 556 CURVE",
"550 561 LINE",
"563 692 LINE",
"547 710 LINE",
"547 710 OFFCURVE",
"455 705 OFFCURVE",
"435 705 CURVE SMOOTH",
"220 705 LINE",
"272 649 LINE"
);
},
{
closed = 1;
nodes = (
"210 338 LINE",
"311 338 LINE SMOOTH",
"330 338 OFFCURVE",
"387 332 OFFCURVE",
"387 332 CURVE",
"384 265 LINE",
"432 271 LINE",
"432 271 OFFCURVE",
"439 330 OFFCURVE",
"447 380 CURVE SMOOTH",
"450 400 OFFCURVE",
"462 464 OFFCURVE",
"462 464 CURVE",
"417 469 LINE",
"397 403 LINE",
"397 403 OFFCURVE",
"358 394 OFFCURVE",
"338 394 CURVE SMOOTH",
"220 394 LINE"
);
},
{
closed = 1;
nodes = (
"324 57 LINE SMOOTH",
"354 57 OFFCURVE",
"388 62 OFFCURVE",
"410 66 CURVE",
"421 80 OFFCURVE",
"431 94 OFFCURVE",
"435 103 CURVE SMOOTH",
"442 118 OFFCURVE",
"455 154 OFFCURVE",
"460 170 CURVE",
"513 165 LINE",
"476 14 LINE",
"455 -4 LINE",
"455 -4 OFFCURVE",
"365 0 OFFCURVE",
"345 0 CURVE SMOOTH",
"134 0 LINE",
"186 57 LINE"
);
},
{
closed = 1;
nodes = (
"220 705 LINE",
"200 705 OFFCURVE",
"105 710 OFFCURVE",
"105 710 CURVE",
"92 656 LINE",
"165 644 LINE",
"165 631 OFFCURVE",
"164 583 OFFCURVE",
"162 568 CURVE SMOOTH",
"99 137 LINE SMOOTH",
"97 122 OFFCURVE",
"83 74 OFFCURVE",
"80 61 CURVE",
"1 45 LINE",
"-1 -5 LINE",
"-1 -5 OFFCURVE",
"109 0 OFFCURVE",
"134 0 CURVE",
"186 57 LINE",
"186 71 OFFCURVE",
"191 137 OFFCURVE",
"195 167 CURVE SMOOTH",
"249 538 LINE SMOOTH",
"253 568 OFFCURVE",
"268 632 OFFCURVE",
"272 649 CURVE"
);
}
);
};
guideLines = (
{
position = "{298, 338}";
}
);
layerId = "08C09966-8326-41C9-AE3D-74AAC6FC1D13";
paths = (
{
closed = 1;
nodes = (
"398 649 LINE SMOOTH",
"425 649 OFFCURVE",
"455 646 OFFCURVE",
"476 644 CURVE",
"484 631 OFFCURVE",
"489 617 OFFCURVE",
"490 610 CURVE SMOOTH",
"492 595 OFFCURVE",
"493 572 OFFCURVE",
"493 556 CURVE",
"550 561 LINE",
"563 692 LINE",
"547 710 LINE",
"547 710 OFFCURVE",
"455 705 OFFCURVE",
"435 705 CURVE SMOOTH",
"220 705 LINE",
"272 649 LINE"
);
},
{
closed = 1;
nodes = (
"210 338 LINE",
"311 338 LINE SMOOTH",
"331 338 OFFCURVE",
"376 333 OFFCURVE",
"387 332 CURVE",
"384 265 LINE",
"432 271 LINE",
"432 271 OFFCURVE",
"439 330 OFFCURVE",
"447 380 CURVE SMOOTH",
"450 400 OFFCURVE",
"462 464 OFFCURVE",
"462 464 CURVE",
"417 469 LINE",
"396 400 LINE",
"382 398 OFFCURVE",
"348 394 OFFCURVE",
"338 394 CURVE SMOOTH",
"220 394 LINE"
);
},
{
closed = 1;
nodes = (
"134 0 LINE",
"345 0 LINE SMOOTH",
"365 0 OFFCURVE",
"455 -4 OFFCURVE",
"455 -4 CURVE",
"476 14 LINE",
"513 165 LINE",
"460 170 LINE",
"455 154 OFFCURVE",
"442 118 OFFCURVE",
"435 103 CURVE SMOOTH",
"431 94 OFFCURVE",
"421 80 OFFCURVE",
"410 66 CURVE",
"388 62 OFFCURVE",
"354 57 OFFCURVE",
"324 57 CURVE SMOOTH",
"186 57 LINE"
);
},
{
closed = 1;
nodes = (
"220 705 LINE",
"200 705 OFFCURVE",
"105 710 OFFCURVE",
"105 710 CURVE",
"92 656 LINE",
"165 644 LINE",
"165 631 OFFCURVE",
"164 583 OFFCURVE",
"162 568 CURVE SMOOTH",
"99 137 LINE SMOOTH",
"97 122 OFFCURVE",
"83 74 OFFCURVE",
"80 61 CURVE",
"1 45 LINE",
"-1 -5 LINE",
"-1 -5 OFFCURVE",
"109 0 OFFCURVE",
"134 0 CURVE",
"186 57 LINE",
"186 71 OFFCURVE",
"191 137 OFFCURVE",
"195 167 CURVE SMOOTH",
"249 538 LINE SMOOTH",
"253 568 OFFCURVE",
"268 632 OFFCURVE",
"272 649 CURVE"
);
}
);
width = 569;
},
{
anchors = (
{
name = bottom;
position = "{287, 0}";
},
{
name = ogonek;
position = "{479, -4}";
},
{
name = top;
position = "{349, 720}";
}
);
background = {
paths = (
{
closed = 1;
nodes = (
"417 623 LINE SMOOTH",
"447 623 OFFCURVE",
"474 621 OFFCURVE",
"493 619 CURVE",
"497 611 OFFCURVE",
"498 599 OFFCURVE",
"499 595 CURVE",
"500 580 OFFCURVE",
"499 552 OFFCURVE",
"499 536 CURVE",
"570 541 LINE",
"586 692 LINE",
"570 710 LINE",
"570 710 OFFCURVE",
"478 705 OFFCURVE",
"458 705 CURVE SMOOTH",
"221 705 LINE",
"312 623 LINE"
);
},
{
closed = 1;
nodes = (
"146 0 LINE",
"369 0 LINE SMOOTH",
"389 0 OFFCURVE",
"479 -4 OFFCURVE",
"479 -4 CURVE",
"500 14 LINE",
"540 190 LINE",
"472 195 LINE",
"468 179 OFFCURVE",
"459 153 OFFCURVE",
"453 138 CURVE SMOOTH",
"448 128 OFFCURVE",
"440 113 OFFCURVE",
"428 95 CURVE",
"408 91 OFFCURVE",
"381 87 OFFCURVE",
"353 87 CURVE SMOOTH",
"233 87 LINE"
);
},
{
closed = 1;
nodes = (
"221 705 LINE",
"191 705 OFFCURVE",
"101 710 OFFCURVE",
"101 710 CURVE",
"85 635 LINE",
"146 623 LINE",
"146 608 OFFCURVE",
"145 562 OFFCURVE",
"138 512 CURVE SMOOTH",
"87 163 LINE SMOOTH",
"84 143 OFFCURVE",
"71 92 OFFCURVE",
"66 77 CURVE",
"1 65 LINE",
"-4 -5 LINE",
"-4 -5 OFFCURVE",
"116 0 OFFCURVE",
"146 0 CURVE",
"233 67 LINE",
"234 82 OFFCURVE",
"239 143 OFFCURVE",
"247 193 CURVE SMOOTH",
"297 542 LINE SMOOTH",
"300 562 OFFCURVE",
"314 618 OFFCURVE",
"318 633 CURVE"
);
},
{
closed = 1;
nodes = (
"322 316 LINE SMOOTH",
"342 316 OFFCURVE",
"367 314 OFFCURVE",
"382 312 CURVE",
"382 250 LINE",
"446 256 LINE",
"446 256 OFFCURVE",
"454 333 OFFCURVE",
"462 383 CURVE SMOOTH",
"464 403 OFFCURVE",
"475 466 OFFCURVE",
"475 466 CURVE",
"414 471 LINE",
"395 404 LINE",
"385 402 OFFCURVE",
"363 398 OFFCURVE",
"353 398 CURVE SMOOTH",
"238 398 LINE",
"227 316 LINE"
);
}
);
};
layerId = "B953D09C-6DD0-450A-A78C-8C2188DD4016";
paths = (
{
closed = 1;
nodes = (
"417 623 LINE SMOOTH",
"447 623 OFFCURVE",
"474 621 OFFCURVE",
"493 619 CURVE",
"497 611 OFFCURVE",
"498 599 OFFCURVE",
"499 595 CURVE",
"500 580 OFFCURVE",
"499 552 OFFCURVE",
"499 536 CURVE",
"570 541 LINE",
"586 692 LINE",
"570 710 LINE",
"570 710 OFFCURVE",
"478 705 OFFCURVE",
"458 705 CURVE SMOOTH",
"221 705 LINE",
"312 623 LINE"
);
},
{
closed = 1;
nodes = (
"146 0 LINE",
"369 0 LINE SMOOTH",
"389 0 OFFCURVE",
"479 -4 OFFCURVE",
"479 -4 CURVE",
"500 14 LINE",
"540 190 LINE",
"472 195 LINE",
"468 179 OFFCURVE",
"459 153 OFFCURVE",
"453 138 CURVE SMOOTH",
"448 128 OFFCURVE",
"440 113 OFFCURVE",
"428 95 CURVE",
"408 91 OFFCURVE",
"381 87 OFFCURVE",
"353 87 CURVE SMOOTH",
"233 87 LINE"
);
},
{
closed = 1;
nodes = (
"221 705 LINE",
"191 705 OFFCURVE",
"101 710 OFFCURVE",
"101 710 CURVE",
"85 635 LINE",
"146 623 LINE",
"146 608 OFFCURVE",
"145 562 OFFCURVE",
"138 512 CURVE SMOOTH",
"87 163 LINE SMOOTH",
"84 143 OFFCURVE",
"71 92 OFFCURVE",
"66 77 CURVE",
"1 65 LINE",
"-4 -5 LINE",
"-4 -5 OFFCURVE",
"116 0 OFFCURVE",
"146 0 CURVE",
"233 67 LINE",
"234 82 OFFCURVE",
"239 143 OFFCURVE",
"247 193 CURVE SMOOTH",
"297 542 LINE SMOOTH",
"300 562 OFFCURVE",
"314 618 OFFCURVE",
"318 633 CURVE"
);
},
{
closed = 1;
nodes = (
"322 316 LINE SMOOTH",
"342 316 OFFCURVE",
"367 312 OFFCURVE",
"382 310 CURVE",
"382 250 LINE",
"446 256 LINE",
"446 256 OFFCURVE",
"454 333 OFFCURVE",
"462 383 CURVE SMOOTH",
"465 403 OFFCURVE",
"475 466 OFFCURVE",
"475 466 CURVE",
"414 471 LINE",
"395 404 LINE",
"385 402 OFFCURVE",
"363 398 OFFCURVE",
"353 398 CURVE SMOOTH",
"238 398 LINE",
"227 316 LINE"
);
}
);
width = 585;
}
);
leftKerningGroup = H;
rightKerningGroup = E;
unicode = 0045;
},
{
color = 1;
glyphname = Eng;
lastChange = "2018-05-16 11:35:16 +0000";
layers = (
{
annotations = (
{
position = "{625, -5}";
type = Text;
}
);
background = {
paths = (
{
closed = 1;
nodes = (
"736 657 LINE",
"657 641 LINE",
"653 622 OFFCURVE",
"642 568 OFFCURVE",
"642 528 CURVE SMOOTH",
"642 297 LINE SMOOTH",
"642 257 OFFCURVE",
"641 -7 OFFCURVE",
"641 -7 CURVE",
"642 -34 OFFCURVE",
"569 -143 OFFCURVE",
"529 -200 CURVE",
"495 -178 LINE",
"495 -178 OFFCURVE",
"562 -34 OFFCURVE",
"573 4 CURVE",
"187 556 LINE",
"187 167 LINE SMOOTH",
"187 125 OFFCURVE",
"192 75 OFFCURVE",
"194 61 CURVE",
"275 54 LINE",
"268 -5 LINE",
"268 -5 OFFCURVE",
"225 0 OFFCURVE",
"145 0 CURVE SMOOTH",
"125 0 OFFCURVE",
"37 -5 OFFCURVE",
"37 -5 CURVE",
"32 45 LINE",
"111 61 LINE",
"113 74 OFFCURVE",
"120 120 OFFCURVE",
"120 137 CURVE SMOOTH",
"120 568 LINE SMOOTH",
"120 584 OFFCURVE",
"113 629 OFFCURVE",
"111 644 CURVE",
"31 656 LINE",
"36 710 LINE",
"36 710 OFFCURVE",
"132 705 OFFCURVE",
"152 706 CURVE",
"196 706 LINE",
"216 685 LINE",
"216 685 OFFCURVE",
"298 552 OFFCURVE",
"313 530 CURVE SMOOTH",
"575 163 LINE",
"575 558 LINE SMOOTH",
"575 574 OFFCURVE",
"569 623 OFFCURVE",
"566 641 CURVE",
"487 647 LINE",
"493 707 LINE",
"575 705 LINE SMOOTH",
"654 705 OFFCURVE",
"731 710 OFFCURVE",
"731 710 CURVE"
);
}
);
};
components = (
{
name = N;
}
);
layerId = UUID0;
paths = (
{
closed = 1;
nodes = (
"571 -14 OFFCURVE",
"490 -178 OFFCURVE",
"490 -178 CURVE",
"524 -200 LINE",
"618 -60 OFFCURVE",
"636 -27 OFFCURVE",
"636 0 CURVE",
"571 12 LINE"
);
}
);
width = 752;
},
{
background = {
paths = (
{
closed = 1;
nodes = (
"769 629 LINE",
"703 623 LINE",
"701 611 OFFCURVE",
"694 562 OFFCURVE",
"694 542 CURVE SMOOTH",
"694 193 LINE SMOOTH",
"694 143 OFFCURVE",
"694 0 OFFCURVE",
"694 0 CURVE",
"698 -31 OFFCURVE",
"622 -115 OFFCURVE",
"537 -200 CURVE",
"483 -169 LINE",
"483 -169 OFFCURVE",
"555 -19 OFFCURVE",
"559 0 CURVE",
"234 450 LINE",
"234 193 LINE SMOOTH",
"234 143 OFFCURVE",
"242 87 OFFCURVE",
"243 77 CURVE",
"308 71 LINE",
"303 -5 LINE",
"303 -5 OFFCURVE",
"250 0 OFFCURVE",
"137 0 CURVE SMOOTH",
"90 0 OFFCURVE",
"37 -5 OFFCURVE",
"37 -5 CURVE",
"32 65 LINE",
"98 77 LINE",
"100 88 OFFCURVE",
"107 143 OFFCURVE",
"107 163 CURVE SMOOTH",
"107 512 LINE SMOOTH",
"107 562 OFFCURVE",
"100 612 OFFCURVE",
"98 623 CURVE",
"33 635 LINE",
"38 710 LINE",
"38 710 OFFCURVE",
"91 705 OFFCURVE",
"138 705 CURVE",
"240 705 LINE",
"259 685 LINE",
"259 685 OFFCURVE",
"332 559 OFFCURVE",
"347 537 CURVE SMOOTH",
"567 230 LINE",
"567 512 LINE SMOOTH",
"567 549 OFFCURVE",
"560 607 OFFCURVE",
"558 623 CURVE",
"493 635 LINE",
"498 710 LINE",
"598 705 LINE SMOOTH",
"679 705 OFFCURVE",
"764 710 OFFCURVE",
"764 710 CURVE"
);
}
);
};
components = (
{
name = N;
transform = "{1, 0, 0, 1, -9, 0}";
}
);
layerId = "16643525-C5DD-48EC-8E99-463BF28F5E85";
paths = (
{
closed = 1;
nodes = (
"676 0 LINE",
"676 -31 OFFCURVE",
"604 -115 OFFCURVE",
"519 -200 CURVE",
"465 -169 LINE",
"465 -169 OFFCURVE",
"537 -19 OFFCURVE",
"541 0 CURVE"
);
}
);
width = 785;
},
{
background = {
paths = (
{
closed = 1;
nodes = (
"784 657 LINE",
"705 641 LINE",
"698 622 OFFCURVE",
"679 568 OFFCURVE",
"673 528 CURVE SMOOTH",
"639 297 LINE SMOOTH",
"633 257 OFFCURVE",
"594 -7 OFFCURVE",
"594 -7 CURVE",
"591 -34 OFFCURVE",
"505 -143 OFFCURVE",
"458 -200 CURVE",
"428 -178 LINE",
"428 -178 OFFCURVE",
"514 -34 OFFCURVE",
"531 4 CURVE",
"236 556 LINE",
"179 167 LINE SMOOTH",
"173 125 OFFCURVE",
"171 75 OFFCURVE",
"171 61 CURVE",
"248 54 LINE",
"233 -5 LINE",
"233 -5 OFFCURVE",
"192 0 OFFCURVE",
"114 0 CURVE SMOOTH",
"95 0 OFFCURVE",
"9 -5 OFFCURVE",
"9 -5 CURVE",
"12 45 LINE",
"90 61 LINE",
"94 74 OFFCURVE",
"108 120 OFFCURVE",
"110 137 CURVE SMOOTH",
"173 568 LINE SMOOTH",
"175 584 OFFCURVE",
"175 629 OFFCURVE",
"175 644 CURVE",
"100 656 LINE",
"113 710 LINE",
"113 710 OFFCURVE",
"205 705 OFFCURVE",
"224 706 CURVE",
"267 706 LINE",
"283 685 LINE",
"283 685 OFFCURVE",
"344 552 OFFCURVE",
"354 530 CURVE SMOOTH",
"555 163 LINE",
"612 558 LINE SMOOTH",
"615 574 OFFCURVE",
"617 623 OFFCURVE",
"617 641 CURVE",
"540 647 LINE",
"555 707 LINE",
"634 705 LINE SMOOTH",
"711 705 OFFCURVE",
"787 710 OFFCURVE",
"787 710 CURVE"
);
}
);
};
components = (
{
name = N;
transform = "{1, 0, 0, 1, -2, 0}";
}
);
layerId = "08C09966-8326-41C9-AE3D-74AAC6FC1D13";
paths = (
{
closed = 1;
nodes = (
"596 0 LINE",
"589 -39 OFFCURVE",
"505 -143 OFFCURVE",
"458 -200 CURVE",
"428 -178 LINE",
"428 -178 OFFCURVE",
"514 -33 OFFCURVE",
"531 5 CURVE"
);
}
);
width = 737;
},
{
background = {
paths = (
{
closed = 1;
nodes = (
"816 629 LINE",
"751 623 LINE",
"747 611 OFFCURVE",
"733 562 OFFCURVE",
"730 542 CURVE SMOOTH",
"679 193 LINE SMOOTH",
"672 143 OFFCURVE",
"651 0 OFFCURVE",
"651 0 CURVE",
"650 -31 OFFCURVE",
"564 -115 OFFCURVE",
"469 -200 CURVE",
"421 -169 LINE",
"421 -169 OFFCURVE",
"513 -19 OFFCURVE",
"520 0 CURVE",
"271 450 LINE",
"233 193 LINE SMOOTH",
"226 143 OFFCURVE",
"225 87 OFFCURVE",
"224 77 CURVE",
"286 71 LINE",
"271 -5 LINE",
"271 -5 OFFCURVE",
"220 0 OFFCURVE",
"110 0 CURVE SMOOTH",
"65 0 OFFCURVE",
"12 -5 OFFCURVE",
"12 -5 CURVE",
"18 65 LINE",
"84 77 LINE",
"88 88 OFFCURVE",
"102 143 OFFCURVE",
"105 163 CURVE SMOOTH",
"156 512 LINE SMOOTH",
"163 562 OFFCURVE",
"164 612 OFFCURVE",
"164 623 CURVE",
"103 635 LINE",
"118 710 LINE",
"118 710 OFFCURVE",
"169 705 OFFCURVE",
"214 705 CURVE",
"313 705 LINE",
"329 685 LINE",
"329 685 OFFCURVE",
"382 559 OFFCURVE",
"392 537 CURVE SMOOTH",
"562 230 LINE",
"603 512 LINE SMOOTH",
"608 549 OFFCURVE",
"610 607 OFFCURVE",
"610 623 CURVE",
"549 635 LINE",
"565 710 LINE",
"661 705 LINE SMOOTH",
"739 705 OFFCURVE",
"823 710 OFFCURVE",
"823 710 CURVE"
);
}
);
};
components = (
{
name = N;
}
);
layerId = "B953D09C-6DD0-450A-A78C-8C2188DD4016";
paths = (
{
closed = 1;
nodes = (
"654 0 LINE",
"651 -31 OFFCURVE",
"564 -115 OFFCURVE",
"469 -200 CURVE",
"421 -169 LINE",
"421 -169 OFFCURVE",
"515 -19 OFFCURVE",
"517 0 CURVE"
);
}
);
width = 793;
}
);
leftKerningGroup = H;
unicode = 014A;
},
{
color = 1;
glyphname = Eth;
lastChange = "2018-05-16 11:35:00 +0000";
layers = (
{
background = {
paths = (
{
closed = 1;
nodes = (
"42 656 LINE",
"119 644 LINE",
"121 631 OFFCURVE",
"128 585 OFFCURVE",
"128 568 CURVE SMOOTH",
"128 380 LINE",
"40 380 LINE",
"40 337 LINE",
"128 337 LINE",
"128 137 LINE SMOOTH",
"128 120 OFFCURVE",
"121 74 OFFCURVE",
"119 61 CURVE",
"40 45 LINE",
"45 -5 LINE",
"45 -5 OFFCURVE",
"142 0 OFFCURVE",
"163 0 CURVE SMOOTH",
"223 0 OFFCURVE",
"292 -6 OFFCURVE",
"332 -6 CURVE SMOOTH",
"548 -6 OFFCURVE",
"677 139 OFFCURVE",
"677 352 CURVE SMOOTH",
"677 575 OFFCURVE",
"555 715 OFFCURVE",
"332 715 CURVE SMOOTH",
"266 715 OFFCURVE",
"209 707 OFFCURVE",
"145 705 CURVE",
"111 707 OFFCURVE",
"47 710 OFFCURVE",
"47 710 CURVE"
);
},
{
closed = 1;
nodes = (
"219 337 LINE",
"357 337 LINE",
"362 380 LINE",
"219 380 LINE",
"219 538 LINE SMOOTH",
"219 578 OFFCURVE",
"224 631 OFFCURVE",
"226 650 CURVE",
"251 653 OFFCURVE",
"287 655 OFFCURVE",
"333 655 CURVE SMOOTH",
"500 655 OFFCURVE",
"578 519 OFFCURVE",
"578 352 CURVE SMOOTH",
"578 187 OFFCURVE",
"500 53 OFFCURVE",
"333 53 CURVE SMOOTH",
"289 53 OFFCURVE",
"252 55 OFFCURVE",
"226 57 CURVE",
"225 61 OFFCURVE",
"219 119 OFFCURVE",
"219 167 CURVE SMOOTH"
);
}
);
};
components = (
{
name = D;
transform = "{1, 0, 0, 1, 2, 0}";
}
);
layerId = UUID0;
paths = (
{
closed = 1;
nodes = (
"357 337 LINE",
"362 380 LINE",
"40 380 LINE",
"40 337 LINE"
);
}
);
width = 726;
},
{
background = {
paths = (
{
closed = 1;
nodes = (
"42 635 LINE",
"107 623 LINE",
"107 623 OFFCURVE",
"116 562 OFFCURVE",
"116 512 CURVE SMOOTH",
"116 395 LINE",
"47 395 LINE",
"47 322 LINE",
"116 322 LINE",
"116 163 LINE SMOOTH",
"116 143 OFFCURVE",
"107 77 OFFCURVE",
"107 77 CURVE",
"41 65 LINE",
"46 -5 LINE",
"46 -5 OFFCURVE",
"99 0 OFFCURVE",
"146 0 CURVE SMOOTH",
"206 0 OFFCURVE",
"293 -6 OFFCURVE",
"356 -6 CURVE SMOOTH",
"588 -6 OFFCURVE",
"708 141 OFFCURVE",
"708 352 CURVE SMOOTH",
"708 567 OFFCURVE",
"588 715 OFFCURVE",
"356 715 CURVE SMOOTH",
"307 715 OFFCURVE",
"195 705 OFFCURVE",
"147 705 CURVE",
"100 705 OFFCURVE",
"47 710 OFFCURVE",
"47 710 CURVE"
);
},
{
closed = 1;
nodes = (
"271 322 LINE",
"364 322 LINE",
"369 395 LINE",
"271 395 LINE",
"271 542 LINE SMOOTH",
"271 558 OFFCURVE",
"274 607 OFFCURVE",
"275 624 CURVE",
"298 628 OFFCURVE",
"322 632 OFFCURVE",
"342 632 CURVE SMOOTH",
"489 632 OFFCURVE",
"541 506 OFFCURVE",
"541 354 CURVE SMOOTH",
"541 199 OFFCURVE",
"490 77 OFFCURVE",
"340 77 CURVE SMOOTH",
"313 77 OFFCURVE",
"286 79 OFFCURVE",
"275 80 CURVE",
"274 92 OFFCURVE",
"271 149 OFFCURVE",
"271 193 CURVE SMOOTH"
);
}
);
};
components = (
{
name = D;
transform = "{1, 0, 0, 1, -1, 0}";
}
);
layerId = "16643525-C5DD-48EC-8E99-463BF28F5E85";
paths = (
{
closed = 1;
nodes = (
"364 322 LINE",
"369 395 LINE",
"47 395 LINE",
"47 322 LINE"
);
}
);
width = 730;
},
{
background = {
paths = (
{
closed = 1;
nodes = (
"104 656 LINE",
"176 644 LINE",
"176 631 OFFCURVE",
"176 585 OFFCURVE",
"174 568 CURVE SMOOTH",
"146 380 LINE",
"61 380 LINE",
"55 337 LINE",
"140 337 LINE",
"111 137 LINE SMOOTH",
"109 120 OFFCURVE",
"95 74 OFFCURVE",
"91 61 CURVE",
"13 45 LINE",
"10 -5 LINE",
"10 -5 OFFCURVE",
"105 0 OFFCURVE",
"125 0 CURVE SMOOTH",
"183 0 OFFCURVE",
"249 -6 OFFCURVE",
"288 -6 CURVE SMOOTH",
"524 -6 OFFCURVE",
"681 169 OFFCURVE",
"681 417 CURVE SMOOTH",
"681 600 OFFCURVE",
"582 715 OFFCURVE",
"393 715 CURVE SMOOTH",
"329 715 OFFCURVE",
"273 707 OFFCURVE",
"211 705 CURVE",
"178 707 OFFCURVE",
"117 710 OFFCURVE",
"117 710 CURVE"
);
},
{
closed = 1;
nodes = (
"228 337 LINE",
"362 337 LINE",
"373 380 LINE",
"234 380 LINE",
"257 538 LINE SMOOTH",
"263 578 OFFCURVE",
"276 631 OFFCURVE",
"281 650 CURVE",
"305 653 OFFCURVE",
"341 655 OFFCURVE",
"386 655 CURVE SMOOTH",
"524 655 OFFCURVE",
"585 547 OFFCURVE",
"585 411 CURVE SMOOTH",
"585 224 OFFCURVE",
"487 53 OFFCURVE",
"298 53 CURVE SMOOTH",
"255 53 OFFCURVE",
"219 55 OFFCURVE",
"194 57 CURVE",
"194 61 OFFCURVE",
"196 119 OFFCURVE",
"203 167 CURVE SMOOTH"
);
}
);
};
components = (
{
name = D;
}
);
layerId = "08C09966-8326-41C9-AE3D-74AAC6FC1D13";
paths = (
{
closed = 1;
nodes = (
"61 380 LINE",
"55 337 LINE",
"362 337 LINE",
"373 380 LINE"
);
}
);
width = 700;
},
{
components = (
{
name = D;
}
);
layerId = "B953D09C-6DD0-450A-A78C-8C2188DD4016";
paths = (
{
closed = 1;
nodes = (
"53 322 LINE",
"359 322 LINE",
"375 395 LINE",
"63 395 LINE"
);
}
);
width = 718;
}
);
unicode = 00D0;
},
{
color = 0;
glyphname = F;
lastChange = "2018-05-16 11:34:52 +0000";
layers = (
{
background = {
paths = (
{
closed = 1;
nodes = (
"30 656 LINE",
"107 644 LINE",
"109 631 OFFCURVE",
"116 585 OFFCURVE",
"116 568 CURVE SMOOTH",
"116 137 LINE SMOOTH",
"116 120 OFFCURVE",
"109 74 OFFCURVE",
"107 61 CURVE",
"28 45 LINE",
"33 -5 LINE",
"33 -5 OFFCURVE",
"143 0 OFFCURVE",
"168 0 CURVE SMOOTH",
"248 0 OFFCURVE",
"307 0 OFFCURVE",
"307 0 CURVE",
"314 54 LINE",
"214 61 LINE",
"212 75 OFFCURVE",
"207 125 OFFCURVE",
"207 167 CURVE SMOOTH",
"207 330 LINE",
"303 330 LINE",
"323 330 OFFCURVE",
"383 324 OFFCURVE",
"383 324 CURVE",
"392 257 LINE",
"440 263 LINE",
"440 263 OFFCURVE",
"437 322 OFFCURVE",
"437 372 CURVE SMOOTH",
"437 392 OFFCURVE",
"438 456 OFFCURVE",
"438 456 CURVE",
"392 461 LINE",
"383 395 LINE",
"383 395 OFFCURVE",
"343 386 OFFCURVE",
"323 386 CURVE",
"207 386 LINE",
"207 538 LINE SMOOTH",
"207 577 OFFCURVE",
"212 628 OFFCURVE",
"214 649 CURVE",
"345 649 LINE SMOOTH",
"373 649 OFFCURVE",
"404 646 OFFCURVE",
"426 644 CURVE",
"436 631 OFFCURVE",
"445 617 OFFCURVE",
"446 610 CURVE",
"450 595 OFFCURVE",
"455 572 OFFCURVE",
"457 556 CURVE",
"515 561 LINE",
"508 692 LINE",
"489 710 LINE",
"489 710 OFFCURVE",
"395 705 OFFCURVE",
"375 705 CURVE SMOOTH",
"150 705 LINE SMOOTH",
"130 705 OFFCURVE",
"35 710 OFFCURVE",
"35 710 CURVE"
);
}
);
};
layerId = UUID0;
paths = (
{
closed = 1;
nodes = (
"30 656 LINE",
"107 644 LINE",
"109 631 OFFCURVE",
"116 585 OFFCURVE",
"116 568 CURVE SMOOTH",
"116 137 LINE SMOOTH",
"116 120 OFFCURVE",
"109 74 OFFCURVE",
"107 61 CURVE",
"28 45 LINE",
"33 -5 LINE",
"33 -5 OFFCURVE",
"143 0 OFFCURVE",
"168 0 CURVE SMOOTH",
"248 0 OFFCURVE",
"307 0 OFFCURVE",
"307 0 CURVE",
"314 54 LINE",
"214 61 LINE",
"212 75 OFFCURVE",
"207 125 OFFCURVE",
"207 167 CURVE",
"207 538 LINE",
"207 577 OFFCURVE",
"212 628 OFFCURVE",
"214 649 CURVE",
"345 649 LINE SMOOTH",
"373 649 OFFCURVE",
"404 646 OFFCURVE",
"426 644 CURVE",
"436 631 OFFCURVE",
"445 617 OFFCURVE",
"446 610 CURVE",
"450 595 OFFCURVE",
"455 572 OFFCURVE",
"457 556 CURVE",
"515 561 LINE",
"508 692 LINE",
"489 710 LINE",
"489 710 OFFCURVE",
"395 705 OFFCURVE",
"375 705 CURVE SMOOTH",
"150 705 LINE SMOOTH",
"130 705 OFFCURVE",
"35 710 OFFCURVE",
"35 710 CURVE"
);
},
{
closed = 1;
nodes = (
"197 330 LINE",
"303 330 LINE SMOOTH",
"323 330 OFFCURVE",
"374 325 OFFCURVE",
"383 324 CURVE",
"392 257 LINE",
"440 263 LINE",
"440 263 OFFCURVE",
"437 322 OFFCURVE",
"437 372 CURVE SMOOTH",
"437 392 OFFCURVE",
"438 456 OFFCURVE",
"438 456 CURVE",
"392 461 LINE",
"383 392 LINE",
"378 391 OFFCURVE",
"343 386 OFFCURVE",
"323 386 CURVE SMOOTH",
"197 386 LINE"
);
}
);
width = 543;
},
{
background = {
paths = (
{
closed = 1;
nodes = (
"257 623 LINE",
"367 623 LINE SMOOTH",
"397 623 OFFCURVE",
"427 620 OFFCURVE",
"447 618 CURVE",
"451 608 OFFCURVE",
"455 599 OFFCURVE",
"456 595 CURVE",
"460 580 OFFCURVE",
"463 552 OFFCURVE",
"465 536 CURVE",
"537 541 LINE",
"530 692 LINE",
"511 710 LINE",
"511 710 OFFCURVE",
"417 705 OFFCURVE",
"397 705 CURVE SMOOTH",
"149 705 LINE"
);
},
{
closed = 1;
nodes = (
"149 705 LINE",
"119 705 OFFCURVE",
"29 710 OFFCURVE",
"29 710 CURVE",
"24 635 LINE",
"89 623 LINE",
"91 607 OFFCURVE",
"98 562 OFFCURVE",
"98 542 CURVE SMOOTH",
"98 163 LINE SMOOTH",
"98 143 OFFCURVE",
"90 87 OFFCURVE",
"89 77 CURVE",
"23 65 LINE",
"28 -5 LINE",
"28 -5 OFFCURVE",
"148 0 OFFCURVE",
"178 0 CURVE",
"352 0 LINE",
"357 71 LINE",
"262 77 LINE",
"260 91 OFFCURVE",
"253 153 OFFCURVE",
"253 193 CURVE SMOOTH",
"253 512 LINE SMOOTH",
"253 552 OFFCURVE",
"257 618 OFFCURVE",
"260 643 CURVE"
);
},
{
closed = 1;
nodes = (
"315 305 LINE SMOOTH",
"335 305 OFFCURVE",
"369 302 OFFCURVE",
"379 301 CURVE",
"388 239 LINE",
"452 245 LINE",
"452 245 OFFCURVE",
"449 322 OFFCURVE",
"449 372 CURVE SMOOTH",
"449 392 OFFCURVE",
"450 455 OFFCURVE",
"450 455 CURVE",
"388 460 LINE",
"379 393 LINE",
"371 391 OFFCURVE",
"345 387 OFFCURVE",
"335 387 CURVE SMOOTH",
"243 387 LINE",
"243 305 LINE"
);
}
);
};
layerId = "16643525-C5DD-48EC-8E99-463BF28F5E85";
paths = (
{
closed = 1;
nodes = (
"257 623 LINE",
"367 623 LINE SMOOTH",
"397 623 OFFCURVE",
"427 620 OFFCURVE",
"447 618 CURVE",
"451 608 OFFCURVE",
"455 599 OFFCURVE",
"456 595 CURVE",
"460 580 OFFCURVE",
"463 552 OFFCURVE",
"465 536 CURVE",
"537 541 LINE",
"530 692 LINE",
"511 710 LINE",
"511 710 OFFCURVE",
"417 705 OFFCURVE",
"397 705 CURVE SMOOTH",
"149 705 LINE"
);
},
{
closed = 1;
nodes = (
"149 705 LINE",
"119 705 OFFCURVE",
"29 710 OFFCURVE",
"29 710 CURVE",
"24 635 LINE",
"89 623 LINE",
"91 607 OFFCURVE",
"98 562 OFFCURVE",
"98 542 CURVE SMOOTH",
"98 163 LINE SMOOTH",
"98 143 OFFCURVE",
"90 87 OFFCURVE",
"89 77 CURVE",
"23 65 LINE",
"28 -5 LINE",
"28 -5 OFFCURVE",
"148 0 OFFCURVE",
"178 0 CURVE",
"352 0 LINE",
"357 71 LINE",
"262 77 LINE",
"260 91 OFFCURVE",
"253 153 OFFCURVE",
"253 193 CURVE SMOOTH",
"253 512 LINE SMOOTH",
"253 552 OFFCURVE",
"257 618 OFFCURVE",
"260 643 CURVE"
);
},
{
closed = 1;
nodes = (
"315 305 LINE SMOOTH",
"335 305 OFFCURVE",
"369 302 OFFCURVE",
"379 301 CURVE",
"388 239 LINE",
"452 245 LINE",
"452 245 OFFCURVE",
"449 322 OFFCURVE",
"449 372 CURVE SMOOTH",
"449 392 OFFCURVE",
"450 455 OFFCURVE",
"450 455 CURVE",
"388 460 LINE",
"379 391 LINE",
"366 389 OFFCURVE",
"345 387 OFFCURVE",
"335 387 CURVE SMOOTH",
"243 387 LINE",
"243 305 LINE"
);
}
);
width = 553;
},
{
background = {
paths = (
{
closed = 1;
nodes = (
"397 649 LINE SMOOTH",
"424 649 OFFCURVE",
"454 646 OFFCURVE",
"475 644 CURVE",
"483 631 OFFCURVE",
"488 617 OFFCURVE",
"489 610 CURVE SMOOTH",
"491 595 OFFCURVE",
"492 572 OFFCURVE",
"492 556 CURVE",
"549 561 LINE",
"562 692 LINE",
"546 710 LINE",
"546 710 OFFCURVE",
"454 705 OFFCURVE",
"434 705 CURVE SMOOTH",
"220 705 LINE",
"271 649 LINE"
);
},
{
closed = 1;
nodes = (
"220 705 LINE",
"200 705 OFFCURVE",
"105 710 OFFCURVE",
"105 710 CURVE",
"92 656 LINE",
"165 644 LINE",
"165 631 OFFCURVE",
"164 583 OFFCURVE",
"162 568 CURVE SMOOTH",
"99 137 LINE SMOOTH",
"97 122 OFFCURVE",
"83 74 OFFCURVE",
"80 61 CURVE",
"1 45 LINE",
"-1 -5 LINE",
"-1 -5 OFFCURVE",
"109 0 OFFCURVE",
"134 0 CURVE SMOOTH",
"213 0 OFFCURVE",
"267 0 OFFCURVE",
"267 0 CURVE",
"281 54 LINE",
"186 61 LINE",
"186 75 OFFCURVE",
"191 137 OFFCURVE",
"195 167 CURVE SMOOTH",
"249 538 LINE SMOOTH",
"253 568 OFFCURVE",
"267 632 OFFCURVE",
"271 649 CURVE"
);
},
{
closed = 1;
nodes = (
"207 329 LINE",
"308 329 LINE SMOOTH",
"327 329 OFFCURVE",
"384 323 OFFCURVE",
"384 323 CURVE",
"381 256 LINE",
"429 262 LINE",
"429 262 OFFCURVE",
"436 321 OFFCURVE",
"444 371 CURVE SMOOTH",
"447 391 OFFCURVE",
"459 455 OFFCURVE",
"459 455 CURVE",
"414 460 LINE",
"394 394 LINE",
"394 394 OFFCURVE",
"355 385 OFFCURVE",
"335 385 CURVE SMOOTH",
"217 385 LINE"
);
}
);
};
guideLines = (
{
position = "{81, 372}";
}
);
layerId = "08C09966-8326-41C9-AE3D-74AAC6FC1D13";
paths = (
{
closed = 1;
nodes = (
"397 649 LINE SMOOTH",
"424 649 OFFCURVE",
"454 646 OFFCURVE",
"475 644 CURVE",
"483 631 OFFCURVE",
"488 617 OFFCURVE",
"489 610 CURVE SMOOTH",
"491 595 OFFCURVE",
"492 572 OFFCURVE",
"492 556 CURVE",
"549 561 LINE",
"562 692 LINE",
"546 710 LINE",
"546 710 OFFCURVE",
"454 705 OFFCURVE",
"434 705 CURVE SMOOTH",
"220 705 LINE",
"271 649 LINE"
);
},
{
closed = 1;
nodes = (
"220 705 LINE",
"200 705 OFFCURVE",
"105 710 OFFCURVE",
"105 710 CURVE",
"92 656 LINE",
"165 644 LINE",
"165 631 OFFCURVE",
"164 583 OFFCURVE",
"162 568 CURVE SMOOTH",
"99 137 LINE SMOOTH",
"97 122 OFFCURVE",
"83 74 OFFCURVE",
"80 61 CURVE",
"1 45 LINE",
"-1 -5 LINE",
"-1 -5 OFFCURVE",
"109 0 OFFCURVE",
"134 0 CURVE SMOOTH",
"213 0 OFFCURVE",
"267 0 OFFCURVE",
"267 0 CURVE",
"281 54 LINE",
"186 61 LINE",
"186 75 OFFCURVE",
"191 137 OFFCURVE",
"195 167 CURVE SMOOTH",
"249 538 LINE SMOOTH",
"253 568 OFFCURVE",
"267 632 OFFCURVE",
"271 649 CURVE"
);
},
{
closed = 1;
nodes = (
"207 329 LINE",
"308 329 LINE SMOOTH",
"328 329 OFFCURVE",
"373 324 OFFCURVE",
"384 323 CURVE",
"381 256 LINE",
"429 262 LINE",
"429 262 OFFCURVE",
"436 321 OFFCURVE",
"444 371 CURVE SMOOTH",
"447 391 OFFCURVE",
"459 455 OFFCURVE",
"459 455 CURVE",
"414 460 LINE",
"393 391 LINE",
"379 389 OFFCURVE",
"345 385 OFFCURVE",
"335 385 CURVE SMOOTH",
"217 385 LINE"
);
}
);
width = 533;
},
{
background = {
paths = (
{
closed = 1;
nodes = (
"418 623 LINE SMOOTH",
"448 623 OFFCURVE",
"476 620 OFFCURVE",
"495 618 CURVE",
"497 608 OFFCURVE",
"499 599 OFFCURVE",
"500 595 CURVE",
"501 580 OFFCURVE",
"500 552 OFFCURVE",
"500 536 CURVE",
"571 541 LINE",
"587 692 LINE",
"571 710 LINE",
"571 710 OFFCURVE",
"479 705 OFFCURVE",
"459 705 CURVE SMOOTH",
"221 705 LINE",
"213 623 LINE"
);
},
{
closed = 1;
nodes = (
"321 305 LINE SMOOTH",
"341 305 OFFCURVE",
"366 303 OFFCURVE",
"381 301 CURVE",
"381 239 LINE",
"445 245 LINE",
"445 245 OFFCURVE",
"453 322 OFFCURVE",
"461 372 CURVE SMOOTH",
"463 392 OFFCURVE",
"474 455 OFFCURVE",
"474 455 CURVE",
"413 460 LINE",
"394 393 LINE",
"384 391 OFFCURVE",
"362 387 OFFCURVE",
"352 387 CURVE SMOOTH",
"237 387 LINE",
"226 305 LINE"
);
},
{
closed = 1;
nodes = (
"297 542 LINE SMOOTH",
"300 562 OFFCURVE",
"314 618 OFFCURVE",
"318 633 CURVE",
"221 705 LINE",
"191 705 OFFCURVE",
"101 710 OFFCURVE",
"101 710 CURVE",
"85 635 LINE",
"146 623 LINE",
"146 608 OFFCURVE",
"145 562 OFFCURVE",
"138 512 CURVE SMOOTH",
"87 163 LINE SMOOTH",
"84 143 OFFCURVE",
"71 92 OFFCURVE",
"66 77 CURVE",
"1 65 LINE",
"-4 -5 LINE",
"-4 -5 OFFCURVE",
"116 0 OFFCURVE",
"146 0 CURVE",
"284 0 LINE",
"299 70 LINE",
"238 77 LINE",
"238 92 OFFCURVE",
"239 143 OFFCURVE",
"247 193 CURVE SMOOTH"
);
}
);
};
layerId = "B953D09C-6DD0-450A-A78C-8C2188DD4016";
paths = (
{
closed = 1;
nodes = (
"418 623 LINE SMOOTH",
"448 623 OFFCURVE",
"476 620 OFFCURVE",
"495 618 CURVE",
"497 608 OFFCURVE",
"499 599 OFFCURVE",
"500 595 CURVE",
"501 580 OFFCURVE",
"500 552 OFFCURVE",
"500 536 CURVE",
"571 541 LINE",
"587 692 LINE",
"571 710 LINE",
"571 710 OFFCURVE",
"479 705 OFFCURVE",
"459 705 CURVE SMOOTH",
"221 705 LINE",
"213 623 LINE"
);
},
{
closed = 1;
nodes = (
"297 542 LINE SMOOTH",
"300 562 OFFCURVE",
"314 618 OFFCURVE",
"318 633 CURVE",
"221 705 LINE",
"191 705 OFFCURVE",
"101 710 OFFCURVE",
"101 710 CURVE",
"85 635 LINE",
"146 623 LINE",
"146 608 OFFCURVE",
"145 562 OFFCURVE",
"138 512 CURVE SMOOTH",
"87 163 LINE SMOOTH",
"84 143 OFFCURVE",
"71 92 OFFCURVE",
"66 77 CURVE",
"1 65 LINE",
"-4 -5 LINE",
"-4 -5 OFFCURVE",
"116 0 OFFCURVE",
"146 0 CURVE",
"284 0 LINE",
"299 70 LINE",
"238 77 LINE",
"238 92 OFFCURVE",
"239 143 OFFCURVE",
"247 193 CURVE SMOOTH"
);
},
{
closed = 1;
nodes = (
"321 305 LINE SMOOTH",
"341 305 OFFCURVE",
"366 301 OFFCURVE",
"381 299 CURVE",
"381 239 LINE",
"445 245 LINE",
"445 245 OFFCURVE",
"453 322 OFFCURVE",
"461 372 CURVE SMOOTH",
"464 392 OFFCURVE",
"474 455 OFFCURVE",
"474 455 CURVE",
"413 460 LINE",
"394 393 LINE",
"384 391 OFFCURVE",
"362 387 OFFCURVE",
"352 387 CURVE SMOOTH",
"237 387 LINE",
"226 305 LINE"
);
}
);
width = 548;
}
);
leftKerningGroup = H;
rightKerningGroup = F;
unicode = 0046;
},
{
color = 0;
glyphname = G;
lastChange = "2018-05-16 11:34:52 +0000";
layers = (
{
anchors = (
{
name = bottom;
position = "{401, 0}";
},
{
name = top;
position = "{399, 720}";
}
);
layerId = UUID0;
paths = (
{
closed = 1;
nodes = (
"530 619 OFFCURVE",
"536 598 OFFCURVE",
"536 589 CURVE SMOOTH",
"536 542 LINE",
"595 538 LINE",
"605 686 LINE",
"538 702 OFFCURVE",
"472 720 OFFCURVE",
"385 720 CURVE SMOOTH",
"164 720 OFFCURVE",
"51 570 OFFCURVE",
"51 352 CURVE SMOOTH",
"51 134 OFFCURVE",
"164 -15 OFFCURVE",
"385 -15 CURVE SMOOTH",
"471 -15 OFFCURVE",
"547 3 OFFCURVE",
"614 19 CURVE",
"614 166 LINE SMOOTH",
"614 216 OFFCURVE",
"623 319 OFFCURVE",
"623 319 CURVE",
"605 336 LINE",
"605 336 OFFCURVE",
"554 333 OFFCURVE",
"534 333 CURVE",
"423 333 LINE",
"418 275 LINE",
"524 267 LINE",
"524 267 OFFCURVE",
"534 216 OFFCURVE",
"534 196 CURVE SMOOTH",
"534 128 LINE SMOOTH",
"534 117 OFFCURVE",
"528 89 OFFCURVE",
"522 63 CURVE",
"477 51 OFFCURVE",
"422 43 OFFCURVE",
"382 43 CURVE SMOOTH",
"227 43 OFFCURVE",
"152 180 OFFCURVE",
"152 353 CURVE SMOOTH",
"152 526 OFFCURVE",
"227 662 OFFCURVE",
"382 662 CURVE SMOOTH",
"425 662 OFFCURVE",
"480 652 OFFCURVE",
"524 639 CURVE"
);
}
);
width = 688;
},
{
anchors = (
{
name = bottom;
position = "{399, 0}";
},
{
name = top;
position = "{396, 720}";
}
);
background = {
paths = (
{
closed = 1;
nodes = (
"527 600 OFFCURVE",
"534 578 OFFCURVE",
"534 572 CURVE SMOOTH",
"537 525 LINE",
"614 521 LINE",
"626 686 LINE",
"557 704 OFFCURVE",
"488 720 OFFCURVE",
"397 720 CURVE SMOOTH",
"154 720 OFFCURVE",
"30 570 OFFCURVE",
"30 352 CURVE SMOOTH",
"30 134 OFFCURVE",
"154 -15 OFFCURVE",
"397 -15 CURVE SMOOTH",
"487 -15 OFFCURVE",
"566 3 OFFCURVE",
"635 19 CURVE",
"635 196 LINE SMOOTH",
"635 246 OFFCURVE",
"644 341 OFFCURVE",
"644 341 CURVE",
"616 366 LINE",
"616 366 OFFCURVE",
"534 363 OFFCURVE",
"501 363 CURVE",
"390 363 LINE",
"385 265 LINE",
"491 257 LINE",
"491 257 OFFCURVE",
"501 216 OFFCURVE",
"501 196 CURVE SMOOTH",
"501 128 LINE SMOOTH",
"501 120 OFFCURVE",
"498 104 OFFCURVE",
"494 86 CURVE",
"461 81 OFFCURVE",
"430 78 OFFCURVE",
"396 78 CURVE SMOOTH",
"262 78 OFFCURVE",
"210 200 OFFCURVE",
"210 353 CURVE SMOOTH",
"210 506 OFFCURVE",
"263 627 OFFCURVE",
"397 627 CURVE SMOOTH",
"439 627 OFFCURVE",
"478 622 OFFCURVE",
"522 613 CURVE"
);
}
);
};
layerId = "16643525-C5DD-48EC-8E99-463BF28F5E85";
paths = (
{
closed = 1;
nodes = (
"436 627 OFFCURVE",
"480 622 OFFCURVE",
"521 613 CURVE",
"526 600 OFFCURVE",
"533 578 OFFCURVE",
"533 572 CURVE SMOOTH",
"536 511 LINE",
"613 507 LINE",
"625 686 LINE",
"560 704 OFFCURVE",
"483 720 OFFCURVE",
"397 720 CURVE SMOOTH",
"154 720 OFFCURVE",
"30 570 OFFCURVE",
"30 352 CURVE SMOOTH",
"30 134 OFFCURVE",
"154 -15 OFFCURVE",
"397 -15 CURVE SMOOTH",
"487 -15 OFFCURVE",
"566 3 OFFCURVE",
"635 19 CURVE",
"635 196 LINE SMOOTH",
"635 246 OFFCURVE",
"644 341 OFFCURVE",
"644 341 CURVE",
"616 366 LINE",
"616 366 OFFCURVE",
"534 363 OFFCURVE",
"501 363 CURVE",
"390 363 LINE",
"385 265 LINE",
"491 257 LINE",
"491 257 OFFCURVE",
"501 216 OFFCURVE",
"501 196 CURVE SMOOTH",
"501 128 LINE SMOOTH",
"501 120 OFFCURVE",
"498 104 OFFCURVE",
"494 86 CURVE",
"461 81 OFFCURVE",
"430 78 OFFCURVE",
"396 78 CURVE SMOOTH",
"262 78 OFFCURVE",
"210 200 OFFCURVE",
"210 353 CURVE SMOOTH",
"210 506 OFFCURVE",
"263 627 OFFCURVE",
"397 627 CURVE SMOOTH"
);
}
);
width = 683;
},
{
anchors = (
{
name = bottom;
position = "{368, 0}";
},
{
name = top;
position = "{448, 720}";
}
);
background = {
paths = (
{
closed = 1;
nodes = (
"197 720 OFFCURVE",
"61 531 OFFCURVE",
"61 284 CURVE SMOOTH",
"61 106 OFFCURVE",
"162 -15 OFFCURVE",
"349 -15 CURVE SMOOTH",
"433 -15 OFFCURVE",
"499 3 OFFCURVE",
"567 19 CURVE",
"588 166 LINE SMOOTH",
"595 216 OFFCURVE",
"619 319 OFFCURVE",
"619 319 CURVE",
"604 336 LINE",
"604 336 OFFCURVE",
"553 333 OFFCURVE",
"533 333 CURVE",
"425 333 LINE",
"412 275 LINE",
"513 267 LINE",
"513 267 OFFCURVE",
"516 216 OFFCURVE",
"513 196 CURVE SMOOTH",
"503 128 LINE SMOOTH",
"501 117 OFFCURVE",
"491 89 OFFCURVE",
"482 63 CURVE",
"437 51 OFFCURVE",
"393 43 OFFCURVE",
"355 43 CURVE SMOOTH",
"229 43 OFFCURVE",
"163 149 OFFCURVE",
"163 287 CURVE SMOOTH",
"163 484 OFFCURVE",
"258 662 OFFCURVE",
"435 662 CURVE SMOOTH",
"477 662 OFFCURVE",
"528 651 OFFCURVE",
"569 638 CURVE",
"572 618 OFFCURVE",
"574 597 OFFCURVE",
"573 589 CURVE SMOOTH",
"567 544 LINE",
"623 538 LINE",
"655 686 LINE",
"593 702 OFFCURVE",
"531 720 OFFCURVE",
"446 720 CURVE SMOOTH"
);
}
);
};
layerId = "08C09966-8326-41C9-AE3D-74AAC6FC1D13";
paths = (
{
closed = 1;
nodes = (
"197 720 OFFCURVE",
"61 531 OFFCURVE",
"61 284 CURVE SMOOTH",
"61 106 OFFCURVE",
"162 -15 OFFCURVE",
"349 -15 CURVE SMOOTH",
"433 -15 OFFCURVE",
"499 3 OFFCURVE",
"567 19 CURVE",
"588 166 LINE SMOOTH",
"592 196 OFFCURVE",
"619 319 OFFCURVE",
"619 319 CURVE",
"604 336 LINE",
"604 336 OFFCURVE",
"553 333 OFFCURVE",
"533 333 CURVE",
"425 333 LINE",
"412 275 LINE",
"513 267 LINE",
"513 267 OFFCURVE",
"515 211 OFFCURVE",
"513 196 CURVE SMOOTH",
"492 65 LINE",
"449 53 OFFCURVE",
"395 43 OFFCURVE",
"355 43 CURVE SMOOTH",
"229 43 OFFCURVE",
"163 149 OFFCURVE",
"163 287 CURVE SMOOTH",
"163 484 OFFCURVE",
"258 662 OFFCURVE",
"435 662 CURVE SMOOTH",
"477 662 OFFCURVE",
"528 651 OFFCURVE",
"569 638 CURVE",
"572 618 OFFCURVE",
"574 597 OFFCURVE",
"573 589 CURVE SMOOTH",
"567 544 LINE",
"623 538 LINE",
"655 686 LINE",
"593 702 OFFCURVE",
"531 720 OFFCURVE",
"446 720 CURVE SMOOTH"
);
}
);
width = 674;
},
{
anchors = (
{
name = bottom;
position = "{374, 0}";
},
{
name = top;
position = "{469, 720}";
}
);
background = {
paths = (
{
closed = 1;
nodes = (
"193 720 OFFCURVE",
"49 535 OFFCURVE",
"49 290 CURVE SMOOTH",
"49 108 OFFCURVE",
"154 -15 OFFCURVE",
"362 -15 CURVE SMOOTH",
"450 -15 OFFCURVE",
"527 1 OFFCURVE",
"596 19 CURVE",
"622 196 LINE SMOOTH",
"626 226 OFFCURVE",
"651 341 OFFCURVE",
"651 341 CURVE",
"627 366 LINE",
"627 366 OFFCURVE",
"545 363 OFFCURVE",
"512 363 CURVE",
"404 363 LINE",
"385 265 LINE",
"487 257 LINE",
"487 257 OFFCURVE",
"491 216 OFFCURVE",
"488 196 CURVE SMOOTH",
"472 87 LINE",
"440 82 OFFCURVE",
"405 78 OFFCURVE",
"372 78 CURVE SMOOTH",
"268 78 OFFCURVE",
"228 168 OFFCURVE",
"228 283 CURVE SMOOTH",
"228 452 OFFCURVE",
"291 627 OFFCURVE",
"453 627 CURVE SMOOTH",
"494 627 OFFCURVE",
"527 622 OFFCURVE",
"568 613 CURVE",
"571 600 OFFCURVE",
"575 578 OFFCURVE",
"574 572 CURVE SMOOTH",
"570 525 LINE",
"647 521 LINE",
"684 686 LINE",
"620 702 OFFCURVE",
"552 720 OFFCURVE",
"463 720 CURVE SMOOTH"
);
}
);
};
layerId = "B953D09C-6DD0-450A-A78C-8C2188DD4016";
paths = (
{
closed = 1;
nodes = (
"193 720 OFFCURVE",
"49 535 OFFCURVE",
"49 290 CURVE SMOOTH",
"49 108 OFFCURVE",
"154 -15 OFFCURVE",
"362 -15 CURVE SMOOTH",
"450 -15 OFFCURVE",
"527 1 OFFCURVE",
"596 19 CURVE",
"622 196 LINE SMOOTH",
"626 226 OFFCURVE",
"651 341 OFFCURVE",
"651 341 CURVE",
"627 366 LINE",
"627 366 OFFCURVE",
"545 363 OFFCURVE",
"512 363 CURVE",
"404 363 LINE",
"385 265 LINE",
"487 257 LINE",
"487 257 OFFCURVE",
"491 216 OFFCURVE",
"488 196 CURVE SMOOTH",
"472 87 LINE",
"440 82 OFFCURVE",
"405 78 OFFCURVE",
"372 78 CURVE SMOOTH",
"268 78 OFFCURVE",
"228 168 OFFCURVE",
"228 283 CURVE SMOOTH",
"228 452 OFFCURVE",
"291 627 OFFCURVE",
"453 627 CURVE SMOOTH",
"491 627 OFFCURVE",
"531 622 OFFCURVE",
"570 613 CURVE",
"573 600 OFFCURVE",
"577 578 OFFCURVE",
"576 572 CURVE SMOOTH",
"570 511 LINE",
"645 507 LINE",
"683 686 LINE",
"622 702 OFFCURVE",
"547 720 OFFCURVE",
"463 720 CURVE SMOOTH"
);
}
);
width = 694;
}
);
leftKerningGroup = O;
rightKerningGroup = G;
unicode = 0047;
},
{
color = 0;
glyphname = H;
lastChange = "2018-05-16 11:34:52 +0000";
layers = (
{
anchors = (
{
name = bottom;
position = "{373, 0}";
},
{
name = center;
position = "{373, 520}";
},
{
name = top;
position = "{373, 720}";
}
);
background = {
paths = (
{
closed = 1;
nodes = (
"710 710 LINE",
"710 710 OFFCURVE",
"653 705 OFFCURVE",
"573 705 CURVE SMOOTH",
"553 705 OFFCURVE",
"457 710 OFFCURVE",
"457 710 CURVE",
"452 656 LINE",
"529 644 LINE",
"531 631 OFFCURVE",
"538 585 OFFCURVE",
"538 568 CURVE SMOOTH",
"538 383 LINE",
"207 378 LINE",
"207 538 LINE SMOOTH",
"207 580 OFFCURVE",
"212 630 OFFCURVE",
"214 644 CURVE",
"292 651 LINE",
"288 710 LINE",
"288 710 OFFCURVE",
"231 705 OFFCURVE",
"151 705 CURVE SMOOTH",
"131 705 OFFCURVE",
"35 710 OFFCURVE",
"35 710 CURVE",
"30 656 LINE",
"107 644 LINE",
"109 631 OFFCURVE",
"116 585 OFFCURVE",
"116 568 CURVE SMOOTH",
"116 137 LINE SMOOTH",
"116 120 OFFCURVE",
"109 74 OFFCURVE",
"107 61 CURVE",
"28 45 LINE",
"33 -5 LINE",
"33 -5 OFFCURVE",
"131 0 OFFCURVE",
"151 0 CURVE SMOOTH",
"231 0 OFFCURVE",
"297 -5 OFFCURVE",
"297 -5 CURVE",
"304 54 LINE",
"214 61 LINE",
"212 75 OFFCURVE",
"207 125 OFFCURVE",
"207 167 CURVE SMOOTH",
"207 327 LINE",
"538 327 LINE",
"538 137 LINE SMOOTH",
"538 120 OFFCURVE",
"531 74 OFFCURVE",
"529 61 CURVE",
"450 45 LINE",
"455 -5 LINE",
"455 -5 OFFCURVE",
"553 0 OFFCURVE",
"573 0 CURVE SMOOTH",
"653 0 OFFCURVE",
"719 -5 OFFCURVE",
"719 -5 CURVE",
"726 54 LINE",
"636 61 LINE",
"634 75 OFFCURVE",
"629 125 OFFCURVE",
"629 167 CURVE SMOOTH",
"629 538 LINE SMOOTH",
"629 580 OFFCURVE",
"634 630 OFFCURVE",
"636 644 CURVE",
"714 651 LINE"
);
}
);
};
layerId = UUID0;
paths = (
{
closed = 1;
nodes = (
"543 383 LINE",
"202 378 LINE",
"202 327 LINE",
"543 327 LINE"
);
},
{
closed = 1;
nodes = (
"288 710 LINE",
"288 710 OFFCURVE",
"210 705 OFFCURVE",
"150 705 CURVE SMOOTH",
"130 705 OFFCURVE",
"35 710 OFFCURVE",
"35 710 CURVE",
"30 656 LINE",
"107 644 LINE",
"109 631 OFFCURVE",
"116 585 OFFCURVE",
"116 568 CURVE SMOOTH",
"116 137 LINE SMOOTH",
"116 120 OFFCURVE",
"109 74 OFFCURVE",
"107 61 CURVE",
"28 45 LINE",
"33 -5 LINE",
"33 -5 OFFCURVE",
"143 0 OFFCURVE",
"168 0 CURVE",
"297 0 LINE",
"304 54 LINE",
"214 61 LINE",
"212 75 OFFCURVE",
"207 125 OFFCURVE",
"207 167 CURVE SMOOTH",
"207 538 LINE SMOOTH",
"207 580 OFFCURVE",
"212 630 OFFCURVE",
"214 644 CURVE",
"292 651 LINE"
);
},
{
closed = 1;
nodes = (
"710 710 LINE",
"710 710 OFFCURVE",
"632 705 OFFCURVE",
"572 705 CURVE SMOOTH",
"552 705 OFFCURVE",
"457 710 OFFCURVE",
"457 710 CURVE",
"452 656 LINE",
"529 644 LINE",
"531 631 OFFCURVE",
"538 585 OFFCURVE",
"538 568 CURVE SMOOTH",
"538 137 LINE SMOOTH",
"538 120 OFFCURVE",
"531 74 OFFCURVE",
"529 61 CURVE",
"450 45 LINE",
"455 -5 LINE",
"455 -5 OFFCURVE",
"565 0 OFFCURVE",
"590 0 CURVE",
"719 0 LINE",
"726 54 LINE",
"636 61 LINE",
"634 75 OFFCURVE",
"629 125 OFFCURVE",
"629 167 CURVE SMOOTH",
"629 538 LINE SMOOTH",
"629 580 OFFCURVE",
"634 630 OFFCURVE",
"636 644 CURVE",
"714 651 LINE"
);
}
);
width = 749;
},
{
anchors = (
{
name = bottom;
position = "{397, 0}";
},
{
name = center;
position = "{398, 520}";
},
{
name = top;
position = "{397, 720}";
}
);
background = {
paths = (
{
closed = 1;
nodes = (
"328 710 LINE",
"328 710 OFFCURVE",
"234 705 OFFCURVE",
"154 705 CURVE SMOOTH",
"124 705 OFFCURVE",
"34 710 OFFCURVE",
"34 710 CURVE",
"29 635 LINE",
"94 623 LINE",
"96 607 OFFCURVE",
"103 562 OFFCURVE",
"103 512 CURVE SMOOTH",
"103 163 LINE SMOOTH",
"103 143 OFFCURVE",
"95 87 OFFCURVE",
"94 77 CURVE",
"28 65 LINE",
"33 -5 LINE",
"33 -5 OFFCURVE",
"153 0 OFFCURVE",
"183 0 CURVE",
"327 0 LINE",
"332 71 LINE",
"267 77 LINE",
"265 91 OFFCURVE",
"258 143 OFFCURVE",
"258 193 CURVE SMOOTH",
"258 542 LINE SMOOTH",
"258 562 OFFCURVE",
"264 608 OFFCURVE",
"267 623 CURVE",
"333 629 LINE"
);
},
{
closed = 1;
nodes = (
"760 710 LINE",
"760 710 OFFCURVE",
"666 705 OFFCURVE",
"586 705 CURVE SMOOTH",
"556 705 OFFCURVE",
"466 710 OFFCURVE",
"466 710 CURVE",
"461 635 LINE",
"526 623 LINE",
"528 607 OFFCURVE",
"535 562 OFFCURVE",
"535 512 CURVE SMOOTH",
"535 163 LINE SMOOTH",
"535 143 OFFCURVE",
"527 87 OFFCURVE",
"526 77 CURVE",
"460 65 LINE",
"465 -5 LINE",
"465 -5 OFFCURVE",
"585 0 OFFCURVE",
"615 0 CURVE",
"759 0 LINE",
"764 71 LINE",
"699 77 LINE",
"697 91 OFFCURVE",
"690 143 OFFCURVE",
"690 193 CURVE SMOOTH",
"690 542 LINE SMOOTH",
"690 562 OFFCURVE",
"696 608 OFFCURVE",
"699 623 CURVE",
"765 629 LINE"
);
}
);
};
layerId = "16643525-C5DD-48EC-8E99-463BF28F5E85";
paths = (
{
closed = 1;
nodes = (
"540 393 LINE",
"253 389 LINE",
"253 302 LINE",
"540 302 LINE"
);
},
{
closed = 1;
nodes = (
"328 710 LINE",
"328 710 OFFCURVE",
"234 705 OFFCURVE",
"154 705 CURVE SMOOTH",
"124 705 OFFCURVE",
"34 710 OFFCURVE",
"34 710 CURVE",
"29 635 LINE",
"94 623 LINE",
"96 607 OFFCURVE",
"103 562 OFFCURVE",
"103 542 CURVE SMOOTH",
"103 163 LINE SMOOTH",
"103 143 OFFCURVE",
"95 87 OFFCURVE",
"94 77 CURVE",
"28 65 LINE",
"33 -5 LINE",
"33 -5 OFFCURVE",
"153 0 OFFCURVE",
"183 0 CURVE",
"327 0 LINE",
"332 71 LINE",
"267 77 LINE",
"265 91 OFFCURVE",
"258 153 OFFCURVE",
"258 193 CURVE SMOOTH",
"258 512 LINE SMOOTH",
"258 552 OFFCURVE",
"264 608 OFFCURVE",
"267 623 CURVE",
"333 629 LINE"
);
},
{
closed = 1;
nodes = (
"760 710 LINE",
"760 710 OFFCURVE",
"666 705 OFFCURVE",
"586 705 CURVE SMOOTH",
"556 705 OFFCURVE",
"466 710 OFFCURVE",
"466 710 CURVE",
"461 635 LINE",
"526 623 LINE",
"528 607 OFFCURVE",
"535 562 OFFCURVE",
"535 542 CURVE SMOOTH",
"535 163 LINE SMOOTH",
"535 143 OFFCURVE",
"527 87 OFFCURVE",
"526 77 CURVE",
"460 65 LINE",
"465 -5 LINE",
"465 -5 OFFCURVE",
"585 0 OFFCURVE",
"615 0 CURVE",
"759 0 LINE",
"764 71 LINE",
"699 77 LINE",
"697 91 OFFCURVE",
"690 153 OFFCURVE",
"690 193 CURVE SMOOTH",
"690 512 LINE SMOOTH",
"690 552 OFFCURVE",
"696 608 OFFCURVE",
"699 623 CURVE",
"765 629 LINE"
);
}
);
width = 794;
},
{
anchors = (
{
name = bottom;
position = "{324, 0}";
},
{
name = center;
position = "{398, 520}";
},
{
name = top;
position = "{427, 720}";
}
);
background = {
paths = (
{
closed = 1;
nodes = (
"549 383 LINE",
"220 378 LINE",
"212 327 LINE",
"541 327 LINE"
);
},
{
closed = 1;
nodes = (
"352 710 LINE",
"352 710 OFFCURVE",
"280 705 OFFCURVE",
"220 705 CURVE SMOOTH",
"200 705 OFFCURVE",
"105 710 OFFCURVE",
"105 710 CURVE",
"92 656 LINE",
"165 644 LINE",
"165 631 OFFCURVE",
"165 585 OFFCURVE",
"162 568 CURVE SMOOTH",
"99 137 LINE SMOOTH",
"97 120 OFFCURVE",
"83 74 OFFCURVE",
"80 61 CURVE",
"1 45 LINE",
"-1 -5 LINE",
"-1 -5 OFFCURVE",
"109 0 OFFCURVE",
"134 0 CURVE SMOOTH",
"213 0 OFFCURVE",
"257 0 OFFCURVE",
"257 0 CURVE",
"271 54 LINE",
"186 61 LINE",
"186 75 OFFCURVE",
"189 125 OFFCURVE",
"195 167 CURVE SMOOTH",
"249 538 LINE SMOOTH",
"255 580 OFFCURVE",
"267 630 OFFCURVE",
"271 644 CURVE",
"347 651 LINE"
);
},
{
closed = 1;
nodes = (
"761 710 LINE",
"761 710 OFFCURVE",
"689 705 OFFCURVE",
"629 705 CURVE SMOOTH",
"609 705 OFFCURVE",
"514 710 OFFCURVE",
"514 710 CURVE",
"501 656 LINE",
"574 644 LINE",
"574 631 OFFCURVE",
"574 585 OFFCURVE",
"571 568 CURVE SMOOTH",
"508 137 LINE SMOOTH",
"506 120 OFFCURVE",
"492 74 OFFCURVE",
"489 61 CURVE",
"410 45 LINE",
"408 -5 LINE",
"408 -5 OFFCURVE",
"518 0 OFFCURVE",
"543 0 CURVE SMOOTH",
"622 0 OFFCURVE",
"666 0 OFFCURVE",
"666 0 CURVE",
"680 54 LINE",
"595 61 LINE",
"595 75 OFFCURVE",
"598 125 OFFCURVE",
"604 167 CURVE SMOOTH",
"658 538 LINE SMOOTH",
"664 580 OFFCURVE",
"676 630 OFFCURVE",
"680 644 CURVE",
"756 651 LINE"
);
}
);
};
layerId = "08C09966-8326-41C9-AE3D-74AAC6FC1D13";
paths = (
{
closed = 1;
nodes = (
"549 383 LINE",
"220 378 LINE",
"212 327 LINE",
"541 327 LINE"
);
},
{
closed = 1;
nodes = (
"352 710 LINE",
"352 710 OFFCURVE",
"280 705 OFFCURVE",
"220 705 CURVE SMOOTH",
"200 705 OFFCURVE",
"105 710 OFFCURVE",
"105 710 CURVE",
"92 656 LINE",
"165 644 LINE",
"165 631 OFFCURVE",
"164 583 OFFCURVE",
"162 568 CURVE SMOOTH",
"99 137 LINE SMOOTH",
"97 122 OFFCURVE",
"83 74 OFFCURVE",
"80 61 CURVE",
"1 45 LINE",
"-1 -5 LINE",
"-1 -5 OFFCURVE",
"109 0 OFFCURVE",
"134 0 CURVE SMOOTH",
"213 0 OFFCURVE",
"257 0 OFFCURVE",
"257 0 CURVE",
"271 54 LINE",
"186 61 LINE",
"186 75 OFFCURVE",
"191 137 OFFCURVE",
"195 167 CURVE SMOOTH",
"249 538 LINE SMOOTH",
"253 568 OFFCURVE",
"267 630 OFFCURVE",
"271 644 CURVE",
"347 651 LINE"
);
},
{
closed = 1;
nodes = (
"761 710 LINE",
"761 710 OFFCURVE",
"689 705 OFFCURVE",
"629 705 CURVE SMOOTH",
"609 705 OFFCURVE",
"514 710 OFFCURVE",
"514 710 CURVE",
"501 656 LINE",
"574 644 LINE",
"574 631 OFFCURVE",
"573 583 OFFCURVE",
"571 568 CURVE SMOOTH",
"508 137 LINE SMOOTH",
"506 122 OFFCURVE",
"492 74 OFFCURVE",
"489 61 CURVE",
"410 45 LINE",
"408 -5 LINE",
"408 -5 OFFCURVE",
"518 0 OFFCURVE",
"543 0 CURVE SMOOTH",
"622 0 OFFCURVE",
"666 0 OFFCURVE",
"666 0 CURVE",
"680 54 LINE",
"595 61 LINE",
"595 75 OFFCURVE",
"600 137 OFFCURVE",
"604 167 CURVE SMOOTH",
"658 538 LINE SMOOTH",
"662 568 OFFCURVE",
"676 630 OFFCURVE",
"680 644 CURVE",
"756 651 LINE"
);
}
);
width = 734;
},
{
anchors = (
{
name = bottom;
position = "{351, 0}";
},
{
name = center;
position = "{423, 520}";
},
{
name = top;
position = "{456, 720}";
}
);
background = {
paths = (
{
closed = 1;
nodes = (
"546 393 LINE",
"270 389 LINE",
"258 302 LINE",
"532 302 LINE"
);
},
{
closed = 1;
nodes = (
"389 710 LINE",
"389 710 OFFCURVE",
"301 705 OFFCURVE",
"221 705 CURVE SMOOTH",
"191 705 OFFCURVE",
"101 710 OFFCURVE",
"101 710 CURVE",
"85 635 LINE",
"146 623 LINE",
"145 607 OFFCURVE",
"145 562 OFFCURVE",
"138 512 CURVE SMOOTH",
"87 163 LINE SMOOTH",
"84 143 OFFCURVE",
"68 87 OFFCURVE",
"66 77 CURVE",
"1 65 LINE",
"-4 -5 LINE",
"-4 -5 OFFCURVE",
"116 0 OFFCURVE",
"146 0 CURVE",
"284 0 LINE",
"299 71 LINE",
"238 77 LINE",
"239 91 OFFCURVE",
"239 143 OFFCURVE",
"247 193 CURVE SMOOTH",
"297 542 LINE SMOOTH",
"300 562 OFFCURVE",
"313 608 OFFCURVE",
"318 623 CURVE",
"382 629 LINE"
);
},
{
closed = 1;
nodes = (
"809 710 LINE",
"809 710 OFFCURVE",
"721 705 OFFCURVE",
"641 705 CURVE SMOOTH",
"611 705 OFFCURVE",
"521 710 OFFCURVE",
"521 710 CURVE",
"505 635 LINE",
"566 623 LINE",
"565 607 OFFCURVE",
"565 562 OFFCURVE",
"558 512 CURVE SMOOTH",
"507 163 LINE SMOOTH",
"504 143 OFFCURVE",
"488 87 OFFCURVE",
"486 77 CURVE",
"421 65 LINE",
"416 -5 LINE",
"416 -5 OFFCURVE",
"536 0 OFFCURVE",
"566 0 CURVE",
"704 0 LINE",
"719 71 LINE",
"658 77 LINE",
"659 91 OFFCURVE",
"659 143 OFFCURVE",
"667 193 CURVE SMOOTH",
"717 542 LINE SMOOTH",
"720 562 OFFCURVE",
"733 608 OFFCURVE",
"738 623 CURVE",
"802 629 LINE"
);
}
);
};
layerId = "B953D09C-6DD0-450A-A78C-8C2188DD4016";
paths = (
{
closed = 1;
nodes = (
"546 393 LINE",
"270 389 LINE",
"258 302 LINE",
"532 302 LINE"
);
},
{
closed = 1;
nodes = (
"389 710 LINE",
"389 710 OFFCURVE",
"301 705 OFFCURVE",
"221 705 CURVE SMOOTH",
"191 705 OFFCURVE",
"101 710 OFFCURVE",
"101 710 CURVE",
"85 635 LINE",
"146 623 LINE",
"146 608 OFFCURVE",
"145 562 OFFCURVE",
"138 512 CURVE SMOOTH",
"87 163 LINE SMOOTH",
"84 143 OFFCURVE",
"71 92 OFFCURVE",
"66 77 CURVE",
"1 65 LINE",
"-4 -5 LINE",
"-4 -5 OFFCURVE",
"116 0 OFFCURVE",
"146 0 CURVE",
"284 0 LINE",
"299 70 LINE",
"238 77 LINE",
"238 92 OFFCURVE",
"239 143 OFFCURVE",
"247 193 CURVE SMOOTH",
"297 542 LINE SMOOTH",
"300 562 OFFCURVE",
"313 608 OFFCURVE",
"318 623 CURVE",
"382 629 LINE"
);
},
{
closed = 1;
nodes = (
"809 710 LINE",
"809 710 OFFCURVE",
"721 705 OFFCURVE",
"641 705 CURVE SMOOTH",
"611 705 OFFCURVE",
"521 710 OFFCURVE",
"521 710 CURVE",
"505 635 LINE",
"566 623 LINE",
"566 608 OFFCURVE",
"565 562 OFFCURVE",
"558 512 CURVE SMOOTH",
"507 163 LINE SMOOTH",
"504 143 OFFCURVE",
"491 92 OFFCURVE",
"486 77 CURVE",
"421 65 LINE",
"416 -5 LINE",
"416 -5 OFFCURVE",
"536 0 OFFCURVE",
"566 0 CURVE",
"704 0 LINE",
"719 70 LINE",
"658 77 LINE",
"658 92 OFFCURVE",
"659 143 OFFCURVE",
"667 193 CURVE SMOOTH",
"717 542 LINE SMOOTH",
"720 562 OFFCURVE",
"733 608 OFFCURVE",
"738 623 CURVE",
"802 629 LINE"
);
}
);
width = 776;
}
);
leftKerningGroup = H;
rightKerningGroup = H;
unicode = 0048;
},
{
color = 1;
glyphname = Hbar;
lastChange = "2018-05-16 11:35:21 +0000";
layers = (
{
background = {
paths = (
{
closed = 1;
nodes = (
"60 542 LINE",
"60 498 LINE",
"719 498 LINE",
"724 542 LINE"
);
}
);
};
components = (
{
name = H;
},
{
name = barcomp.long;
transform = "{1, 0, 0, 1, 26, -85}";
}
);
layerId = UUID0;
width = 749;
},
{
components = (
{
name = H;
},
{
name = barcomp.long;
transform = "{1, 0, 0, 1, 24, -72}";
}
);
layerId = "16643525-C5DD-48EC-8E99-463BF28F5E85";
width = 794;
},
{
background = {
paths = (
{
closed = 1;
nodes = (
"70 542 LINE",
"64 498 LINE",
"753 498 LINE",
"764 542 LINE"
);
}
);
};
components = (
{
name = H;
},
{
name = barcomp.long;
transform = "{1, 0, 0, 1, 10, -85}";
}
);
layerId = "08C09966-8326-41C9-AE3D-74AAC6FC1D13";
width = 734;
},
{
background = {
paths = (
{
closed = 1;
nodes = (
"819 551 LINE",
"75 551 LINE",
"66 487 LINE",
"810 487 LINE"
);
}
);
};
components = (
{
name = H;
},
{
name = barcomp.long;
transform = "{1, 0, 0, 1, -9, -72}";
}
);
layerId = "B953D09C-6DD0-450A-A78C-8C2188DD4016";
width = 776;
}
);
leftKerningGroup = H;
rightKerningGroup = H;
unicode = 0126;
},
{
color = 0;
glyphname = I;
lastChange = "2018-05-16 11:34:52 +0000";
layers = (
{
anchors = (
{
name = bottom;
position = "{170, 0}";
},
{
name = ogonek;
position = "{298, 0}";
},
{
name = top;
position = "{162, 720}";
}
);
background = {
paths = (
{
closed = 1;
nodes = (
"288 710 LINE",
"288 710 OFFCURVE",
"231 705 OFFCURVE",
"151 705 CURVE SMOOTH",
"131 705 OFFCURVE",
"35 710 OFFCURVE",
"35 710 CURVE",
"30 656 LINE",
"107 644 LINE",
"109 631 OFFCURVE",
"116 585 OFFCURVE",
"116 568 CURVE SMOOTH",
"116 137 LINE SMOOTH",
"116 120 OFFCURVE",
"109 74 OFFCURVE",
"107 61 CURVE",
"28 45 LINE",
"33 -5 LINE",
"33 -5 OFFCURVE",
"143 0 OFFCURVE",
"168 0 CURVE SMOOTH",
"248 0 OFFCURVE",
"297 -5 OFFCURVE",
"297 -5 CURVE",
"304 54 LINE",
"214 61 LINE",
"212 75 OFFCURVE",
"207 125 OFFCURVE",
"207 167 CURVE SMOOTH",
"207 538 LINE SMOOTH",
"207 580 OFFCURVE",
"212 630 OFFCURVE",
"214 644 CURVE",
"292 651 LINE"
);
}
);
};
layerId = UUID0;
paths = (
{
closed = 1;
nodes = (
"288 710 LINE",
"288 710 OFFCURVE",
"210 705 OFFCURVE",
"150 705 CURVE SMOOTH",
"130 705 OFFCURVE",
"35 710 OFFCURVE",
"35 710 CURVE",
"30 656 LINE",
"107 644 LINE",
"109 631 OFFCURVE",
"116 585 OFFCURVE",
"116 568 CURVE SMOOTH",
"116 137 LINE SMOOTH",
"116 120 OFFCURVE",
"109 74 OFFCURVE",
"107 61 CURVE",
"28 45 LINE",
"33 -5 LINE",
"33 -5 OFFCURVE",
"143 0 OFFCURVE",
"168 0 CURVE",
"298 0 LINE",
"304 54 LINE",
"214 61 LINE",
"212 75 OFFCURVE",
"207 125 OFFCURVE",
"207 167 CURVE SMOOTH",
"207 538 LINE SMOOTH",
"207 580 OFFCURVE",
"212 630 OFFCURVE",
"214 644 CURVE",
"292 651 LINE"
);
}
);
width = 327;
},
{
anchors = (
{
name = bottom;
position = "{176, 0}";
},
{
name = ogonek;
position = "{322, 0}";
},
{
name = top;
position = "{176, 720}";
}
);
background = {
paths = (
{
closed = 1;
nodes = (
"323 710 LINE",
"323 710 OFFCURVE",
"242 705 OFFCURVE",
"129 705 CURVE SMOOTH",
"82 705 OFFCURVE",
"29 710 OFFCURVE",
"29 710 CURVE",
"24 635 LINE",
"89 623 LINE",
"91 607 OFFCURVE",
"98 562 OFFCURVE",
"98 512 CURVE SMOOTH",
"98 163 LINE SMOOTH",
"98 143 OFFCURVE",
"90 87 OFFCURVE",
"89 77 CURVE",
"23 65 LINE",
"28 -5 LINE",
"28 -5 OFFCURVE",
"138 0 OFFCURVE",
"168 0 CURVE SMOOTH",
"281 0 OFFCURVE",
"322 -5 OFFCURVE",
"322 -5 CURVE",
"327 71 LINE",
"262 77 LINE",
"260 91 OFFCURVE",
"253 143 OFFCURVE",
"253 193 CURVE SMOOTH",
"253 542 LINE SMOOTH",
"253 562 OFFCURVE",
"259 608 OFFCURVE",
"262 623 CURVE",
"328 629 LINE"
);
}
);
};
layerId = "16643525-C5DD-48EC-8E99-463BF28F5E85";
paths = (
{
closed = 1;
nodes = (
"323 710 LINE",
"323 710 OFFCURVE",
"229 705 OFFCURVE",
"149 705 CURVE SMOOTH",
"119 705 OFFCURVE",
"29 710 OFFCURVE",
"29 710 CURVE",
"24 635 LINE",
"89 623 LINE",
"91 607 OFFCURVE",
"98 562 OFFCURVE",
"98 542 CURVE SMOOTH",
"98 163 LINE SMOOTH",
"98 143 OFFCURVE",
"90 87 OFFCURVE",
"89 77 CURVE",
"23 65 LINE",
"28 -5 LINE",
"28 -5 OFFCURVE",
"148 0 OFFCURVE",
"178 0 CURVE",
"322 0 LINE",
"327 71 LINE",
"262 77 LINE",
"260 91 OFFCURVE",
"253 153 OFFCURVE",
"253 193 CURVE SMOOTH",
"253 512 LINE SMOOTH",
"253 552 OFFCURVE",
"259 608 OFFCURVE",
"262 623 CURVE",
"328 629 LINE"
);
}
);
width = 352;
},
{
anchors = (
{
name = bottom;
position = "{122, 0}";
},
{
name = ogonek;
position = "{257, 0}";
},
{
name = top;
position = "{228, 720}";
}
);
background = {
paths = (
{
closed = 1;
nodes = (
"352 710 LINE",
"352 710 OFFCURVE",
"295 705 OFFCURVE",
"216 705 CURVE SMOOTH",
"196 705 OFFCURVE",
"105 710 OFFCURVE",
"105 710 CURVE",
"92 656 LINE",
"165 644 LINE",
"165 631 OFFCURVE",
"165 585 OFFCURVE",
"162 568 CURVE SMOOTH",
"99 137 LINE SMOOTH",
"97 120 OFFCURVE",
"83 74 OFFCURVE",
"80 61 CURVE",
"1 45 LINE",
"-1 -5 LINE",
"-1 -5 OFFCURVE",
"93 0 OFFCURVE",
"113 0 CURVE SMOOTH",
"192 0 OFFCURVE",
"256 -5 OFFCURVE",
"256 -5 CURVE",
"271 54 LINE",
"186 61 LINE",
"186 75 OFFCURVE",
"189 125 OFFCURVE",
"195 167 CURVE SMOOTH",
"249 538 LINE SMOOTH",
"255 580 OFFCURVE",
"267 630 OFFCURVE",
"271 644 CURVE",
"347 651 LINE"
);
}
);
};
layerId = "08C09966-8326-41C9-AE3D-74AAC6FC1D13";
paths = (
{
closed = 1;
nodes = (
"352 710 LINE",
"352 710 OFFCURVE",
"280 705 OFFCURVE",
"220 705 CURVE SMOOTH",
"200 705 OFFCURVE",
"105 710 OFFCURVE",
"105 710 CURVE",
"92 656 LINE",
"165 644 LINE",
"165 631 OFFCURVE",
"164 583 OFFCURVE",
"162 568 CURVE SMOOTH",
"99 137 LINE SMOOTH",
"97 122 OFFCURVE",
"83 74 OFFCURVE",
"80 61 CURVE",
"1 45 LINE",
"-1 -5 LINE",
"-1 -5 OFFCURVE",
"109 0 OFFCURVE",
"134 0 CURVE",
"257 0 LINE",
"271 54 LINE",
"186 61 LINE",
"186 75 OFFCURVE",
"191 137 OFFCURVE",
"195 167 CURVE SMOOTH",
"249 538 LINE SMOOTH",
"253 568 OFFCURVE",
"267 630 OFFCURVE",
"271 644 CURVE",
"347 651 LINE"
);
}
);
width = 325;
},
{
anchors = (
{
name = bottom;
position = "{140, 0}";
},
{
name = ogonek;
position = "{284, 0}";
},
{
name = top;
position = "{243, 720}";
}
);
background = {
paths = (
{
closed = 1;
nodes = (
"389 710 LINE",
"389 710 OFFCURVE",
"301 705 OFFCURVE",
"221 705 CURVE SMOOTH",
"191 705 OFFCURVE",
"101 710 OFFCURVE",
"101 710 CURVE",
"85 635 LINE",
"146 623 LINE",
"146 608 OFFCURVE",
"145 562 OFFCURVE",
"138 512 CURVE SMOOTH",
"87 163 LINE SMOOTH",
"84 143 OFFCURVE",
"71 92 OFFCURVE",
"66 77 CURVE",
"1 65 LINE",
"-4 -5 LINE",
"-4 -5 OFFCURVE",
"116 0 OFFCURVE",
"146 0 CURVE",
"284 0 LINE",
"299 70 LINE",
"238 77 LINE",
"238 92 OFFCURVE",
"239 143 OFFCURVE",
"247 193 CURVE SMOOTH",
"297 542 LINE SMOOTH",
"300 562 OFFCURVE",
"313 608 OFFCURVE",
"318 623 CURVE",
"382 629 LINE"
);
}
);
};
guideLines = (
{
angle = 261.6;
position = "{333, 395}";
}
);
layerId = "B953D09C-6DD0-450A-A78C-8C2188DD4016";
paths = (
{
closed = 1;
nodes = (
"389 710 LINE",
"389 710 OFFCURVE",
"301 705 OFFCURVE",
"221 705 CURVE SMOOTH",
"191 705 OFFCURVE",
"101 710 OFFCURVE",
"101 710 CURVE",
"85 635 LINE",
"146 623 LINE",
"146 608 OFFCURVE",
"145 562 OFFCURVE",
"138 512 CURVE SMOOTH",
"87 163 LINE SMOOTH",
"84 143 OFFCURVE",
"71 92 OFFCURVE",
"66 77 CURVE",
"1 65 LINE",
"-4 -5 LINE",
"-4 -5 OFFCURVE",
"116 0 OFFCURVE",
"146 0 CURVE",
"284 0 LINE",
"299 70 LINE",
"238 77 LINE",
"238 92 OFFCURVE",
"239 143 OFFCURVE",
"247 193 CURVE SMOOTH",
"297 542 LINE SMOOTH",
"300 562 OFFCURVE",
"313 608 OFFCURVE",
"318 623 CURVE",
"382 629 LINE"
);
}
);
width = 356;
}
);
leftKerningGroup = H;
rightKerningGroup = H;
unicode = 0049;
},
{
glyphname = IJ;
lastChange = "2017-02-28 10:57:55 +0000";
layers = (
{
anchors = (
{
name = top;
position = "{478, 720}";
}
);
background = {
paths = (
{
closed = 1;
nodes = (
"614 651 LINE",
"536 644 LINE",
"534 630 OFFCURVE",
"529 580 OFFCURVE",
"529 538 CURVE SMOOTH",
"529 -10 LINE SMOOTH",
"529 -37 OFFCURVE",
"439 -144 OFFCURVE",
"392 -200 CURVE",
"358 -178 LINE",
"358 -178 OFFCURVE",
"438 -9 OFFCURVE",
"438 11 CURVE SMOOTH",
"438 568 LINE SMOOTH",
"438 585 OFFCURVE",
"431 631 OFFCURVE",
"429 644 CURVE",
"346 656 LINE",
"263 644 LINE",
"261 630 OFFCURVE",
"256 580 OFFCURVE",
"256 538 CURVE SMOOTH",
"256 167 LINE SMOOTH",
"256 125 OFFCURVE",
"261 75 OFFCURVE",
"263 61 CURVE",
"353 54 LINE",
"347 0 LINE",
"347 0 OFFCURVE",
"280 0 OFFCURVE",
"200 0 CURVE SMOOTH",
"180 0 OFFCURVE",
"82 -5 OFFCURVE",
"82 -5 CURVE",
"77 45 LINE",
"156 61 LINE",
"158 74 OFFCURVE",
"165 120 OFFCURVE",
"165 137 CURVE SMOOTH",
"165 568 LINE SMOOTH",
"165 585 OFFCURVE",
"158 631 OFFCURVE",
"156 644 CURVE",
"79 656 LINE",
"84 710 LINE",
"84 710 OFFCURVE",
"180 705 OFFCURVE",
"200 705 CURVE SMOOTH",
"473 705 LINE SMOOTH",
"553 705 OFFCURVE",
"610 710 OFFCURVE",
"610 710 CURVE"
);
}
);
};
layerId = UUID0;
paths = (
{
closed = 1;
nodes = (
"326 656 LINE",
"223 644 LINE",
"221 630 OFFCURVE",
"216 580 OFFCURVE",
"216 538 CURVE SMOOTH",
"216 167 LINE SMOOTH",
"216 125 OFFCURVE",
"221 75 OFFCURVE",
"223 61 CURVE",
"313 54 LINE",
"307 0 LINE",
"160 0 LINE",
"140 0 OFFCURVE",
"42 -5 OFFCURVE",
"42 -5 CURVE",
"37 45 LINE",
"116 61 LINE",
"118 74 OFFCURVE",
"125 120 OFFCURVE",
"125 137 CURVE SMOOTH",
"125 568 LINE SMOOTH",
"125 585 OFFCURVE",
"118 631 OFFCURVE",
"116 644 CURVE",
"39 656 LINE",
"44 710 LINE",
"44 710 OFFCURVE",
"140 705 OFFCURVE",
"160 705 CURVE SMOOTH",
"326 705 LINE"
);
},
{
closed = 1;
nodes = (
"326 705 LINE",
"326 656 LINE",
"429 644 LINE",
"431 631 OFFCURVE",
"438 585 OFFCURVE",
"438 568 CURVE SMOOTH",
"438 11 LINE SMOOTH",
"438 -9 OFFCURVE",
"358 -178 OFFCURVE",
"358 -178 CURVE",
"392 -200 LINE",
"439 -144 OFFCURVE",
"529 -37 OFFCURVE",
"529 -10 CURVE SMOOTH",
"529 538 LINE SMOOTH",
"529 580 OFFCURVE",
"534 630 OFFCURVE",
"536 644 CURVE",
"614 651 LINE",
"610 710 LINE",
"610 710 OFFCURVE",
"532 705 OFFCURVE",
"472 705 CURVE"
);
}
);
width = 635;
},
{
anchors = (
{
name = top;
position = "{514, 720}";
}
);
background = {
paths = (
{
closed = 1;
nodes = (
"666 629 LINE",
"600 623 LINE",
"598 614 OFFCURVE",
"591 562 OFFCURVE",
"591 542 CURVE SMOOTH",
"591 0 LINE SMOOTH",
"591 -33 OFFCURVE",
"510 -111 OFFCURVE",
"414 -200 CURVE",
"360 -169 LINE",
"360 -169 OFFCURVE",
"436 -9 OFFCURVE",
"436 11 CURVE SMOOTH",
"436 512 LINE SMOOTH",
"436 562 OFFCURVE",
"430 608 OFFCURVE",
"427 623 CURVE",
"345 632 LINE",
"262 623 LINE",
"259 609 OFFCURVE",
"253 562 OFFCURVE",
"253 542 CURVE SMOOTH",
"253 193 LINE SMOOTH",
"253 143 OFFCURVE",
"261 86 OFFCURVE",
"262 77 CURVE",
"327 71 LINE",
"322 0 LINE",
"322 0 OFFCURVE",
"291 0 OFFCURVE",
"178 0 CURVE SMOOTH",
"148 0 OFFCURVE",
"28 -5 OFFCURVE",
"28 -5 CURVE",
"23 65 LINE",
"89 77 LINE",
"91 91 OFFCURVE",
"98 143 OFFCURVE",
"98 163 CURVE SMOOTH",
"98 512 LINE SMOOTH",
"98 562 OFFCURVE",
"92 604 OFFCURVE",
"89 623 CURVE",
"24 635 LINE",
"29 710 LINE",
"29 710 OFFCURVE",
"100 705 OFFCURVE",
"147 705 CURVE SMOOTH",
"467 705 LINE SMOOTH",
"580 705 OFFCURVE",
"661 710 OFFCURVE",
"661 710 CURVE"
);
}
);
};
layerId = "16643525-C5DD-48EC-8E99-463BF28F5E85";
paths = (
{
closed = 1;
nodes = (
"345 632 LINE",
"262 623 LINE",
"259 609 OFFCURVE",
"253 562 OFFCURVE",
"253 542 CURVE SMOOTH",
"253 193 LINE SMOOTH",
"253 143 OFFCURVE",
"261 86 OFFCURVE",
"262 77 CURVE",
"327 71 LINE",
"322 0 LINE",
"178 0 LINE",
"148 0 OFFCURVE",
"28 -5 OFFCURVE",
"28 -5 CURVE",
"23 65 LINE",
"89 77 LINE",
"91 91 OFFCURVE",
"98 143 OFFCURVE",
"98 163 CURVE SMOOTH",
"98 512 LINE SMOOTH",
"98 562 OFFCURVE",
"92 604 OFFCURVE",
"89 623 CURVE",
"24 635 LINE",
"29 710 LINE",
"29 710 OFFCURVE",
"100 705 OFFCURVE",
"147 705 CURVE SMOOTH",
"345 705 LINE"
);
},
{
closed = 1;
nodes = (
"457 705 OFFCURVE",
"345 705 OFFCURVE",
"345 705 CURVE",
"345 632 LINE",
"427 623 LINE",
"430 608 OFFCURVE",
"436 562 OFFCURVE",
"436 512 CURVE SMOOTH",
"436 11 LINE SMOOTH",
"436 -9 OFFCURVE",
"360 -169 OFFCURVE",
"360 -169 CURVE",
"414 -200 LINE",
"510 -111 OFFCURVE",
"591 -23 OFFCURVE",
"591 10 CURVE SMOOTH",
"591 542 LINE SMOOTH",
"591 562 OFFCURVE",
"598 614 OFFCURVE",
"600 623 CURVE",
"666 629 LINE",
"661 710 LINE",
"661 710 OFFCURVE",
"567 705 OFFCURVE",
"487 705 CURVE SMOOTH"
);
}
);
width = 685;
},
{
background = {
paths = (
{
closed = 1;
nodes = (
"665 651 LINE",
"589 644 LINE",
"585 630 OFFCURVE",
"573 580 OFFCURVE",
"566 538 CURVE SMOOTH",
"487 -10 LINE SMOOTH",
"483 -37 OFFCURVE",
"380 -144 OFFCURVE",
"326 -200 CURVE",
"296 -178 LINE",
"296 -178 OFFCURVE",
"399 -9 OFFCURVE",
"402 11 CURVE SMOOTH",
"483 568 LINE SMOOTH",
"485 585 OFFCURVE",
"485 631 OFFCURVE",
"485 644 CURVE",
"406 656 LINE",
"537 705 LINE",
"614 705 OFFCURVE",
"671 710 OFFCURVE",
"671 710 CURVE"
);
}
);
};
layerId = "08C09966-8326-41C9-AE3D-74AAC6FC1D13";
paths = (
{
closed = 1;
nodes = (
"398 705 LINE",
"236 705 LINE",
"216 705 OFFCURVE",
"121 710 OFFCURVE",
"121 710 CURVE",
"108 656 LINE",
"181 644 LINE",
"181 631 OFFCURVE",
"181 585 OFFCURVE",
"178 568 CURVE SMOOTH",
"115 137 LINE SMOOTH",
"113 120 OFFCURVE",
"99 74 OFFCURVE",
"96 61 CURVE",
"17 45 LINE",
"15 -5 LINE",
"15 -5 OFFCURVE",
"125 0 OFFCURVE",
"150 0 CURVE",
"273 0 LINE",
"287 54 LINE",
"202 61 LINE",
"202 75 OFFCURVE",
"205 125 OFFCURVE",
"211 167 CURVE SMOOTH",
"265 538 LINE SMOOTH",
"271 580 OFFCURVE",
"283 630 OFFCURVE",
"287 644 CURVE",
"412 660 LINE"
);
},
{
closed = 1;
nodes = (
"566 538 LINE SMOOTH",
"572 580 OFFCURVE",
"584 630 OFFCURVE",
"588 644 CURVE",
"664 651 LINE",
"669 710 LINE",
"669 710 OFFCURVE",
"597 705 OFFCURVE",
"537 705 CURVE",
"388 705 LINE",
"379 656 LINE",
"482 644 LINE",
"482 631 OFFCURVE",
"482 585 OFFCURVE",
"479 568 CURVE SMOOTH",
"398 11 LINE",
"395 -9 OFFCURVE",
"293 -178 OFFCURVE",
"293 -178 CURVE",
"324 -200 LINE",
"379 -144 OFFCURVE",
"482 -37 OFFCURVE",
"486 -10 CURVE SMOOTH"
);
}
);
width = 635;
},
{
background = {
paths = (
{
closed = 1;
nodes = (
"440 705 LINE",
"440 705 OFFCURVE",
"332 705 OFFCURVE",
"252 705 CURVE SMOOTH",
"222 705 OFFCURVE",
"132 710 OFFCURVE",
"132 710 CURVE",
"116 635 LINE",
"177 623 LINE",
"176 607 OFFCURVE",
"176 562 OFFCURVE",
"169 512 CURVE SMOOTH",
"118 163 LINE SMOOTH",
"115 143 OFFCURVE",
"99 87 OFFCURVE",
"97 77 CURVE",
"32 65 LINE",
"27 -5 LINE",
"27 -5 OFFCURVE",
"147 0 OFFCURVE",
"177 0 CURVE",
"315 0 LINE",
"330 71 LINE",
"269 77 LINE",
"270 91 OFFCURVE",
"270 143 OFFCURVE",
"278 193 CURVE SMOOTH",
"328 542 LINE SMOOTH",
"331 562 OFFCURVE",
"344 608 OFFCURVE",
"349 623 CURVE",
"433 633 LINE"
);
},
{
closed = 1;
nodes = (
"651 542 LINE SMOOTH",
"654 562 OFFCURVE",
"667 608 OFFCURVE",
"672 623 CURVE",
"736 629 LINE",
"743 710 LINE",
"743 710 OFFCURVE",
"655 705 OFFCURVE",
"575 705 CURVE SMOOTH",
"545 705 OFFCURVE",
"435 705 OFFCURVE",
"435 705 CURVE",
"425 633 LINE",
"500 623 LINE",
"499 607 OFFCURVE",
"499 562 OFFCURVE",
"492 512 CURVE SMOOTH",
"419 11 LINE",
"416 -9 OFFCURVE",
"319 -169 OFFCURVE",
"319 -169 CURVE",
"369 -200 LINE",
"478 -111 OFFCURVE",
"569 -23 OFFCURVE",
"574 10 CURVE"
);
}
);
};
layerId = "B953D09C-6DD0-450A-A78C-8C2188DD4016";
paths = (
{
closed = 1;
nodes = (
"440 705 LINE",
"242 705 LINE",
"212 705 OFFCURVE",
"122 710 OFFCURVE",
"122 710 CURVE",
"106 635 LINE",
"167 623 LINE",
"166 607 OFFCURVE",
"166 562 OFFCURVE",
"159 512 CURVE SMOOTH",
"108 163 LINE SMOOTH",
"105 143 OFFCURVE",
"89 87 OFFCURVE",
"87 77 CURVE",
"22 65 LINE",
"17 -5 LINE",
"17 -5 OFFCURVE",
"137 0 OFFCURVE",
"167 0 CURVE",
"305 0 LINE",
"320 71 LINE",
"259 77 LINE",
"260 91 OFFCURVE",
"260 143 OFFCURVE",
"268 193 CURVE SMOOTH",
"318 542 LINE SMOOTH",
"321 562 OFFCURVE",
"334 608 OFFCURVE",
"339 623 CURVE",
"433 633 LINE"
);
},
{
closed = 1;
nodes = (
"651 542 LINE SMOOTH",
"654 562 OFFCURVE",
"667 608 OFFCURVE",
"672 623 CURVE",
"736 629 LINE",
"743 710 LINE",
"743 710 OFFCURVE",
"655 705 OFFCURVE",
"575 705 CURVE",
"425 705 LINE",
"415 633 LINE",
"500 623 LINE",
"499 607 OFFCURVE",
"499 562 OFFCURVE",
"492 512 CURVE SMOOTH",
"419 11 LINE",
"416 -9 OFFCURVE",
"319 -169 OFFCURVE",
"319 -169 CURVE",
"369 -200 LINE",
"478 -111 OFFCURVE",
"569 -23 OFFCURVE",
"574 10 CURVE"
);
}
);
width = 714;
}
);
leftKerningGroup = H;
rightKerningGroup = J;
unicode = 0132;
},
{
color = 1;
glyphname = Iogonek;
lastChange = "2018-05-16 11:35:16 +0000";
layers = (
{
background = {
paths = (
{
closed = 1;
nodes = (
"287 710 LINE",
"287 710 OFFCURVE",
"230 705 OFFCURVE",
"150 705 CURVE SMOOTH",
"130 705 OFFCURVE",
"34 710 OFFCURVE",
"34 710 CURVE",
"29 656 LINE",
"106 644 LINE",
"108 631 OFFCURVE",
"115 585 OFFCURVE",
"115 568 CURVE SMOOTH",
"115 137 LINE",
"150 0 LINE",
"230 0 OFFCURVE",
"296 -5 OFFCURVE",
"296 -5 CURVE",
"303 54 LINE",
"213 61 LINE",
"211 75 OFFCURVE",
"206 125 OFFCURVE",
"206 167 CURVE SMOOTH",
"206 538 LINE SMOOTH",
"206 580 OFFCURVE",
"211 630 OFFCURVE",
"213 644 CURVE",
"291 651 LINE"
);
},
{
closed = 1;
nodes = (
"32 -42 OFFCURVE",
"4 -64 OFFCURVE",
"4 -108 CURVE SMOOTH",
"4 -168 OFFCURVE",
"47 -197 OFFCURVE",
"107 -197 CURVE SMOOTH",
"144 -197 OFFCURVE",
"176 -183 OFFCURVE",
"193 -175 CURVE",
"179 -142 LINE",
"157 -151 OFFCURVE",
"139 -155 OFFCURVE",
"124 -155 CURVE SMOOTH",
"86 -155 OFFCURVE",
"68 -131 OFFCURVE",
"68 -102 CURVE SMOOTH",
"68 -60 OFFCURVE",
"104 -8 OFFCURVE",
"168 0 CURVE",
"186 110 LINE",
"115 175 LINE",
"115 67 OFFCURVE",
"114 40 OFFCURVE",
"87 13 CURVE SMOOTH"
);
}
);
};
components = (
{
name = I;
},
{
name = ogonekcomb;
transform = "{1, 0, 0, 1, 91, 0}";
}
);
layerId = UUID0;
width = 327;
},
{
components = (
{
name = I;
},
{
name = ogonekcomb;
transform = "{1, 0, 0, 1, 51, 0}";
}
);
layerId = "16643525-C5DD-48EC-8E99-463BF28F5E85";
width = 352;
},
{
background = {
paths = (
{
closed = 1;
nodes = (
"366 710 LINE",
"366 710 OFFCURVE",
"309 705 OFFCURVE",
"232 705 CURVE SMOOTH",
"212 705 OFFCURVE",
"120 710 OFFCURVE",
"120 710 CURVE",
"107 656 LINE",
"180 644 LINE",
"180 631 OFFCURVE",
"180 585 OFFCURVE",
"178 568 CURVE SMOOTH",
"115 137 LINE",
"129 0 LINE",
"206 0 OFFCURVE",
"269 -5 OFFCURVE",
"269 -5 CURVE",
"285 54 LINE",
"199 61 LINE",
"199 75 OFFCURVE",
"201 125 OFFCURVE",
"207 167 CURVE SMOOTH",
"261 538 LINE SMOOTH",
"268 580 OFFCURVE",
"280 630 OFFCURVE",
"284 644 CURVE",
"361 651 LINE"
);
},
{
closed = 1;
nodes = (
"-1 -50 OFFCURVE",
"-30 -68 OFFCURVE",
"-30 -122 CURVE SMOOTH",
"-30 -172 OFFCURVE",
"6 -197 OFFCURVE",
"58 -197 CURVE SMOOTH",
"94 -197 OFFCURVE",
"127 -183 OFFCURVE",
"145 -175 CURVE",
"136 -142 LINE",
"114 -151 OFFCURVE",
"95 -155 OFFCURVE",
"81 -155 CURVE SMOOTH",
"49 -155 OFFCURVE",
"33 -135 OFFCURVE",
"33 -110 CURVE SMOOTH",
"33 -67 OFFCURVE",
"78 -9 OFFCURVE",
"146 0 CURVE",
"180 110 LINE",
"121 175 LINE",
"105 67 OFFCURVE",
"100 40 OFFCURVE",
"70 13 CURVE SMOOTH"
);
}
);
};
components = (
{
name = I;
},
{
name = ogonekcomb;
transform = "{1, 0, 0, 1, 50, 1}";
}
);
layerId = "08C09966-8326-41C9-AE3D-74AAC6FC1D13";
width = 325;
},
{
background = {
paths = (
{
closed = 1;
nodes = (
"108 163 LINE SMOOTH",
"78 -44 OFFCURVE",
"-35 -14 OFFCURVE",
"-35 -121 CURVE SMOOTH",
"-35 -172 OFFCURVE",
"3 -197 OFFCURVE",
"59 -197 CURVE SMOOTH",
"99 -197 OFFCURVE",
"136 -183 OFFCURVE",
"155 -174 CURVE",
"145 -126 LINE",
"131 -131 OFFCURVE",
"121 -133 OFFCURVE",
"111 -133 CURVE SMOOTH",
"85 -133 OFFCURVE",
"73 -115 OFFCURVE",
"73 -93 CURVE SMOOTH",
"73 -56 OFFCURVE",
"105 -9 OFFCURVE",
"159 0 CURVE",
"243 -1 OFFCURVE",
"301 -5 OFFCURVE",
"301 -5 CURVE",
"316 71 LINE",
"254 77 LINE",
"254 91 OFFCURVE",
"256 143 OFFCURVE",
"263 193 CURVE SMOOTH",
"314 542 LINE SMOOTH",
"317 562 OFFCURVE",
"329 608 OFFCURVE",
"334 623 CURVE",
"399 629 LINE",
"406 710 LINE",
"406 710 OFFCURVE",
"327 705 OFFCURVE",
"217 705 CURVE SMOOTH",
"172 705 OFFCURVE",
"121 710 OFFCURVE",
"121 710 CURVE",
"105 635 LINE",
"167 623 LINE",
"166 607 OFFCURVE",
"166 562 OFFCURVE",
"159 512 CURVE SMOOTH"
);
}
);
};
components = (
{
name = I;
},
{
name = ogonekcomb;
transform = "{1, 0, 0, 1, 57, 0}";
}
);
layerId = "B953D09C-6DD0-450A-A78C-8C2188DD4016";
width = 356;
}
);
unicode = 012E;
},
{
color = 0;
glyphname = J;
lastChange = "2018-05-16 11:34:52 +0000";
layers = (
{
anchors = (
{
name = top;
position = "{145, 720}";
}
);
background = {
paths = (
{
closed = 1;
nodes = (
"277 710 LINE",
"277 710 OFFCURVE",
"199 705 OFFCURVE",
"139 705 CURVE SMOOTH",
"119 705 OFFCURVE",
"24 710 OFFCURVE",
"24 710 CURVE",
"19 656 LINE",
"96 644 LINE",
"98 631 OFFCURVE",
"105 585 OFFCURVE",
"105 568 CURVE SMOOTH",
"105 137 LINE SMOOTH",
"105 120 OFFCURVE",
"98 74 OFFCURVE",
"96 61 CURVE",
"17 45 LINE",
"22 -5 LINE",
"22 -5 OFFCURVE",
"132 0 OFFCURVE",
"157 0 CURVE",
"286 0 LINE",
"293 54 LINE",
"203 61 LINE",
"201 75 OFFCURVE",
"196 125 OFFCURVE",
"196 167 CURVE SMOOTH",
"196 538 LINE SMOOTH",
"196 580 OFFCURVE",
"201 630 OFFCURVE",
"203 644 CURVE",
"281 651 LINE"
);
}
);
};
layerId = UUID0;
paths = (
{
closed = 1;
nodes = (
"119 705 OFFCURVE",
"24 710 OFFCURVE",
"24 710 CURVE",
"19 656 LINE",
"96 644 LINE",
"98 631 OFFCURVE",
"105 585 OFFCURVE",
"105 568 CURVE SMOOTH",
"105 11 LINE SMOOTH",
"105 -9 OFFCURVE",
"25 -178 OFFCURVE",
"25 -178 CURVE",
"59 -200 LINE",
"106 -144 OFFCURVE",
"196 -37 OFFCURVE",
"196 -10 CURVE SMOOTH",
"196 538 LINE SMOOTH",
"196 580 OFFCURVE",
"201 630 OFFCURVE",
"203 644 CURVE",
"281 651 LINE",
"277 710 LINE",
"277 710 OFFCURVE",
"199 705 OFFCURVE",
"139 705 CURVE SMOOTH"
);
}
);
width = 302;
},
{
anchors = (
{
name = top;
position = "{171, 720}";
}
);
background = {
paths = (
{
closed = 1;
nodes = (
"323 629 LINE",
"318 710 LINE",
"318 710 OFFCURVE",
"237 705 OFFCURVE",
"124 705 CURVE SMOOTH",
"77 705 OFFCURVE",
"24 710 OFFCURVE",
"24 710 CURVE",
"19 635 LINE",
"84 623 LINE",
"87 608 OFFCURVE",
"93 562 OFFCURVE",
"93 512 CURVE SMOOTH",
"93 11 LINE SMOOTH",
"93 -9 OFFCURVE",
"17 -169 OFFCURVE",
"17 -169 CURVE",
"71 -200 LINE",
"167 -111 OFFCURVE",
"248 -23 OFFCURVE",
"248 10 CURVE SMOOTH",
"248 542 LINE SMOOTH",
"248 562 OFFCURVE",
"255 614 OFFCURVE",
"257 623 CURVE"
);
}
);
};
layerId = "16643525-C5DD-48EC-8E99-463BF28F5E85";
paths = (
{
closed = 1;
nodes = (
"24 710 CURVE",
"19 635 LINE",
"84 623 LINE",
"87 608 OFFCURVE",
"93 562 OFFCURVE",
"93 542 CURVE SMOOTH",
"93 11 LINE SMOOTH",
"93 -9 OFFCURVE",
"17 -169 OFFCURVE",
"17 -169 CURVE",
"71 -200 LINE",
"167 -111 OFFCURVE",
"248 -23 OFFCURVE",
"248 10 CURVE SMOOTH",
"248 512 LINE SMOOTH",
"248 552 OFFCURVE",
"255 614 OFFCURVE",
"257 623 CURVE",
"323 629 LINE",
"318 710 LINE",
"318 710 OFFCURVE",
"224 705 OFFCURVE",
"144 705 CURVE SMOOTH",
"114 705 OFFCURVE",
"24 710 OFFCURVE"
);
}
);
width = 342;
},
{
anchors = (
{
name = top;
position = "{219, 720}";
}
);
background = {
paths = (
{
closed = 1;
nodes = (
"335 651 LINE",
"340 710 LINE",
"340 710 OFFCURVE",
"283 705 OFFCURVE",
"204 705 CURVE SMOOTH",
"184 705 OFFCURVE",
"93 710 OFFCURVE",
"93 710 CURVE",
"80 656 LINE",
"153 644 LINE",
"153 631 OFFCURVE",
"153 585 OFFCURVE",
"150 568 CURVE SMOOTH",
"69 11 LINE SMOOTH",
"66 -9 OFFCURVE",
"-36 -178 OFFCURVE",
"-36 -178 CURVE",
"-5 -200 LINE",
"50 -144 OFFCURVE",
"153 -37 OFFCURVE",
"157 -10 CURVE SMOOTH",
"237 538 LINE SMOOTH",
"243 580 OFFCURVE",
"255 630 OFFCURVE",
"259 644 CURVE"
);
}
);
};
layerId = "08C09966-8326-41C9-AE3D-74AAC6FC1D13";
paths = (
{
closed = 1;
nodes = (
"237 538 LINE SMOOTH",
"241 568 OFFCURVE",
"255 630 OFFCURVE",
"259 644 CURVE",
"335 651 LINE",
"340 710 LINE",
"340 710 OFFCURVE",
"268 705 OFFCURVE",
"208 705 CURVE SMOOTH",
"188 705 OFFCURVE",
"93 710 OFFCURVE",
"93 710 CURVE",
"80 656 LINE",
"153 644 LINE",
"153 631 OFFCURVE",
"152 583 OFFCURVE",
"150 568 CURVE SMOOTH",
"69 11 LINE",
"66 -9 OFFCURVE",
"-36 -178 OFFCURVE",
"-36 -178 CURVE",
"-5 -200 LINE",
"50 -144 OFFCURVE",
"153 -37 OFFCURVE",
"157 -10 CURVE SMOOTH"
);
}
);
width = 300;
},
{
anchors = (
{
name = top;
position = "{237, 720}";
}
);
background = {
paths = (
{
closed = 1;
nodes = (
"373 629 LINE",
"380 710 LINE",
"380 710 OFFCURVE",
"299 705 OFFCURVE",
"187 705 CURVE SMOOTH",
"140 705 OFFCURVE",
"92 710 OFFCURVE",
"92 710 CURVE",
"76 635 LINE",
"137 623 LINE",
"137 608 OFFCURVE",
"136 562 OFFCURVE",
"129 512 CURVE SMOOTH",
"56 11 LINE SMOOTH",
"53 -9 OFFCURVE",
"-44 -169 OFFCURVE",
"-44 -169 CURVE",
"6 -200 LINE",
"115 -111 OFFCURVE",
"206 -23 OFFCURVE",
"211 10 CURVE SMOOTH",
"288 542 LINE SMOOTH",
"291 562 OFFCURVE",
"306 614 OFFCURVE",
"309 623 CURVE"
);
}
);
};
layerId = "B953D09C-6DD0-450A-A78C-8C2188DD4016";
paths = (
{
closed = 1;
nodes = (
"56 11 LINE",
"53 -9 OFFCURVE",
"-44 -169 OFFCURVE",
"-44 -169 CURVE",
"6 -200 LINE",
"115 -111 OFFCURVE",
"206 -23 OFFCURVE",
"211 10 CURVE",
"288 542 LINE SMOOTH",
"291 562 OFFCURVE",
"304 608 OFFCURVE",
"309 623 CURVE",
"373 629 LINE",
"380 710 LINE",
"380 710 OFFCURVE",
"292 705 OFFCURVE",
"212 705 CURVE SMOOTH",
"182 705 OFFCURVE",
"92 710 OFFCURVE",
"92 710 CURVE",
"76 635 LINE",
"137 623 LINE",
"137 608 OFFCURVE",
"136 562 OFFCURVE",
"129 512 CURVE SMOOTH"
);
}
);
width = 336;
}
);
leftKerningGroup = J;
rightKerningGroup = J;
unicode = 004A;
},
{
color = 0;
glyphname = K;
lastChange = "2018-05-16 11:34:52 +0000";
layers = (
{
anchors = (
{
name = bottom;
position = "{335, 0}";
},
{
name = top;
position = "{335, 720}";
}
);
background = {
paths = (
{
closed = 1;
nodes = (
"656 710 LINE",
"656 710 OFFCURVE",
"578 705 OFFCURVE",
"518 705 CURVE SMOOTH",
"498 705 OFFCURVE",
"403 710 OFFCURVE",
"403 710 CURVE",
"398 656 LINE",
"475 644 LINE",
"477 631 OFFCURVE",
"484 585 OFFCURVE",
"484 568 CURVE SMOOTH",
"484 137 LINE SMOOTH",
"484 120 OFFCURVE",
"477 74 OFFCURVE",
"475 61 CURVE",
"396 45 LINE",
"401 -5 LINE",
"401 -5 OFFCURVE",
"511 0 OFFCURVE",
"536 0 CURVE",
"665 0 LINE",
"672 54 LINE",
"582 61 LINE",
"580 75 OFFCURVE",
"575 125 OFFCURVE",
"575 167 CURVE SMOOTH",
"575 538 LINE SMOOTH",
"575 580 OFFCURVE",
"580 630 OFFCURVE",
"582 644 CURVE",
"660 651 LINE"
);
}
);
};
layerId = UUID0;
paths = (
{
closed = 1;
nodes = (
"464 705 OFFCURVE",
"389 710 OFFCURVE",
"389 710 CURVE",
"384 656 LINE",
"438 645 LINE",
"399 577 LINE",
"217 353 LINE",
"217 353 OFFCURVE",
"361 188 OFFCURVE",
"382 164 CURVE",
"399 142 OFFCURVE",
"436 85 OFFCURVE",
"452 59 CURVE",
"393 45 LINE",
"398 -5 LINE",
"398 -5 OFFCURVE",
"511 0 OFFCURVE",
"536 0 CURVE",
"667 0 LINE",
"674 54 LINE",
"604 61 LINE",
"580 81 OFFCURVE",
"542 113 OFFCURVE",
"527 129 CURVE",
"458 209 OFFCURVE",
"386 290 OFFCURVE",
"316 370 CURVE",
"448 546 LINE",
"478 576 OFFCURVE",
"524 620 OFFCURVE",
"550 644 CURVE",
"626 651 LINE",
"622 710 LINE",
"622 710 OFFCURVE",
"544 705 OFFCURVE",
"484 705 CURVE SMOOTH"
);
},
{
closed = 1;
nodes = (
"288 710 LINE",
"288 710 OFFCURVE",
"210 705 OFFCURVE",
"150 705 CURVE SMOOTH",
"130 705 OFFCURVE",
"35 710 OFFCURVE",
"35 710 CURVE",
"30 656 LINE",
"107 644 LINE",
"109 631 OFFCURVE",
"116 585 OFFCURVE",
"116 568 CURVE SMOOTH",
"116 137 LINE SMOOTH",
"116 120 OFFCURVE",
"109 74 OFFCURVE",
"107 61 CURVE",
"28 45 LINE",
"33 -5 LINE",
"33 -5 OFFCURVE",
"143 0 OFFCURVE",
"168 0 CURVE",
"297 0 LINE",
"304 54 LINE",
"214 61 LINE",
"212 75 OFFCURVE",
"207 125 OFFCURVE",
"207 167 CURVE SMOOTH",
"207 538 LINE SMOOTH",
"207 580 OFFCURVE",
"212 630 OFFCURVE",
"214 644 CURVE",
"292 651 LINE"
);
}
);
width = 689;
},
{
anchors = (
{
name = bottom;
position = "{354, 0}";
},
{
name = top;
position = "{354, 720}";
}
);
background = {
paths = (
{
closed = 1;
nodes = (
"421 710 CURVE",
"416 635 LINE",
"447 629 LINE",
"419 577 LINE",
"257 353 LINE",
"257 353 OFFCURVE",
"386 188 OFFCURVE",
"407 164 CURVE",
"421 145 OFFCURVE",
"448 102 OFFCURVE",
"466 73 CURVE",
"427 65 LINE",
"432 -5 LINE",
"432 -5 OFFCURVE",
"542 0 OFFCURVE",
"592 0 CURVE",
"729 0 LINE",
"734 71 LINE",
"686 77 LINE",
"666 95 OFFCURVE",
"641 117 OFFCURVE",
"631 129 CURVE",
"564 209 OFFCURVE",
"494 290 OFFCURVE",
"426 370 CURVE",
"555 546 LINE",
"576 569 OFFCURVE",
"606 599 OFFCURVE",
"631 623 CURVE",
"689 629 LINE",
"684 710 LINE",
"684 710 OFFCURVE",
"598 705 OFFCURVE",
"518 705 CURVE SMOOTH",
"488 705 OFFCURVE",
"421 710 OFFCURVE"
);
},
{
closed = 1;
nodes = (
"323 710 LINE",
"323 710 OFFCURVE",
"229 705 OFFCURVE",
"149 705 CURVE SMOOTH",
"119 705 OFFCURVE",
"29 710 OFFCURVE",
"29 710 CURVE",
"24 635 LINE",
"89 623 LINE",
"91 607 OFFCURVE",
"98 562 OFFCURVE",
"98 512 CURVE SMOOTH",
"98 163 LINE SMOOTH",
"98 143 OFFCURVE",
"90 87 OFFCURVE",
"89 77 CURVE",
"23 65 LINE",
"28 -5 LINE",
"28 -5 OFFCURVE",
"148 0 OFFCURVE",
"178 0 CURVE",
"322 0 LINE",
"327 71 LINE",
"262 77 LINE",
"260 91 OFFCURVE",
"253 143 OFFCURVE",
"253 193 CURVE SMOOTH",
"253 542 LINE SMOOTH",
"253 562 OFFCURVE",
"259 608 OFFCURVE",
"262 623 CURVE",
"328 629 LINE"
);
}
);
};
layerId = "16643525-C5DD-48EC-8E99-463BF28F5E85";
paths = (
{
closed = 1;
nodes = (
"488 705 OFFCURVE",
"421 710 OFFCURVE",
"421 710 CURVE",
"416 635 LINE",
"447 629 LINE",
"419 577 LINE SMOOTH",
"257 353 LINE",
"257 353 OFFCURVE",
"386 188 OFFCURVE",
"407 164 CURVE",
"421 145 OFFCURVE",
"448 102 OFFCURVE",
"466 73 CURVE",
"427 65 LINE",
"432 -5 LINE",
"432 -5 OFFCURVE",
"542 0 OFFCURVE",
"592 0 CURVE",
"729 0 LINE",
"734 71 LINE",
"686 77 LINE",
"666 95 OFFCURVE",
"641 117 OFFCURVE",
"631 129 CURVE",
"564 209 OFFCURVE",
"494 290 OFFCURVE",
"426 370 CURVE",
"555 546 LINE",
"576 569 OFFCURVE",
"606 599 OFFCURVE",
"631 623 CURVE",
"689 629 LINE",
"684 710 LINE",
"684 710 OFFCURVE",
"598 705 OFFCURVE",
"518 705 CURVE SMOOTH"
);
},
{
closed = 1;
nodes = (
"323 710 LINE",
"323 710 OFFCURVE",
"229 705 OFFCURVE",
"149 705 CURVE SMOOTH",
"119 705 OFFCURVE",
"29 710 OFFCURVE",
"29 710 CURVE",
"24 635 LINE",
"89 623 LINE",
"91 607 OFFCURVE",
"98 562 OFFCURVE",
"98 542 CURVE SMOOTH",
"98 163 LINE SMOOTH",
"98 143 OFFCURVE",
"90 87 OFFCURVE",
"89 77 CURVE",
"23 65 LINE",
"28 -5 LINE",
"28 -5 OFFCURVE",
"148 0 OFFCURVE",
"178 0 CURVE",
"322 0 LINE",
"327 71 LINE",
"262 77 LINE",
"260 91 OFFCURVE",
"253 153 OFFCURVE",
"253 193 CURVE SMOOTH",
"253 512 LINE SMOOTH",
"253 552 OFFCURVE",
"259 608 OFFCURVE",
"262 623 CURVE",
"328 629 LINE"
);
}
);
width = 745;
},
{
anchors = (
{
name = bottom;
position = "{316, 0}";
},
{
name = top;
position = "{231, 720}";
}
);
background = {
paths = (
{
closed = 1;
nodes = (
"631 54 LINE",
"565 61 LINE",
"545 81 OFFCURVE",
"513 113 OFFCURVE",
"501 129 CURVE",
"446 209 OFFCURVE",
"388 290 OFFCURVE",
"332 370 CURVE",
"492 546 LINE",
"525 576 OFFCURVE",
"569 620 OFFCURVE",
"598 644 CURVE",
"672 651 LINE",
"676 710 LINE",
"676 710 OFFCURVE",
"611 705 OFFCURVE",
"551 705 CURVE SMOOTH",
"531 705 OFFCURVE",
"449 710 OFFCURVE",
"449 710 CURVE",
"436 656 LINE",
"486 645 LINE",
"439 577 LINE",
"231 353 LINE",
"231 353 OFFCURVE",
"346 188 OFFCURVE",
"362 164 CURVE",
"376 142 OFFCURVE",
"403 85 OFFCURVE",
"415 59 CURVE",
"356 45 LINE",
"354 -5 LINE",
"354 -5 OFFCURVE",
"464 0 OFFCURVE",
"489 0 CURVE SMOOTH",
"568 0 OFFCURVE",
"617 0 OFFCURVE",
"617 0 CURVE"
);
},
{
closed = 1;
nodes = (
"352 710 LINE",
"352 710 OFFCURVE",
"280 705 OFFCURVE",
"220 705 CURVE SMOOTH",
"200 705 OFFCURVE",
"105 710 OFFCURVE",
"105 710 CURVE",
"92 656 LINE",
"165 644 LINE",
"165 631 OFFCURVE",
"165 585 OFFCURVE",
"162 568 CURVE SMOOTH",
"99 137 LINE SMOOTH",
"97 120 OFFCURVE",
"83 74 OFFCURVE",
"80 61 CURVE",
"1 45 LINE",
"-1 -5 LINE",
"-1 -5 OFFCURVE",
"109 0 OFFCURVE",
"134 0 CURVE SMOOTH",
"213 0 OFFCURVE",
"257 0 OFFCURVE",
"257 0 CURVE",
"271 54 LINE",
"186 61 LINE",
"186 75 OFFCURVE",
"189 125 OFFCURVE",
"195 167 CURVE SMOOTH",
"249 538 LINE SMOOTH",
"255 580 OFFCURVE",
"267 630 OFFCURVE",
"271 644 CURVE",
"347 651 LINE"
);
}
);
};
layerId = "08C09966-8326-41C9-AE3D-74AAC6FC1D13";
paths = (
{
closed = 1;
nodes = (
"631 54 LINE",
"565 61 LINE",
"545 81 OFFCURVE",
"513 113 OFFCURVE",
"501 129 CURVE",
"446 209 OFFCURVE",
"388 290 OFFCURVE",
"332 370 CURVE",
"492 546 LINE",
"525 576 OFFCURVE",
"569 620 OFFCURVE",
"598 644 CURVE",
"672 651 LINE",
"676 710 LINE",
"676 710 OFFCURVE",
"611 705 OFFCURVE",
"551 705 CURVE SMOOTH",
"531 705 OFFCURVE",
"449 710 OFFCURVE",
"449 710 CURVE",
"436 656 LINE",
"486 645 LINE",
"439 577 LINE",
"231 353 LINE",
"231 353 OFFCURVE",
"346 188 OFFCURVE",
"362 164 CURVE",
"376 142 OFFCURVE",
"403 85 OFFCURVE",
"415 59 CURVE",
"356 45 LINE",
"354 -5 LINE",
"354 -5 OFFCURVE",
"464 0 OFFCURVE",
"489 0 CURVE SMOOTH",
"568 0 OFFCURVE",
"617 0 OFFCURVE",
"617 0 CURVE"
);
},
{
closed = 1;
nodes = (
"352 710 LINE",
"352 710 OFFCURVE",
"280 705 OFFCURVE",
"220 705 CURVE SMOOTH",
"200 705 OFFCURVE",
"105 710 OFFCURVE",
"105 710 CURVE",
"92 656 LINE",
"165 644 LINE",
"165 631 OFFCURVE",
"164 583 OFFCURVE",
"162 568 CURVE SMOOTH",
"99 137 LINE SMOOTH",
"97 122 OFFCURVE",
"83 74 OFFCURVE",
"80 61 CURVE",
"1 45 LINE",
"-1 -5 LINE",
"-1 -5 OFFCURVE",
"109 0 OFFCURVE",
"134 0 CURVE SMOOTH",
"213 0 OFFCURVE",
"257 0 OFFCURVE",
"257 0 CURVE",
"271 54 LINE",
"186 61 LINE",
"186 75 OFFCURVE",
"191 137 OFFCURVE",
"195 167 CURVE SMOOTH",
"249 538 LINE SMOOTH",
"253 568 OFFCURVE",
"267 630 OFFCURVE",
"271 644 CURVE",
"347 651 LINE"
);
}
);
width = 674;
},
{
anchors = (
{
name = bottom;
position = "{327, 0}";
},
{
name = top;
position = "{246, 720}";
}
);
background = {
paths = (
{
closed = 0;
nodes = (
"432 73 LINE",
"393 65 LINE",
"398 -5 LINE",
"398 -5 OFFCURVE",
"508 0 OFFCURVE",
"558 0 CURVE",
"695 0 LINE",
"700 71 LINE",
"652 77 LINE"
);
}
);
};
layerId = "B953D09C-6DD0-450A-A78C-8C2188DD4016";
paths = (
{
closed = 1;
nodes = (
"696 71 LINE",
"652 77 LINE",
"636 94 OFFCURVE",
"616 117 OFFCURVE",
"608 129 CURVE SMOOTH",
"445 370 LINE",
"596 546 LINE SMOOTH",
"617 570 OFFCURVE",
"651 600 OFFCURVE",
"679 623 CURVE",
"734 629 LINE",
"741 710 LINE",
"741 710 OFFCURVE",
"674 705 OFFCURVE",
"604 705 CURVE SMOOTH",
"574 705 OFFCURVE",
"484 710 OFFCURVE",
"484 710 CURVE",
"468 635 LINE",
"496 629 LINE",
"486 612 OFFCURVE",
"476 593 OFFCURVE",
"462 577 CURVE SMOOTH",
"274 353 LINE",
"390 164 LINE SMOOTH",
"402 145 OFFCURVE",
"423 98 OFFCURVE",
"434 73 CURVE",
"396 65 LINE",
"391 -5 LINE",
"391 -5 OFFCURVE",
"511 0 OFFCURVE",
"541 0 CURVE SMOOTH",
"652 0 OFFCURVE",
"681 0 OFFCURVE",
"681 0 CURVE"
);
},
{
closed = 1;
nodes = (
"389 710 LINE",
"389 710 OFFCURVE",
"301 705 OFFCURVE",
"221 705 CURVE SMOOTH",
"191 705 OFFCURVE",
"101 710 OFFCURVE",
"101 710 CURVE",
"85 635 LINE",
"146 623 LINE",
"146 608 OFFCURVE",
"145 562 OFFCURVE",
"138 512 CURVE SMOOTH",
"87 163 LINE SMOOTH",
"84 143 OFFCURVE",
"71 92 OFFCURVE",
"66 77 CURVE",
"1 65 LINE",
"-4 -5 LINE",
"-4 -5 OFFCURVE",
"116 0 OFFCURVE",
"146 0 CURVE",
"284 0 LINE",
"299 70 LINE",
"238 77 LINE",
"238 92 OFFCURVE",
"239 143 OFFCURVE",
"247 193 CURVE SMOOTH",
"297 542 LINE SMOOTH",
"300 562 OFFCURVE",
"313 608 OFFCURVE",
"318 623 CURVE",
"382 629 LINE"
);
}
);
width = 735;
}
);
leftKerningGroup = H;
rightKerningGroup = X;
unicode = 004B;
},
{
color = 0;
glyphname = L;
lastChange = "2018-05-16 11:34:52 +0000";
layers = (
{
anchors = (
{
name = bottom;
position = "{253, 0}";
},
{
name = middle;
position = "{373, 382}";
},
{
name = top;
position = "{164, 720}";
}
);
background = {
paths = (
{
closed = 1;
nodes = (
"104 705 OFFCURVE",
"9 710 OFFCURVE",
"9 710 CURVE",
"4 656 LINE",
"81 644 LINE",
"83 631 OFFCURVE",
"90 585 OFFCURVE",
"90 568 CURVE SMOOTH",
"90 137 LINE SMOOTH",
"90 120 OFFCURVE",
"83 74 OFFCURVE",
"81 61 CURVE",
"2 45 LINE",
"7 -5 LINE",
"7 -5 OFFCURVE",
"117 0 OFFCURVE",
"142 0 CURVE SMOOTH",
"362 0 LINE SMOOTH",
"382 0 OFFCURVE",
"476 -4 OFFCURVE",
"476 -4 CURVE",
"495 14 LINE",
"510 165 LINE",
"455 170 LINE",
"453 154 OFFCURVE",
"443 118 OFFCURVE",
"440 103 CURVE SMOOTH",
"438 94 OFFCURVE",
"429 80 OFFCURVE",
"419 66 CURVE",
"397 62 OFFCURVE",
"363 57 OFFCURVE",
"332 57 CURVE SMOOTH",
"188 57 LINE",
"186 76 OFFCURVE",
"181 127 OFFCURVE",
"181 167 CURVE SMOOTH",
"181 338 LINE",
"277 338 LINE",
"297 338 OFFCURVE",
"357 332 OFFCURVE",
"357 332 CURVE",
"366 265 LINE",
"414 271 LINE",
"414 271 OFFCURVE",
"411 330 OFFCURVE",
"411 380 CURVE SMOOTH",
"411 400 OFFCURVE",
"412 464 OFFCURVE",
"412 464 CURVE",
"366 469 LINE",
"357 403 LINE",
"357 403 OFFCURVE",
"317 394 OFFCURVE",
"297 394 CURVE",
"181 394 LINE",
"181 538 LINE SMOOTH",
"181 577 OFFCURVE",
"186 628 OFFCURVE",
"188 649 CURVE",
"319 649 LINE SMOOTH",
"347 649 OFFCURVE",
"378 646 OFFCURVE",
"400 644 CURVE",
"410 631 OFFCURVE",
"419 617 OFFCURVE",
"420 610 CURVE",
"424 595 OFFCURVE",
"429 572 OFFCURVE",
"431 556 CURVE",
"489 561 LINE",
"482 697 LINE",
"463 715 LINE",
"463 715 OFFCURVE",
"369 705 OFFCURVE",
"349 705 CURVE SMOOTH",
"124 705 LINE SMOOTH"
);
}
);
};
layerId = UUID0;
paths = (
{
closed = 1;
nodes = (
"130 705 OFFCURVE",
"35 710 OFFCURVE",
"35 710 CURVE",
"30 656 LINE",
"107 644 LINE",
"109 631 OFFCURVE",
"116 585 OFFCURVE",
"116 568 CURVE SMOOTH",
"116 137 LINE SMOOTH",
"116 120 OFFCURVE",
"109 74 OFFCURVE",
"107 61 CURVE",
"28 45 LINE",
"33 -5 LINE",
"33 -5 OFFCURVE",
"143 0 OFFCURVE",
"168 0 CURVE SMOOTH",
"362 0 LINE SMOOTH",
"382 0 OFFCURVE",
"476 -4 OFFCURVE",
"476 -4 CURVE",
"495 14 LINE",
"510 165 LINE",
"455 170 LINE",
"453 154 OFFCURVE",
"444 118 OFFCURVE",
"440 103 CURVE",
"439 96 OFFCURVE",
"429 80 OFFCURVE",
"419 66 CURVE",
"397 62 OFFCURVE",
"363 57 OFFCURVE",
"332 57 CURVE SMOOTH",
"214 57 LINE",
"212 72 OFFCURVE",
"207 126 OFFCURVE",
"207 167 CURVE SMOOTH",
"207 538 LINE SMOOTH",
"207 580 OFFCURVE",
"212 630 OFFCURVE",
"214 644 CURVE",
"302 651 LINE",
"298 710 LINE",
"298 710 OFFCURVE",
"210 705 OFFCURVE",
"150 705 CURVE SMOOTH"
);
}
);
width = 533;
},
{
anchors = (
{
name = bottom;
position = "{261, 0}";
},
{
name = middle;
position = "{414, 382}";
},
{
name = top;
position = "{161, 720}";
}
);
background = {
paths = (
{
closed = 1;
nodes = (
"29 710 CURVE",
"24 635 LINE",
"89 623 LINE",
"91 607 OFFCURVE",
"98 562 OFFCURVE",
"98 512 CURVE SMOOTH",
"98 163 LINE SMOOTH",
"98 143 OFFCURVE",
"90 87 OFFCURVE",
"89 77 CURVE",
"23 65 LINE",
"28 -5 LINE",
"28 -5 OFFCURVE",
"148 0 OFFCURVE",
"178 0 CURVE SMOOTH",
"385 0 LINE SMOOTH",
"405 0 OFFCURVE",
"499 -4 OFFCURVE",
"499 -4 CURVE",
"518 14 LINE",
"533 190 LINE",
"463 195 LINE",
"461 179 OFFCURVE",
"455 153 OFFCURVE",
"451 138 CURVE",
"450 132 OFFCURVE",
"441 114 OFFCURVE",
"432 95 CURVE",
"413 91 OFFCURVE",
"384 87 OFFCURVE",
"355 87 CURVE SMOOTH",
"261 87 LINE",
"258 108 OFFCURVE",
"253 151 OFFCURVE",
"253 193 CURVE SMOOTH",
"253 542 LINE SMOOTH",
"253 562 OFFCURVE",
"259 608 OFFCURVE",
"262 623 CURVE",
"338 629 LINE",
"333 710 LINE",
"333 710 OFFCURVE",
"229 705 OFFCURVE",
"149 705 CURVE SMOOTH",
"119 705 OFFCURVE",
"29 710 OFFCURVE"
);
}
);
};
layerId = "16643525-C5DD-48EC-8E99-463BF28F5E85";
paths = (
{
closed = 1;
nodes = (
"178 0 LINE",
"385 0 LINE SMOOTH",
"405 0 OFFCURVE",
"499 -4 OFFCURVE",
"499 -4 CURVE",
"518 14 LINE",
"533 190 LINE",
"463 195 LINE",
"461 179 OFFCURVE",
"455 153 OFFCURVE",
"451 138 CURVE",
"450 132 OFFCURVE",
"441 114 OFFCURVE",
"432 95 CURVE",
"413 91 OFFCURVE",
"384 87 OFFCURVE",
"355 87 CURVE SMOOTH",
"171 87 LINE"
);
},
{
closed = 1;
nodes = (
"333 710 LINE",
"333 710 OFFCURVE",
"229 705 OFFCURVE",
"149 705 CURVE SMOOTH",
"119 705 OFFCURVE",
"29 710 OFFCURVE",
"29 710 CURVE",
"24 635 LINE",
"89 623 LINE",
"91 607 OFFCURVE",
"98 562 OFFCURVE",
"98 542 CURVE SMOOTH",
"98 163 LINE SMOOTH",
"98 143 OFFCURVE",
"90 87 OFFCURVE",
"89 77 CURVE",
"23 65 LINE",
"28 -5 LINE",
"28 -5 OFFCURVE",
"148 0 OFFCURVE",
"178 0 CURVE",
"262 77 LINE",
"260 91 OFFCURVE",
"253 153 OFFCURVE",
"253 193 CURVE SMOOTH",
"253 512 LINE SMOOTH",
"253 552 OFFCURVE",
"259 608 OFFCURVE",
"262 623 CURVE",
"338 629 LINE"
);
}
);
width = 548;
},
{
anchors = (
{
name = bottom;
position = "{240, 0}";
},
{
name = middle;
position = "{371, 382}";
},
{
name = top;
position = "{232, 720}";
}
);
background = {
paths = (
{
closed = 1;
nodes = (
"108 0 LINE",
"319 0 LINE SMOOTH",
"339 0 OFFCURVE",
"429 -4 OFFCURVE",
"429 -4 CURVE",
"450 14 LINE",
"487 165 LINE",
"434 170 LINE",
"429 154 OFFCURVE",
"416 118 OFFCURVE",
"409 103 CURVE SMOOTH",
"405 94 OFFCURVE",
"395 80 OFFCURVE",
"384 66 CURVE",
"362 62 OFFCURVE",
"328 57 OFFCURVE",
"298 57 CURVE SMOOTH",
"160 57 LINE"
);
},
{
closed = 1;
nodes = (
"352 710 LINE",
"352 710 OFFCURVE",
"280 705 OFFCURVE",
"220 705 CURVE SMOOTH",
"200 705 OFFCURVE",
"105 710 OFFCURVE",
"105 710 CURVE",
"92 656 LINE",
"165 644 LINE",
"165 631 OFFCURVE",
"165 585 OFFCURVE",
"162 568 CURVE SMOOTH",
"99 137 LINE SMOOTH",
"97 120 OFFCURVE",
"83 74 OFFCURVE",
"80 61 CURVE",
"1 45 LINE",
"-1 -5 LINE",
"-1 -5 OFFCURVE",
"109 0 OFFCURVE",
"134 0 CURVE",
"185 56 LINE",
"185 70 OFFCURVE",
"189 125 OFFCURVE",
"195 167 CURVE SMOOTH",
"249 538 LINE SMOOTH",
"255 580 OFFCURVE",
"267 630 OFFCURVE",
"271 644 CURVE",
"347 651 LINE"
);
}
);
};
layerId = "08C09966-8326-41C9-AE3D-74AAC6FC1D13";
paths = (
{
closed = 1;
nodes = (
"134 0 LINE",
"319 0 LINE SMOOTH",
"339 0 OFFCURVE",
"429 -4 OFFCURVE",
"429 -4 CURVE",
"450 14 LINE",
"487 165 LINE",
"434 170 LINE",
"429 154 OFFCURVE",
"416 118 OFFCURVE",
"409 103 CURVE SMOOTH",
"405 94 OFFCURVE",
"395 80 OFFCURVE",
"384 66 CURVE",
"362 62 OFFCURVE",
"328 57 OFFCURVE",
"298 57 CURVE SMOOTH",
"186 57 LINE"
);
},
{
closed = 1;
nodes = (
"352 710 LINE",
"352 710 OFFCURVE",
"280 705 OFFCURVE",
"220 705 CURVE SMOOTH",
"200 705 OFFCURVE",
"105 710 OFFCURVE",
"105 710 CURVE",
"92 656 LINE",
"165 644 LINE",
"165 631 OFFCURVE",
"164 583 OFFCURVE",
"162 568 CURVE SMOOTH",
"99 137 LINE SMOOTH",
"97 122 OFFCURVE",
"83 74 OFFCURVE",
"80 61 CURVE",
"1 45 LINE",
"-1 -5 LINE",
"-1 -5 OFFCURVE",
"109 0 OFFCURVE",
"134 0 CURVE",
"186 57 LINE",
"186 71 OFFCURVE",
"191 137 OFFCURVE",
"195 167 CURVE SMOOTH",
"249 538 LINE SMOOTH",
"253 568 OFFCURVE",
"267 630 OFFCURVE",
"271 644 CURVE",
"347 651 LINE"
);
}
);
width = 522;
},
{
anchors = (
{
name = bottom;
position = "{266, 0}";
},
{
name = middle;
position = "{426, 382}";
},
{
name = top;
position = "{242, 720}";
}
);
background = {
paths = (
{
closed = 1;
nodes = (
"146 0 LINE",
"345 0 LINE SMOOTH",
"364 0 OFFCURVE",
"455 -4 OFFCURVE",
"455 -4 CURVE",
"476 14 LINE",
"516 190 LINE",
"448 195 LINE",
"444 179 OFFCURVE",
"434 153 OFFCURVE",
"428 138 CURVE",
"426 132 OFFCURVE",
"415 114 OFFCURVE",
"404 95 CURVE",
"385 91 OFFCURVE",
"357 87 OFFCURVE",
"329 87 CURVE SMOOTH",
"199 87 LINE"
);
},
{
closed = 1;
nodes = (
"399 710 LINE",
"399 710 OFFCURVE",
"301 705 OFFCURVE",
"221 705 CURVE SMOOTH",
"191 705 OFFCURVE",
"101 710 OFFCURVE",
"101 710 CURVE",
"85 635 LINE",
"146 623 LINE",
"145 607 OFFCURVE",
"145 562 OFFCURVE",
"138 512 CURVE SMOOTH",
"87 163 LINE SMOOTH",
"84 143 OFFCURVE",
"69 87 OFFCURVE",
"66 77 CURVE",
"1 65 LINE",
"-4 -5 LINE",
"-4 -5 OFFCURVE",
"116 0 OFFCURVE",
"146 0 CURVE",
"238 77 LINE",
"238 91 OFFCURVE",
"239 143 OFFCURVE",
"247 193 CURVE SMOOTH",
"297 542 LINE SMOOTH",
"300 562 OFFCURVE",
"313 608 OFFCURVE",
"318 623 CURVE",
"392 629 LINE"
);
}
);
};
layerId = "B953D09C-6DD0-450A-A78C-8C2188DD4016";
paths = (
{
closed = 1;
nodes = (
"146 0 LINE",
"345 0 LINE SMOOTH",
"364 0 OFFCURVE",
"455 -4 OFFCURVE",
"455 -4 CURVE",
"476 14 LINE",
"516 190 LINE",
"448 195 LINE",
"444 179 OFFCURVE",
"434 153 OFFCURVE",
"428 138 CURVE",
"426 132 OFFCURVE",
"415 114 OFFCURVE",
"404 95 CURVE",
"385 91 OFFCURVE",
"357 87 OFFCURVE",
"329 87 CURVE SMOOTH",
"199 87 LINE"
);
},
{
closed = 1;
nodes = (
"399 710 LINE",
"399 710 OFFCURVE",
"301 705 OFFCURVE",
"221 705 CURVE SMOOTH",
"191 705 OFFCURVE",
"101 710 OFFCURVE",
"101 710 CURVE",
"85 635 LINE",
"146 623 LINE",
"146 608 OFFCURVE",
"145 562 OFFCURVE",
"138 512 CURVE SMOOTH",
"87 163 LINE SMOOTH",
"84 143 OFFCURVE",
"71 92 OFFCURVE",
"66 77 CURVE",
"1 65 LINE",
"-4 -5 LINE",
"-4 -5 OFFCURVE",
"116 0 OFFCURVE",
"146 0 CURVE",
"238 77 LINE",
"238 92 OFFCURVE",
"239 143 OFFCURVE",
"247 193 CURVE SMOOTH",
"297 542 LINE SMOOTH",
"300 562 OFFCURVE",
"313 608 OFFCURVE",
"318 623 CURVE",
"392 629 LINE"
);
}
);
width = 544;
}
);
leftKerningGroup = H;
rightKerningGroup = L;
unicode = 004C;
},
{
color = 1;
glyphname = Lcaron;
lastChange = "2018-05-16 11:35:16 +0000";
layers = (
{
background = {
paths = (
{
closed = 1;
nodes = (
"437 607 LINE",
"424 364 LINE",
"366 367 LINE",
"367 461 LINE",
"366 480 OFFCURVE",
"348 607 OFFCURVE",
"348 607 CURVE"
);
}
);
};
components = (
{
name = L;
},
{
name = caron.alt;
transform = "{1, 0, 0, 1, 356, 0}";
}
);
layerId = UUID0;
width = 533;
},
{
components = (
{
name = L;
},
{
name = caron.alt;
transform = "{1, 0, 0, 1, 365, 0}";
}
);
layerId = "16643525-C5DD-48EC-8E99-463BF28F5E85";
width = 548;
},
{
components = (
{
name = L;
},
{
name = caron.alt;
transform = "{1, 0, 0, 1, 361, 0}";
}
);
layerId = "08C09966-8326-41C9-AE3D-74AAC6FC1D13";
width = 519;
},
{
components = (
{
name = L;
},
{
name = caron.alt;
transform = "{1, 0, 0, 1, 395, 0}";
}
);
layerId = "B953D09C-6DD0-450A-A78C-8C2188DD4016";
width = 550;
}
);
leftKerningGroup = H;
rightKerningGroup = L;
unicode = 013D;
},
{
glyphname = Ldot;
lastChange = "2018-05-16 11:26:16 +0000";
layers = (
{
background = {
paths = (
{
closed = 1;
nodes = (
"422 480 OFFCURVE",
"446 454 OFFCURVE",
"446 410 CURVE SMOOTH",
"446 369 OFFCURVE",
"423 341 OFFCURVE",
"382 341 CURVE SMOOTH",
"341 341 OFFCURVE",
"318 369 OFFCURVE",
"318 410 CURVE SMOOTH",
"318 451 OFFCURVE",
"341 480 OFFCURVE",
"382 480 CURVE SMOOTH"
);
}
);
};
components = (
{
name = L;
},
{
name = dotaccentcomb;
transform = "{1, 0, 0, 1, 193, -272}";
}
);
layerId = UUID0;
width = 533;
},
{
background = {
paths = (
{
closed = 1;
nodes = (
"481 470 OFFCURVE",
"511 438 OFFCURVE",
"511 385 CURVE SMOOTH",
"511 335 OFFCURVE",
"482 301 OFFCURVE",
"432 301 CURVE SMOOTH",
"382 301 OFFCURVE",
"353 335 OFFCURVE",
"353 385 CURVE SMOOTH",
"353 435 OFFCURVE",
"382 470 OFFCURVE",
"432 470 CURVE SMOOTH"
);
}
);
};
components = (
{
name = L;
},
{
name = dotaccentcomb;
transform = "{1, 0, 0, 1, 278, -272}";
}
);
layerId = "16643525-C5DD-48EC-8E99-463BF28F5E85";
width = 548;
},
{
background = {
paths = (
{
closed = 1;
nodes = (
"474 480 OFFCURVE",
"494 459 OFFCURVE",
"494 423 CURVE SMOOTH",
"494 375 OFFCURVE",
"465 341 OFFCURVE",
"421 341 CURVE SMOOTH",
"386 341 OFFCURVE",
"367 364 OFFCURVE",
"367 398 CURVE SMOOTH",
"367 445 OFFCURVE",
"396 480 OFFCURVE",
"441 480 CURVE SMOOTH"
);
}
);
};
components = (
{
name = L;
},
{
name = dotaccentcomb;
transform = "{1, 0, 0, 1, 137, -273}";
}
);
layerId = "08C09966-8326-41C9-AE3D-74AAC6FC1D13";
width = 522;
},
{
background = {
paths = (
{
closed = 1;
nodes = (
"510 496 OFFCURVE",
"534 470 OFFCURVE",
"534 426 CURVE SMOOTH",
"534 369 OFFCURVE",
"499 327 OFFCURVE",
"443 327 CURVE SMOOTH",
"401 327 OFFCURVE",
"377 355 OFFCURVE",
"377 397 CURVE SMOOTH",
"377 454 OFFCURVE",
"413 496 OFFCURVE",
"468 496 CURVE SMOOTH"
);
}
);
};
components = (
{
name = L;
},
{
name = dotaccentcomb;
transform = "{1, 0, 0, 1, 191, -274}";
}
);
layerId = "B953D09C-6DD0-450A-A78C-8C2188DD4016";
width = 544;
}
);
leftKerningGroup = H;
rightKerningGroup = L;
unicode = 013F;
},
{
color = 1;
glyphname = Lslash;
lastChange = "2018-05-16 11:35:16 +0000";
layers = (
{
background = {
paths = (
{
closed = 1;
nodes = (
"361 500 LINE",
"31 380 LINE",
"46 339 LINE",
"376 459 LINE"
);
}
);
};
components = (
{
name = L;
transform = "{1, 0, 0, 1, 1, 0}";
}
);
layerId = UUID0;
paths = (
{
closed = 1;
nodes = (
"34 371 LINE",
"49 329 LINE",
"367 445 LINE",
"357 488 LINE"
);
}
);
width = 543;
},
{
background = {
paths = (
{
closed = 1;
nodes = (
"462 494 LINE",
"50 344 LINE",
"72 284 LINE",
"484 434 LINE"
);
}
);
};
components = (
{
name = L;
transform = "{1, 0, 0, 1, 24, 0}";
}
);
layerId = "16643525-C5DD-48EC-8E99-463BF28F5E85";
paths = (
{
closed = 1;
nodes = (
"14 375 LINE",
"36 315 LINE",
"433 459 LINE",
"420 523 LINE"
);
}
);
width = 583;
},
{
background = {
paths = (
{
closed = 1;
nodes = (
"422 500 LINE",
"84 380 LINE",
"93 339 LINE",
"431 459 LINE"
);
}
);
};
components = (
{
name = L;
}
);
layerId = "08C09966-8326-41C9-AE3D-74AAC6FC1D13";
paths = (
{
closed = 1;
nodes = (
"38 371 LINE",
"47 329 LINE",
"381 445 LINE",
"377 488 LINE"
);
}
);
width = 519;
},
{
background = {
paths = (
{
closed = 1;
nodes = (
"439 494 LINE",
"17 344 LINE",
"30 284 LINE",
"451 434 LINE"
);
}
);
};
components = (
{
name = L;
}
);
layerId = "B953D09C-6DD0-450A-A78C-8C2188DD4016";
paths = (
{
closed = 1;
nodes = (
"-4 375 LINE",
"9 315 LINE",
"427 459 LINE",
"423 523 LINE"
);
}
);
width = 550;
}
);
leftKerningGroup = H;
rightKerningGroup = L;
unicode = 0141;
},
{
color = 0;
glyphname = M;
lastChange = "2018-05-16 11:34:52 +0000";
layers = (
{
anchors = (
{
name = bottom;
position = "{444, 0}";
}
);
background = {
paths = (
{
closed = 1;
nodes = (
"663 705 LINE",
"643 685 LINE",
"643 685 OFFCURVE",
"600 559 OFFCURVE",
"590 537 CURVE",
"454 175 LINE",
"321 529 LINE",
"312 553 OFFCURVE",
"269 684 OFFCURVE",
"269 684 CURVE",
"250 705 LINE",
"171 705 LINE",
"151 705 OFFCURVE",
"56 710 OFFCURVE",
"56 710 CURVE",
"51 656 LINE",
"133 644 LINE",
"135 630 OFFCURVE",
"137 586 OFFCURVE",
"137 569 CURVE",
"111 132 LINE",
"108 115 OFFCURVE",
"97 74 OFFCURVE",
"94 61 CURVE",
"16 45 LINE",
"21 -5 LINE",
"21 -5 OFFCURVE",
"122 0 OFFCURVE",
"142 0 CURVE SMOOTH",
"257 0 LINE",
"264 54 LINE",
"183 61 LINE",
"182 77 OFFCURVE",
"178 134 OFFCURVE",
"178 162 CURVE",
"202 584 LINE",
"421 0 LINE",
"457 0 LINE",
"676 584 LINE",
"703 162 LINE",
"703 134 OFFCURVE",
"699 76 OFFCURVE",
"698 61 CURVE",
"621 45 LINE",
"626 -5 LINE",
"626 -5 OFFCURVE",
"736 0 OFFCURVE",
"761 0 CURVE",
"890 0 LINE",
"897 54 LINE",
"815 61 LINE",
"812 74 OFFCURVE",
"802 115 OFFCURVE",
"799 132 CURVE",
"765 569 LINE",
"765 586 OFFCURVE",
"766 632 OFFCURVE",
"768 644 CURVE",
"848 651 LINE",
"844 710 LINE",
"844 710 OFFCURVE",
"749 705 OFFCURVE",
"689 705 CURVE SMOOTH"
);
}
);
};
layerId = UUID0;
paths = (
{
closed = 1;
nodes = (
"663 705 LINE",
"643 685 LINE",
"643 685 OFFCURVE",
"600 559 OFFCURVE",
"590 537 CURVE",
"454 175 LINE",
"321 529 LINE",
"312 553 OFFCURVE",
"269 684 OFFCURVE",
"269 684 CURVE",
"250 705 LINE",
"171 705 LINE",
"151 705 OFFCURVE",
"56 710 OFFCURVE",
"56 710 CURVE",
"51 656 LINE",
"133 644 LINE",
"135 630 OFFCURVE",
"138 586 OFFCURVE",
"137 569 CURVE SMOOTH",
"111 137 LINE SMOOTH",
"110 120 OFFCURVE",
"97 74 OFFCURVE",
"94 61 CURVE",
"16 45 LINE",
"21 -5 LINE",
"21 -5 OFFCURVE",
"122 0 OFFCURVE",
"142 0 CURVE SMOOTH",
"257 0 LINE",
"264 54 LINE",
"183 61 LINE",
"182 77 OFFCURVE",
"176 139 OFFCURVE",
"178 167 CURVE SMOOTH",
"202 584 LINE",
"421 0 LINE",
"457 0 LINE",
"676 584 LINE",
"704 137 LINE SMOOTH",
"706 109 OFFCURVE",
"699 76 OFFCURVE",
"698 61 CURVE",
"621 45 LINE",
"626 -5 LINE",
"626 -5 OFFCURVE",
"736 0 OFFCURVE",
"761 0 CURVE",
"890 0 LINE",
"897 54 LINE",
"815 61 LINE",
"812 74 OFFCURVE",
"797 150 OFFCURVE",
"796 167 CURVE SMOOTH",
"767 538 LINE SMOOTH",
"766 555 OFFCURVE",
"767 602 OFFCURVE",
"768 644 CURVE",
"848 651 LINE",
"844 710 LINE",
"844 710 OFFCURVE",
"749 705 OFFCURVE",
"689 705 CURVE SMOOTH"
);
}
);
width = 912;
},
{
anchors = (
{
name = bottom;
position = "{456, 0}";
}
);
background = {
paths = (
{
closed = 1;
nodes = (
"641 705 LINE",
"621 685 LINE",
"621 685 OFFCURVE",
"588 572 OFFCURVE",
"580 549 CURVE",
"468 221 LINE",
"365 534 LINE",
"353 571 OFFCURVE",
"322 685 OFFCURVE",
"322 685 CURVE",
"302 705 LINE",
"175 705 LINE",
"155 705 OFFCURVE",
"55 710 OFFCURVE",
"55 710 CURVE",
"50 635 LINE",
"117 623 LINE",
"120 605 OFFCURVE",
"123 581 OFFCURVE",
"123 569 CURVE",
"95 132 LINE",
"92 119 OFFCURVE",
"87 95 OFFCURVE",
"82 77 CURVE",
"13 65 LINE",
"18 -5 LINE",
"18 -5 OFFCURVE",
"108 0 OFFCURVE",
"138 0 CURVE",
"273 0 LINE",
"279 71 LINE",
"211 77 LINE",
"209 100 OFFCURVE",
"207 140 OFFCURVE",
"207 162 CURVE",
"226 518 LINE",
"405 0 LINE",
"497 0 LINE",
"681 518 LINE",
"697 162 LINE",
"697 140 OFFCURVE",
"695 100 OFFCURVE",
"693 77 CURVE",
"627 65 LINE",
"632 -5 LINE",
"632 -5 OFFCURVE",
"742 0 OFFCURVE",
"772 0 CURVE",
"914 0 LINE",
"919 71 LINE",
"852 77 LINE",
"848 95 OFFCURVE",
"841 119 OFFCURVE",
"839 132 CURVE",
"807 569 LINE",
"807 582 OFFCURVE",
"808 605 OFFCURVE",
"810 623 CURVE",
"875 629 LINE",
"870 710 LINE",
"870 710 OFFCURVE",
"793 705 OFFCURVE",
"738 705 CURVE SMOOTH"
);
}
);
};
layerId = "16643525-C5DD-48EC-8E99-463BF28F5E85";
paths = (
{
closed = 1;
nodes = (
"641 705 LINE",
"621 685 LINE",
"621 685 OFFCURVE",
"588 572 OFFCURVE",
"580 549 CURVE SMOOTH",
"468 221 LINE",
"365 534 LINE SMOOTH",
"353 571 OFFCURVE",
"322 685 OFFCURVE",
"322 685 CURVE",
"302 705 LINE",
"175 705 LINE",
"155 705 OFFCURVE",
"55 710 OFFCURVE",
"55 710 CURVE",
"50 635 LINE",
"117 623 LINE",
"118 605 OFFCURVE",
"122 562 OFFCURVE",
"121 542 CURVE SMOOTH",
"97 163 LINE SMOOTH",
"96 143 OFFCURVE",
"87 95 OFFCURVE",
"82 77 CURVE",
"13 65 LINE",
"18 -5 LINE",
"18 -5 OFFCURVE",
"108 0 OFFCURVE",
"138 0 CURVE",
"273 0 LINE",
"279 71 LINE",
"211 77 LINE",
"209 100 OFFCURVE",
"207 153 OFFCURVE",
"209 193 CURVE SMOOTH",
"226 518 LINE",
"405 0 LINE",
"497 0 LINE",
"681 518 LINE",
"697 163 LINE SMOOTH",
"698 143 OFFCURVE",
"695 100 OFFCURVE",
"693 77 CURVE",
"627 65 LINE",
"632 -5 LINE",
"632 -5 OFFCURVE",
"742 0 OFFCURVE",
"772 0 CURVE",
"914 0 LINE",
"919 71 LINE",
"852 77 LINE",
"848 95 OFFCURVE",
"838 152 OFFCURVE",
"835 192 CURVE SMOOTH",
"811 512 LINE SMOOTH",
"808 552 OFFCURVE",
"809 595 OFFCURVE",
"810 623 CURVE",
"875 629 LINE",
"870 710 LINE",
"870 710 OFFCURVE",
"793 705 OFFCURVE",
"738 705 CURVE SMOOTH"
);
}
);
width = 932;
},
{
anchors = (
{
name = bottom;
position = "{391, 0}";
}
);
background = {
paths = (
{
closed = 1;
nodes = (
"710 705 LINE",
"688 685 LINE",
"688 685 OFFCURVE",
"628 559 OFFCURVE",
"615 537 CURVE",
"432 175 LINE",
"356 529 LINE",
"350 553 OFFCURVE",
"328 685 OFFCURVE",
"328 685 CURVE",
"313 705 LINE",
"244 705 LINE",
"224 705 OFFCURVE",
"133 710 OFFCURVE",
"128 710 CURVE",
"115 656 LINE",
"188 644 LINE",
"187 630 OFFCURVE",
"184 583 OFFCURVE",
"181 568 CURVE SMOOTH",
"91 132 LINE SMOOTH",
"88 117 OFFCURVE",
"70 74 OFFCURVE",
"65 61 CURVE",
"-13 45 LINE",
"-15 -5 LINE",
"-15 -5 OFFCURVE",
"84 0 OFFCURVE",
"109 0 CURVE",
"215 0 LINE",
"230 54 LINE",
"153 61 LINE",
"154 77 OFFCURVE",
"158 137 OFFCURVE",
"164 167 CURVE SMOOTH",
"247 584 LINE",
"373 0 LINE",
"410 0 LINE",
"706 584 LINE",
"668 137 LINE SMOOTH",
"667 122 OFFCURVE",
"655 76 OFFCURVE",
"651 61 CURVE",
"573 45 LINE",
"571 -5 LINE",
"571 -5 OFFCURVE",
"685 0 OFFCURVE",
"710 0 CURVE",
"829 0 LINE",
"843 54 LINE",
"766 61 LINE",
"765 74 OFFCURVE",
"761 136 OFFCURVE",
"763 166 CURVE SMOOTH",
"790 538 LINE SMOOTH",
"792 568 OFFCURVE",
"803 630 OFFCURVE",
"806 644 CURVE",
"882 651 LINE",
"887 710 LINE",
"887 710 OFFCURVE",
"815 705 OFFCURVE",
"738 705 CURVE SMOOTH"
);
}
);
};
layerId = "08C09966-8326-41C9-AE3D-74AAC6FC1D13";
paths = (
{
closed = 1;
nodes = (
"710 705 LINE",
"688 685 LINE",
"688 685 OFFCURVE",
"628 559 OFFCURVE",
"615 537 CURVE",
"432 175 LINE",
"356 529 LINE",
"350 553 OFFCURVE",
"328 685 OFFCURVE",
"328 685 CURVE",
"313 705 LINE",
"244 705 LINE",
"224 705 OFFCURVE",
"133 710 OFFCURVE",
"128 710 CURVE",
"115 656 LINE",
"188 644 LINE",
"187 630 OFFCURVE",
"184 583 OFFCURVE",
"181 568 CURVE SMOOTH",
"92 137 LINE SMOOTH",
"89 122 OFFCURVE",
"70 74 OFFCURVE",
"65 61 CURVE",
"-13 45 LINE",
"-15 -5 LINE",
"-15 -5 OFFCURVE",
"84 0 OFFCURVE",
"109 0 CURVE",
"215 0 LINE",
"230 54 LINE",
"153 61 LINE",
"154 77 OFFCURVE",
"158 137 OFFCURVE",
"164 167 CURVE SMOOTH",
"247 584 LINE",
"373 0 LINE",
"410 0 LINE",
"706 584 LINE",
"668 137 LINE SMOOTH",
"667 122 OFFCURVE",
"655 76 OFFCURVE",
"651 61 CURVE",
"573 45 LINE",
"571 -5 LINE",
"571 -5 OFFCURVE",
"685 0 OFFCURVE",
"710 0 CURVE",
"829 0 LINE",
"843 54 LINE",
"766 61 LINE",
"765 74 OFFCURVE",
"761 136 OFFCURVE",
"763 166 CURVE SMOOTH",
"790 538 LINE SMOOTH",
"792 568 OFFCURVE",
"803 630 OFFCURVE",
"806 644 CURVE",
"882 651 LINE",
"887 710 LINE",
"887 710 OFFCURVE",
"815 705 OFFCURVE",
"738 705 CURVE SMOOTH"
);
}
);
width = 886;
},
{
anchors = (
{
name = bottom;
position = "{394, 0}";
}
);
background = {
paths = (
{
closed = 1;
nodes = (
"684 705 LINE",
"662 685 LINE",
"662 685 OFFCURVE",
"614 572 OFFCURVE",
"603 549 CURVE",
"448 221 LINE",
"396 534 LINE",
"390 571 OFFCURVE",
"377 685 OFFCURVE",
"377 685 CURVE",
"361 705 LINE",
"218 705 LINE",
"175 705 OFFCURVE",
"118 710 OFFCURVE",
"118 710 CURVE",
"103 638 LINE",
"165 626 LINE",
"165 608 OFFCURVE",
"164 581 OFFCURVE",
"163 569 CURVE",
"71 132 LINE",
"67 119 OFFCURVE",
"57 92 OFFCURVE",
"50 74 CURVE",
"-17 62 LINE",
"-22 -5 LINE",
"-22 -5 OFFCURVE",
"34 0 OFFCURVE",
"76 0 CURVE SMOOTH",
"183 0 OFFCURVE",
"226 -5 OFFCURVE",
"226 -5 CURVE",
"243 68 LINE",
"179 74 LINE",
"180 97 OFFCURVE",
"184 140 OFFCURVE",
"188 162 CURVE",
"258 518 LINE",
"353 0 LINE",
"446 0 LINE",
"698 518 LINE",
"661 162 LINE",
"657 140 OFFCURVE",
"649 97 OFFCURVE",
"644 74 CURVE",
"578 62 LINE",
"573 -5 LINE",
"573 -5 OFFCURVE",
"630 0 OFFCURVE",
"672 0 CURVE SMOOTH",
"779 0 OFFCURVE",
"849 -5 OFFCURVE",
"849 -5 CURVE",
"864 68 LINE",
"801 74 LINE",
"800 92 OFFCURVE",
"797 119 OFFCURVE",
"797 132 CURVE",
"830 569 LINE",
"832 582 OFFCURVE",
"837 609 OFFCURVE",
"841 627 CURVE",
"904 638 LINE",
"911 710 LINE",
"911 710 OFFCURVE",
"832 705 OFFCURVE",
"783 705 CURVE SMOOTH"
);
}
);
};
layerId = "B953D09C-6DD0-450A-A78C-8C2188DD4016";
paths = (
{
closed = 1;
nodes = (
"828 542 LINE SMOOTH",
"829 562 OFFCURVE",
"839 608 OFFCURVE",
"844 623 CURVE",
"908 629 LINE",
"915 710 LINE",
"915 710 OFFCURVE",
"832 705 OFFCURVE",
"752 705 CURVE",
"684 705 LINE",
"662 685 LINE",
"662 685 OFFCURVE",
"614 572 OFFCURVE",
"603 549 CURVE",
"448 221 LINE",
"396 534 LINE",
"390 571 OFFCURVE",
"377 685 OFFCURVE",
"377 685 CURVE",
"361 705 LINE",
"234 705 LINE",
"204 705 OFFCURVE",
"114 710 OFFCURVE",
"114 710 CURVE",
"98 635 LINE",
"159 623 LINE",
"159 608 OFFCURVE",
"161 561 OFFCURVE",
"151 512 CURVE SMOOTH",
"78 163 LINE SMOOTH",
"74 143 OFFCURVE",
"61 92 OFFCURVE",
"56 77 CURVE",
"-9 65 LINE",
"-14 -5 LINE",
"-14 -5 OFFCURVE",
"83 0 OFFCURVE",
"113 0 CURVE",
"231 0 LINE",
"246 70 LINE",
"185 77 LINE",
"185 92 OFFCURVE",
"184 143 OFFCURVE",
"194 193 CURVE SMOOTH",
"258 518 LINE",
"353 0 LINE",
"446 0 LINE",
"698 518 LINE",
"661 163 LINE SMOOTH",
"659 143 OFFCURVE",
"646 92 OFFCURVE",
"641 77 CURVE",
"576 65 LINE",
"571 -5 LINE",
"571 -5 OFFCURVE",
"692 0 OFFCURVE",
"722 0 CURVE",
"850 0 LINE",
"865 70 LINE",
"804 77 LINE",
"804 92 OFFCURVE",
"799 143 OFFCURVE",
"802 193 CURVE SMOOTH"
);
}
);
width = 906;
}
);
leftKerningGroup = M;
rightKerningGroup = M;
unicode = 004D;
},
{
color = 0;
glyphname = N;
lastChange = "2018-05-16 11:34:52 +0000";
layers = (
{
anchors = (
{
name = bottom;
position = "{388, 0}";
},
{
name = top;
position = "{368, 720}";
}
);
background = {
paths = (
{
closed = 1;
nodes = (
"732 651 LINE",
"654 644 LINE",
"650 625 OFFCURVE",
"639 568 OFFCURVE",
"639 528 CURVE SMOOTH",
"639 297 LINE SMOOTH",
"639 257 OFFCURVE",
"638 0 OFFCURVE",
"638 0 CURVE",
"578 0 LINE",
"184 556 LINE",
"184 167 LINE SMOOTH",
"184 125 OFFCURVE",
"189 75 OFFCURVE",
"191 61 CURVE",
"272 54 LINE",
"265 0 LINE",
"156 0 LINE",
"131 0 OFFCURVE",
"35 -5 OFFCURVE",
"35 -5 CURVE",
"30 45 LINE",
"108 61 LINE",
"110 74 OFFCURVE",
"117 120 OFFCURVE",
"117 137 CURVE SMOOTH",
"117 568 LINE SMOOTH",
"117 584 OFFCURVE",
"110 629 OFFCURVE",
"108 644 CURVE",
"28 656 LINE",
"33 710 LINE",
"33 710 OFFCURVE",
"128 705 OFFCURVE",
"148 705 CURVE SMOOTH",
"193 706 LINE",
"213 685 LINE",
"213 685 OFFCURVE",
"294 552 OFFCURVE",
"310 530 CURVE SMOOTH",
"572 168 LINE",
"572 558 LINE SMOOTH",
"572 574 OFFCURVE",
"566 626 OFFCURVE",
"563 644 CURVE",
"485 656 LINE",
"490 710 LINE",
"518 708 OFFCURVE",
"577 705 OFFCURVE",
"597 705 CURVE SMOOTH",
"657 705 OFFCURVE",
"728 710 OFFCURVE",
"728 710 CURVE"
);
}
);
};
layerId = UUID0;
paths = (
{
closed = 1;
nodes = (
"732 651 LINE",
"654 644 LINE",
"651 630 OFFCURVE",
"639 580 OFFCURVE",
"639 538 CURVE SMOOTH",
"638 0 LINE",
"578 0 LINE",
"184 556 LINE",
"184 167 LINE SMOOTH",
"184 125 OFFCURVE",
"189 75 OFFCURVE",
"191 61 CURVE",
"272 54 LINE",
"265 0 LINE",
"156 0 LINE",
"131 0 OFFCURVE",
"35 -5 OFFCURVE",
"35 -5 CURVE",
"30 45 LINE",
"108 61 LINE",
"110 74 OFFCURVE",
"117 120 OFFCURVE",
"117 137 CURVE SMOOTH",
"117 568 LINE SMOOTH",
"117 584 OFFCURVE",
"110 629 OFFCURVE",
"108 644 CURVE",
"28 656 LINE",
"33 710 LINE",
"33 710 OFFCURVE",
"128 705 OFFCURVE",
"148 705 CURVE SMOOTH",
"193 706 LINE",
"213 685 LINE",
"213 685 OFFCURVE",
"294 552 OFFCURVE",
"310 530 CURVE SMOOTH",
"572 168 LINE",
"572 568 LINE SMOOTH",
"572 584 OFFCURVE",
"566 626 OFFCURVE",
"563 644 CURVE",
"485 656 LINE",
"490 710 LINE",
"518 708 OFFCURVE",
"577 705 OFFCURVE",
"597 705 CURVE SMOOTH",
"657 705 OFFCURVE",
"728 710 OFFCURVE",
"728 710 CURVE"
);
}
);
width = 746;
},
{
anchors = (
{
name = bottom;
position = "{389, 0}";
},
{
name = top;
position = "{379, 720}";
}
);
background = {
paths = (
{
closed = 1;
nodes = (
"755 710 LINE",
"755 710 OFFCURVE",
"661 705 OFFCURVE",
"581 705 CURVE SMOOTH",
"551 705 OFFCURVE",
"461 710 OFFCURVE",
"461 710 CURVE",
"456 635 LINE",
"521 623 LINE",
"523 607 OFFCURVE",
"530 562 OFFCURVE",
"530 512 CURVE SMOOTH",
"530 163 LINE SMOOTH",
"530 143 OFFCURVE",
"522 87 OFFCURVE",
"521 77 CURVE",
"455 65 LINE",
"460 -5 LINE",
"460 -5 OFFCURVE",
"580 0 OFFCURVE",
"610 0 CURVE",
"754 0 LINE",
"759 71 LINE",
"694 77 LINE",
"692 91 OFFCURVE",
"685 143 OFFCURVE",
"685 193 CURVE SMOOTH",
"685 542 LINE SMOOTH",
"685 562 OFFCURVE",
"691 608 OFFCURVE",
"694 623 CURVE",
"760 629 LINE"
);
}
);
};
layerId = "16643525-C5DD-48EC-8E99-463BF28F5E85";
paths = (
{
closed = 1;
nodes = (
"760 629 LINE",
"694 623 LINE",
"692 611 OFFCURVE",
"685 552 OFFCURVE",
"685 512 CURVE SMOOTH",
"685 0 LINE",
"550 0 LINE",
"225 450 LINE",
"225 193 LINE SMOOTH",
"225 153 OFFCURVE",
"233 87 OFFCURVE",
"234 77 CURVE",
"299 71 LINE",
"294 0 LINE",
"158 0 LINE",
"128 0 OFFCURVE",
"28 -5 OFFCURVE",
"28 -5 CURVE",
"23 65 LINE",
"89 77 LINE",
"91 88 OFFCURVE",
"98 143 OFFCURVE",
"98 163 CURVE SMOOTH",
"98 542 LINE SMOOTH",
"98 562 OFFCURVE",
"91 612 OFFCURVE",
"89 623 CURVE",
"24 635 LINE",
"29 710 LINE",
"29 710 OFFCURVE",
"119 705 OFFCURVE",
"139 705 CURVE SMOOTH",
"231 705 LINE",
"250 685 LINE",
"250 685 OFFCURVE",
"323 559 OFFCURVE",
"338 537 CURVE SMOOTH",
"558 230 LINE",
"558 542 LINE SMOOTH",
"558 562 OFFCURVE",
"551 607 OFFCURVE",
"549 623 CURVE",
"484 635 LINE",
"489 710 LINE",
"524 708 OFFCURVE",
"573 705 OFFCURVE",
"593 705 CURVE",
"663 705 OFFCURVE",
"755 710 OFFCURVE",
"755 710 CURVE"
);
}
);
width = 779;
},
{
anchors = (
{
name = bottom;
position = "{364, 0}";
},
{
name = top;
position = "{406, 720}";
}
);
background = {
paths = (
{
closed = 1;
nodes = (
"774 657 LINE",
"696 641 LINE",
"689 622 OFFCURVE",
"671 568 OFFCURVE",
"665 528 CURVE SMOOTH",
"631 297 LINE SMOOTH",
"625 257 OFFCURVE",
"586 -7 OFFCURVE",
"586 -7 CURVE",
"524 -7 LINE",
"227 556 LINE",
"171 167 LINE SMOOTH",
"164 125 OFFCURVE",
"162 75 OFFCURVE",
"162 61 CURVE",
"239 54 LINE",
"223 -5 LINE",
"223 -5 OFFCURVE",
"182 0 OFFCURVE",
"103 0 CURVE SMOOTH",
"83 0 OFFCURVE",
"-2 -5 OFFCURVE",
"-2 -5 CURVE",
"0 45 LINE",
"79 61 LINE",
"83 74 OFFCURVE",
"96 120 OFFCURVE",
"99 137 CURVE SMOOTH",
"162 568 LINE SMOOTH",
"164 584 OFFCURVE",
"164 629 OFFCURVE",
"164 644 CURVE",
"89 656 LINE",
"101 710 LINE",
"101 710 OFFCURVE",
"192 705 OFFCURVE",
"213 705 CURVE SMOOTH",
"258 706 LINE",
"274 685 LINE",
"274 685 OFFCURVE",
"334 552 OFFCURVE",
"345 530 CURVE SMOOTH",
"544 163 LINE",
"602 558 LINE SMOOTH",
"604 574 OFFCURVE",
"605 623 OFFCURVE",
"605 641 CURVE",
"530 647 LINE",
"544 707 LINE",
"624 705 LINE",
"701 705 OFFCURVE",
"777 710 OFFCURVE",
"777 710 CURVE"
);
},
{
closed = 1;
nodes = (
"778 710 LINE",
"778 710 OFFCURVE",
"706 705 OFFCURVE",
"646 705 CURVE SMOOTH",
"626 705 OFFCURVE",
"531 710 OFFCURVE",
"531 710 CURVE",
"518 656 LINE",
"591 644 LINE",
"591 631 OFFCURVE",
"590 583 OFFCURVE",
"588 568 CURVE SMOOTH",
"525 137 LINE SMOOTH",
"523 122 OFFCURVE",
"509 74 OFFCURVE",
"506 61 CURVE",
"427 45 LINE",
"425 -5 LINE",
"425 -5 OFFCURVE",
"535 0 OFFCURVE",
"560 0 CURVE SMOOTH",
"639 0 OFFCURVE",
"683 0 OFFCURVE",
"683 0 CURVE",
"697 54 LINE",
"612 61 LINE",
"612 75 OFFCURVE",
"617 137 OFFCURVE",
"621 167 CURVE SMOOTH",
"675 538 LINE SMOOTH",
"679 568 OFFCURVE",
"693 630 OFFCURVE",
"697 644 CURVE",
"773 651 LINE"
);
}
);
};
layerId = "08C09966-8326-41C9-AE3D-74AAC6FC1D13";
paths = (
{
closed = 1;
nodes = (
"773 651 LINE",
"697 644 LINE",
"690 625 OFFCURVE",
"672 568 OFFCURVE",
"667 538 CURVE SMOOTH",
"587 0 LINE",
"520 0 LINE",
"227 556 LINE",
"171 167 LINE SMOOTH",
"167 137 OFFCURVE",
"162 75 OFFCURVE",
"162 61 CURVE",
"239 54 LINE",
"224 0 LINE",
"120 0 LINE",
"95 0 OFFCURVE",
"-2 -5 OFFCURVE",
"-2 -5 CURVE",
"0 45 LINE",
"79 61 LINE",
"83 74 OFFCURVE",
"97 122 OFFCURVE",
"99 137 CURVE SMOOTH",
"162 568 LINE SMOOTH",
"164 583 OFFCURVE",
"164 629 OFFCURVE",
"164 644 CURVE",
"91 656 LINE",
"104 710 LINE",
"104 710 OFFCURVE",
"200 705 OFFCURVE",
"220 705 CURVE SMOOTH",
"258 705 LINE",
"274 685 LINE",
"274 685 OFFCURVE",
"334 552 OFFCURVE",
"345 530 CURVE SMOOTH",
"544 163 LINE",
"604 568 LINE SMOOTH",
"606 583 OFFCURVE",
"606 626 OFFCURVE",
"606 644 CURVE",
"533 656 LINE",
"546 710 LINE",
"560 709 OFFCURVE",
"634 705 OFFCURVE",
"654 705 CURVE SMOOTH",
"714 705 OFFCURVE",
"778 710 OFFCURVE",
"778 710 CURVE"
);
}
);
width = 731;
},
{
anchors = (
{
name = bottom;
position = "{368, 0}";
},
{
name = top;
position = "{444, 720}";
}
);
background = {
paths = (
{
closed = 1;
nodes = (
"801 629 LINE",
"737 623 LINE",
"733 611 OFFCURVE",
"720 562 OFFCURVE",
"717 542 CURVE SMOOTH",
"666 193 LINE SMOOTH",
"659 143 OFFCURVE",
"638 0 OFFCURVE",
"638 0 CURVE",
"501 0 LINE",
"257 450 LINE",
"219 193 LINE SMOOTH",
"212 143 OFFCURVE",
"212 87 OFFCURVE",
"211 77 CURVE",
"272 71 LINE",
"256 -5 LINE",
"256 -5 OFFCURVE",
"205 0 OFFCURVE",
"93 0 CURVE SMOOTH",
"46 0 OFFCURVE",
"-4 -5 OFFCURVE",
"-4 -5 CURVE",
"1 65 LINE",
"66 77 LINE",
"70 88 OFFCURVE",
"85 143 OFFCURVE",
"87 163 CURVE SMOOTH",
"138 512 LINE SMOOTH",
"146 562 OFFCURVE",
"146 612 OFFCURVE",
"146 623 CURVE",
"86 635 LINE",
"101 710 LINE",
"101 710 OFFCURVE",
"149 705 OFFCURVE",
"197 705 CURVE SMOOTH",
"300 705 LINE",
"315 685 LINE",
"315 685 OFFCURVE",
"367 559 OFFCURVE",
"378 537 CURVE SMOOTH",
"544 230 LINE",
"585 512 LINE SMOOTH",
"590 549 OFFCURVE",
"592 607 OFFCURVE",
"592 623 CURVE",
"532 635 LINE",
"548 710 LINE",
"645 705 LINE",
"724 705 OFFCURVE",
"808 710 OFFCURVE",
"808 710 CURVE"
);
}
);
};
layerId = "B953D09C-6DD0-450A-A78C-8C2188DD4016";
paths = (
{
closed = 1;
nodes = (
"659 143 OFFCURVE",
"638 0 OFFCURVE",
"638 0 CURVE",
"501 0 LINE",
"257 450 LINE",
"219 193 LINE SMOOTH",
"212 143 OFFCURVE",
"210 92 OFFCURVE",
"210 77 CURVE",
"271 70 LINE",
"256 0 LINE",
"132 0 LINE",
"102 0 OFFCURVE",
"-4 -5 OFFCURVE",
"-4 -5 CURVE",
"1 65 LINE",
"66 77 LINE",
"71 92 OFFCURVE",
"84 143 OFFCURVE",
"87 163 CURVE SMOOTH",
"138 512 LINE SMOOTH",
"145 562 OFFCURVE",
"146 608 OFFCURVE",
"146 623 CURVE",
"85 635 LINE",
"101 710 LINE",
"101 710 OFFCURVE",
"191 705 OFFCURVE",
"221 705 CURVE",
"300 705 LINE",
"315 685 LINE",
"315 685 OFFCURVE",
"367 559 OFFCURVE",
"378 537 CURVE SMOOTH",
"544 230 LINE",
"585 512 LINE SMOOTH",
"592 562 OFFCURVE",
"593 608 OFFCURVE",
"593 623 CURVE",
"532 635 LINE",
"548 710 LINE",
"548 710 OFFCURVE",
"623 705 OFFCURVE",
"653 705 CURVE SMOOTH",
"733 705 OFFCURVE",
"809 710 OFFCURVE",
"809 710 CURVE",
"802 629 LINE",
"738 623 LINE",
"733 608 OFFCURVE",
"720 562 OFFCURVE",
"717 542 CURVE SMOOTH"
);
}
);
width = 765;
}
);
leftKerningGroup = H;
rightKerningGroup = H;
unicode = 004E;
},
{
color = 0;
glyphname = O;
lastChange = "2018-05-16 11:34:52 +0000";
layers = (
{
anchors = (
{
name = bottom;
position = "{379, 0}";
},
{
name = horn;
position = "{637, 544}";
},
{
name = ogonek;
position = "{489, 0}";
},
{
name = top;
position = "{379, 720}";
}
);
layerId = UUID0;
paths = (
{
closed = 1;
nodes = (
"707 570 OFFCURVE",
"596 720 OFFCURVE",
"379 720 CURVE SMOOTH",
"162 720 OFFCURVE",
"51 570 OFFCURVE",
"51 352 CURVE SMOOTH",
"51 135 OFFCURVE",
"162 -15 OFFCURVE",
"379 -15 CURVE SMOOTH",
"596 -15 OFFCURVE",
"707 135 OFFCURVE",
"707 352 CURVE SMOOTH"
);
},
{
closed = 1;
nodes = (
"158 527 OFFCURVE",
"230 667 OFFCURVE",
"379 667 CURVE SMOOTH",
"528 667 OFFCURVE",
"600 527 OFFCURVE",
"600 352 CURVE SMOOTH",
"600 178 OFFCURVE",
"528 38 OFFCURVE",
"379 38 CURVE SMOOTH",
"230 38 OFFCURVE",
"158 178 OFFCURVE",
"158 352 CURVE SMOOTH"
);
}
);
width = 758;
},
{
anchors = (
{
name = bottom;
position = "{395, 0}";
},
{
name = horn;
position = "{655, 544}";
},
{
name = ogonek;
position = "{509, 0}";
},
{
name = top;
position = "{394, 720}";
}
);
layerId = "16643525-C5DD-48EC-8E99-463BF28F5E85";
paths = (
{
closed = 1;
nodes = (
"752 574 OFFCURVE",
"612 720 OFFCURVE",
"395 720 CURVE SMOOTH",
"178 720 OFFCURVE",
"38 574 OFFCURVE",
"38 352 CURVE SMOOTH",
"38 131 OFFCURVE",
"178 -15 OFFCURVE",
"395 -15 CURVE SMOOTH",
"612 -15 OFFCURVE",
"752 131 OFFCURVE",
"752 352 CURVE SMOOTH"
);
},
{
closed = 1;
nodes = (
"218 535 OFFCURVE",
"275 623 OFFCURVE",
"395 623 CURVE SMOOTH",
"515 623 OFFCURVE",
"572 535 OFFCURVE",
"572 352 CURVE SMOOTH",
"572 170 OFFCURVE",
"515 82 OFFCURVE",
"395 82 CURVE SMOOTH",
"275 82 OFFCURVE",
"218 170 OFFCURVE",
"218 352 CURVE SMOOTH"
);
}
);
width = 790;
},
{
anchors = (
{
name = bottom;
position = "{335, 0}";
},
{
name = horn;
position = "{650, 544}";
},
{
name = ogonek;
position = "{450, 0}";
},
{
name = top;
position = "{442, 720}";
}
);
layerId = "08C09966-8326-41C9-AE3D-74AAC6FC1D13";
paths = (
{
closed = 1;
nodes = (
"715 598 OFFCURVE",
"622 720 OFFCURVE",
"440 720 CURVE SMOOTH",
"196 720 OFFCURVE",
"63 531 OFFCURVE",
"63 284 CURVE SMOOTH",
"63 107 OFFCURVE",
"156 -15 OFFCURVE",
"338 -15 CURVE SMOOTH",
"582 -15 OFFCURVE",
"715 174 OFFCURVE",
"715 420 CURVE SMOOTH"
);
},
{
closed = 1;
nodes = (
"170 481 OFFCURVE",
"263 667 OFFCURVE",
"435 667 CURVE SMOOTH",
"554 667 OFFCURVE",
"608 560 OFFCURVE",
"608 421 CURVE SMOOTH",
"608 223 OFFCURVE",
"514 38 OFFCURVE",
"343 38 CURVE SMOOTH",
"224 38 OFFCURVE",
"170 145 OFFCURVE",
"170 283 CURVE SMOOTH"
);
}
);
width = 748;
},
{
anchors = (
{
name = bottom;
position = "{361, 0}";
},
{
name = horn;
position = "{689, 544}";
},
{
name = ogonek;
position = "{466, 0}";
},
{
name = top;
position = "{461, 720}";
}
);
layerId = "B953D09C-6DD0-450A-A78C-8C2188DD4016";
paths = (
{
closed = 1;
nodes = (
"756 598 OFFCURVE",
"640 720 OFFCURVE",
"453 720 CURVE SMOOTH",
"216 720 OFFCURVE",
"48 544 OFFCURVE",
"48 292 CURVE SMOOTH",
"48 107 OFFCURVE",
"164 -15 OFFCURVE",
"351 -15 CURVE SMOOTH",
"588 -15 OFFCURVE",
"756 161 OFFCURVE",
"756 412 CURVE SMOOTH"
);
},
{
closed = 1;
nodes = (
"225 479 OFFCURVE",
"287 623 OFFCURVE",
"442 623 CURVE SMOOTH",
"534 623 OFFCURVE",
"578 559 OFFCURVE",
"578 433 CURVE SMOOTH",
"578 225 OFFCURVE",
"516 82 OFFCURVE",
"362 82 CURVE SMOOTH",
"270 82 OFFCURVE",
"225 146 OFFCURVE",
"225 271 CURVE SMOOTH"
);
}
);
width = 774;
}
);
leftKerningGroup = O;
rightKerningGroup = O;
unicode = 004F;
},
{
color = 1;
glyphname = OE;
lastChange = "2018-05-16 11:35:00 +0000";
layers = (
{
anchors = (
{
name = top;
position = "{513, 720}";
}
);
background = {
paths = (
{
closed = 1;
nodes = (
"531 614 LINE",
"531 97 LINE",
"361 0 LINE",
"768 0 LINE SMOOTH",
"788 0 OFFCURVE",
"882 -4 OFFCURVE",
"882 -4 CURVE",
"901 14 LINE",
"916 165 LINE",
"861 170 LINE",
"859 154 OFFCURVE",
"849 118 OFFCURVE",
"846 103 CURVE SMOOTH",
"844 94 OFFCURVE",
"835 80 OFFCURVE",
"825 66 CURVE",
"803 62 OFFCURVE",
"769 57 OFFCURVE",
"738 57 CURVE SMOOTH",
"614 57 LINE",
"612 76 OFFCURVE",
"607 127 OFFCURVE",
"607 167 CURVE SMOOTH",
"607 338 LINE",
"683 338 LINE",
"703 338 OFFCURVE",
"763 332 OFFCURVE",
"763 332 CURVE",
"772 265 LINE",
"820 271 LINE",
"820 271 OFFCURVE",
"817 330 OFFCURVE",
"817 380 CURVE SMOOTH",
"817 400 OFFCURVE",
"818 464 OFFCURVE",
"818 464 CURVE",
"772 469 LINE",
"763 403 LINE",
"763 403 OFFCURVE",
"723 394 OFFCURVE",
"703 394 CURVE",
"607 394 LINE",
"607 538 LINE SMOOTH",
"607 577 OFFCURVE",
"612 628 OFFCURVE",
"614 649 CURVE",
"725 649 LINE SMOOTH",
"753 649 OFFCURVE",
"784 646 OFFCURVE",
"806 644 CURVE",
"816 631 OFFCURVE",
"825 617 OFFCURVE",
"826 610 CURVE",
"830 595 OFFCURVE",
"835 572 OFFCURVE",
"837 556 CURVE",
"895 561 LINE",
"888 697 LINE",
"869 715 LINE",
"869 715 OFFCURVE",
"775 705 OFFCURVE",
"755 705 CURVE SMOOTH",
"361 705 LINE"
);
},
{
closed = 1;
nodes = (
"137 527 OFFCURVE",
"200 667 OFFCURVE",
"328 667 CURVE SMOOTH",
"456 667 OFFCURVE",
"519 527 OFFCURVE",
"519 352 CURVE SMOOTH",
"519 178 OFFCURVE",
"456 38 OFFCURVE",
"328 38 CURVE SMOOTH",
"200 38 OFFCURVE",
"137 178 OFFCURVE",
"137 352 CURVE SMOOTH"
);
},
{
closed = 1;
nodes = (
"561 603 LINE",
"512 677 OFFCURVE",
"433 720 OFFCURVE",
"328 720 CURVE SMOOTH",
"132 720 OFFCURVE",
"30 570 OFFCURVE",
"30 352 CURVE SMOOTH",
"30 135 OFFCURVE",
"132 -15 OFFCURVE",
"328 -15 CURVE SMOOTH",
"433 -15 OFFCURVE",
"512 28 OFFCURVE",
"561 102 CURVE"
);
}
);
};
layerId = UUID0;
paths = (
{
closed = 1;
nodes = (
"531 614 LINE",
"531 97 LINE",
"361 0 LINE",
"768 0 LINE SMOOTH",
"788 0 OFFCURVE",
"882 -4 OFFCURVE",
"882 -4 CURVE",
"901 14 LINE",
"916 165 LINE",
"861 170 LINE",
"859 154 OFFCURVE",
"849 118 OFFCURVE",
"846 103 CURVE SMOOTH",
"844 94 OFFCURVE",
"835 80 OFFCURVE",
"825 66 CURVE",
"803 62 OFFCURVE",
"769 57 OFFCURVE",
"738 57 CURVE SMOOTH",
"614 57 LINE",
"612 76 OFFCURVE",
"607 127 OFFCURVE",
"607 167 CURVE",
"607 538 LINE",
"607 577 OFFCURVE",
"612 628 OFFCURVE",
"614 649 CURVE",
"725 649 LINE SMOOTH",
"753 649 OFFCURVE",
"784 646 OFFCURVE",
"806 644 CURVE",
"816 631 OFFCURVE",
"825 617 OFFCURVE",
"826 610 CURVE",
"830 595 OFFCURVE",
"835 572 OFFCURVE",
"837 556 CURVE",
"895 561 LINE",
"888 697 LINE",
"869 715 LINE",
"869 715 OFFCURVE",
"775 705 OFFCURVE",
"755 705 CURVE SMOOTH",
"361 705 LINE"
);
},
{
closed = 1;
nodes = (
"137 527 OFFCURVE",
"200 667 OFFCURVE",
"328 667 CURVE SMOOTH",
"456 667 OFFCURVE",
"519 527 OFFCURVE",
"519 352 CURVE SMOOTH",
"519 178 OFFCURVE",
"456 38 OFFCURVE",
"328 38 CURVE SMOOTH",
"200 38 OFFCURVE",
"137 178 OFFCURVE",
"137 352 CURVE SMOOTH"
);
},
{
closed = 1;
nodes = (
"561 603 LINE",
"512 677 OFFCURVE",
"433 720 OFFCURVE",
"328 720 CURVE SMOOTH",
"132 720 OFFCURVE",
"30 570 OFFCURVE",
"30 352 CURVE SMOOTH",
"30 135 OFFCURVE",
"132 -15 OFFCURVE",
"328 -15 CURVE SMOOTH",
"433 -15 OFFCURVE",
"512 28 OFFCURVE",
"561 102 CURVE"
);
},
{
closed = 1;
nodes = (
"577 338 LINE",
"683 338 LINE SMOOTH",
"703 338 OFFCURVE",
"754 333 OFFCURVE",
"763 332 CURVE",
"772 265 LINE",
"820 271 LINE",
"820 271 OFFCURVE",
"817 330 OFFCURVE",
"817 380 CURVE SMOOTH",
"817 400 OFFCURVE",
"818 464 OFFCURVE",
"818 464 CURVE",
"772 469 LINE",
"763 400 LINE",
"758 399 OFFCURVE",
"723 394 OFFCURVE",
"703 394 CURVE SMOOTH",
"577 394 LINE"
);
}
);
width = 957;
},
{
anchors = (
{
name = top;
position = "{504, 720}";
}
);
background = {
paths = (
{
closed = 1;
nodes = (
"817 623 OFFCURVE",
"842 621 OFFCURVE",
"862 619 CURVE",
"875 583 LINE",
"877 568 OFFCURVE",
"879 554 OFFCURVE",
"881 537 CURVE",
"953 542 LINE",
"946 697 LINE",
"927 715 LINE",
"889 710 OFFCURVE",
"832 705 OFFCURVE",
"812 705 CURVE",
"423 705 LINE",
"553 571 LINE",
"553 101 LINE",
"423 0 LINE",
"827 0 LINE SMOOTH",
"847 0 OFFCURVE",
"941 -4 OFFCURVE",
"941 -4 CURVE",
"960 14 LINE",
"975 190 LINE",
"905 195 LINE",
"903 179 OFFCURVE",
"897 153 OFFCURVE",
"893 138 CURVE SMOOTH",
"890 128 OFFCURVE",
"884 113 OFFCURVE",
"874 95 CURVE",
"854 91 OFFCURVE",
"826 87 OFFCURVE",
"797 87 CURVE SMOOTH",
"672 87 LINE",
"671 107 OFFCURVE",
"669 155 OFFCURVE",
"669 193 CURVE SMOOTH",
"669 316 LINE",
"731 316 LINE",
"751 316 OFFCURVE",
"795 310 OFFCURVE",
"795 310 CURVE",
"804 250 LINE",
"868 256 LINE",
"868 256 OFFCURVE",
"865 333 OFFCURVE",
"865 383 CURVE SMOOTH",
"865 403 OFFCURVE",
"866 466 OFFCURVE",
"866 466 CURVE",
"804 471 LINE",
"795 407 LINE",
"795 407 OFFCURVE",
"771 398 OFFCURVE",
"751 398 CURVE",
"669 398 LINE",
"669 542 LINE SMOOTH",
"669 558 OFFCURVE",
"672 605 OFFCURVE",
"673 623 CURVE",
"787 623 LINE"
);
},
{
closed = 1;
nodes = (
"208 535 OFFCURVE",
"259 623 OFFCURVE",
"365 623 CURVE SMOOTH",
"471 623 OFFCURVE",
"522 535 OFFCURVE",
"522 352 CURVE SMOOTH",
"522 170 OFFCURVE",
"471 82 OFFCURVE",
"365 82 CURVE SMOOTH",
"259 82 OFFCURVE",
"208 170 OFFCURVE",
"208 352 CURVE SMOOTH"
);
},
{
closed = 1;
nodes = (
"632 592 LINE",
"574 673 OFFCURVE",
"481 720 OFFCURVE",
"365 720 CURVE SMOOTH",
"160 720 OFFCURVE",
"28 574 OFFCURVE",
"28 352 CURVE SMOOTH",
"28 131 OFFCURVE",
"160 -15 OFFCURVE",
"365 -15 CURVE SMOOTH",
"481 -15 OFFCURVE",
"574 32 OFFCURVE",
"632 113 CURVE"
);
}
);
};
layerId = "16643525-C5DD-48EC-8E99-463BF28F5E85";
paths = (
{
closed = 1;
nodes = (
"817 623 OFFCURVE",
"842 621 OFFCURVE",
"862 619 CURVE",
"875 583 LINE",
"877 568 OFFCURVE",
"879 554 OFFCURVE",
"881 537 CURVE",
"953 542 LINE",
"946 697 LINE",
"927 715 LINE",
"889 710 OFFCURVE",
"832 705 OFFCURVE",
"812 705 CURVE",
"423 705 LINE",
"553 571 LINE",
"553 101 LINE",
"423 0 LINE",
"827 0 LINE SMOOTH",
"847 0 OFFCURVE",
"941 -4 OFFCURVE",
"941 -4 CURVE",
"960 14 LINE",
"975 190 LINE",
"905 195 LINE",
"903 179 OFFCURVE",
"897 153 OFFCURVE",
"893 138 CURVE SMOOTH",
"890 128 OFFCURVE",
"884 113 OFFCURVE",
"874 95 CURVE",
"854 91 OFFCURVE",
"826 87 OFFCURVE",
"797 87 CURVE SMOOTH",
"672 87 LINE",
"671 107 OFFCURVE",
"669 155 OFFCURVE",
"669 193 CURVE",
"669 542 LINE",
"669 558 OFFCURVE",
"672 605 OFFCURVE",
"673 623 CURVE",
"787 623 LINE"
);
},
{
closed = 1;
nodes = (
"208 535 OFFCURVE",
"259 623 OFFCURVE",
"365 623 CURVE SMOOTH",
"471 623 OFFCURVE",
"522 535 OFFCURVE",
"522 352 CURVE SMOOTH",
"522 170 OFFCURVE",
"471 82 OFFCURVE",
"365 82 CURVE SMOOTH",
"259 82 OFFCURVE",
"208 170 OFFCURVE",
"208 352 CURVE SMOOTH"
);
},
{
closed = 1;
nodes = (
"632 592 LINE",
"574 673 OFFCURVE",
"481 720 OFFCURVE",
"365 720 CURVE SMOOTH",
"160 720 OFFCURVE",
"28 574 OFFCURVE",
"28 352 CURVE SMOOTH",
"28 131 OFFCURVE",
"160 -15 OFFCURVE",
"365 -15 CURVE SMOOTH",
"481 -15 OFFCURVE",
"574 32 OFFCURVE",
"632 113 CURVE"
);
},
{
closed = 1;
nodes = (
"731 316 LINE SMOOTH",
"751 316 OFFCURVE",
"785 313 OFFCURVE",
"795 312 CURVE",
"804 250 LINE",
"868 256 LINE",
"868 256 OFFCURVE",
"865 333 OFFCURVE",
"865 383 CURVE SMOOTH",
"865 403 OFFCURVE",
"866 466 OFFCURVE",
"866 466 CURVE",
"804 471 LINE",
"795 402 LINE",
"782 400 OFFCURVE",
"761 398 OFFCURVE",
"751 398 CURVE SMOOTH",
"659 398 LINE",
"659 316 LINE"
);
}
);
width = 1002;
},
{
background = {
paths = (
{
closed = 1;
nodes = (
"161 481 OFFCURVE",
"243 667 OFFCURVE",
"396 667 CURVE SMOOTH",
"494 667 OFFCURVE",
"539 560 OFFCURVE",
"539 421 CURVE SMOOTH",
"539 223 OFFCURVE",
"457 38 OFFCURVE",
"304 38 CURVE SMOOTH",
"206 38 OFFCURVE",
"161 145 OFFCURVE",
"161 283 CURVE SMOOTH"
);
},
{
closed = 1;
nodes = (
"791 649 LINE SMOOTH",
"818 649 OFFCURVE",
"848 646 OFFCURVE",
"869 644 CURVE",
"877 631 OFFCURVE",
"882 617 OFFCURVE",
"883 610 CURVE SMOOTH",
"885 595 OFFCURVE",
"886 572 OFFCURVE",
"886 556 CURVE",
"943 561 LINE",
"956 692 LINE",
"940 710 LINE",
"940 710 OFFCURVE",
"848 705 OFFCURVE",
"828 705 CURVE SMOOTH",
"461 705 LINE",
"519 649 LINE"
);
},
{
closed = 1;
nodes = (
"595 338 LINE",
"706 338 LINE SMOOTH",
"725 338 OFFCURVE",
"782 332 OFFCURVE",
"782 332 CURVE",
"779 265 LINE",
"827 271 LINE",
"827 271 OFFCURVE",
"834 330 OFFCURVE",
"842 380 CURVE SMOOTH",
"845 401 OFFCURVE",
"857 467 OFFCURVE",
"857 464 CURVE",
"812 469 LINE",
"792 403 LINE",
"792 403 OFFCURVE",
"753 394 OFFCURVE",
"733 394 CURVE SMOOTH",
"605 394 LINE"
);
},
{
closed = 1;
nodes = (
"339 0 LINE",
"738 0 LINE SMOOTH",
"758 0 OFFCURVE",
"848 -4 OFFCURVE",
"848 -4 CURVE",
"869 14 LINE",
"906 165 LINE",
"853 170 LINE",
"848 154 OFFCURVE",
"835 118 OFFCURVE",
"828 103 CURVE SMOOTH",
"824 94 OFFCURVE",
"814 80 OFFCURVE",
"803 66 CURVE",
"781 62 OFFCURVE",
"747 57 OFFCURVE",
"717 57 CURVE SMOOTH",
"424 57 LINE"
);
},
{
closed = 1;
nodes = (
"606 603 LINE",
"566 676 OFFCURVE",
"497 720 OFFCURVE",
"401 720 CURVE SMOOTH",
"175 720 OFFCURVE",
"54 531 OFFCURVE",
"54 284 CURVE SMOOTH",
"54 107 OFFCURVE",
"138 -15 OFFCURVE",
"299 -15 CURVE SMOOTH",
"407 -15 OFFCURVE",
"492 29 OFFCURVE",
"550 101 CURVE"
);
},
{
closed = 1;
nodes = (
"614 705 LINE",
"567 705 OFFCURVE",
"521 707 OFFCURVE",
"474 710 CURVE",
"486 656 LINE",
"559 644 LINE",
"559 631 OFFCURVE",
"598 583 OFFCURVE",
"596 568 CURVE SMOOTH",
"533 137 LINE SMOOTH",
"531 122 OFFCURVE",
"477 74 OFFCURVE",
"474 61 CURVE",
"395 45 LINE",
"383 -5 LINE",
"383 -5 OFFCURVE",
"503 0 OFFCURVE",
"528 0 CURVE",
"580 57 LINE",
"580 71 OFFCURVE",
"585 137 OFFCURVE",
"589 167 CURVE SMOOTH",
"643 538 LINE SMOOTH",
"647 568 OFFCURVE",
"662 632 OFFCURVE",
"666 649 CURVE"
);
}
);
};
layerId = "08C09966-8326-41C9-AE3D-74AAC6FC1D13";
paths = (
{
closed = 1;
nodes = (
"161 481 OFFCURVE",
"243 667 OFFCURVE",
"396 667 CURVE SMOOTH",
"494 667 OFFCURVE",
"539 560 OFFCURVE",
"539 421 CURVE SMOOTH",
"539 223 OFFCURVE",
"457 38 OFFCURVE",
"304 38 CURVE SMOOTH",
"206 38 OFFCURVE",
"161 145 OFFCURVE",
"161 283 CURVE SMOOTH"
);
},
{
closed = 1;
nodes = (
"791 649 LINE SMOOTH",
"818 649 OFFCURVE",
"848 646 OFFCURVE",
"869 644 CURVE",
"877 631 OFFCURVE",
"882 617 OFFCURVE",
"883 610 CURVE SMOOTH",
"885 595 OFFCURVE",
"886 572 OFFCURVE",
"886 556 CURVE",
"943 561 LINE",
"956 692 LINE",
"940 710 LINE",
"940 710 OFFCURVE",
"848 705 OFFCURVE",
"828 705 CURVE SMOOTH",
"461 705 LINE",
"519 649 LINE"
);
},
{
closed = 1;
nodes = (
"339 0 LINE",
"738 0 LINE SMOOTH",
"758 0 OFFCURVE",
"848 -4 OFFCURVE",
"848 -4 CURVE",
"869 14 LINE",
"906 165 LINE",
"853 170 LINE",
"848 154 OFFCURVE",
"835 118 OFFCURVE",
"828 103 CURVE SMOOTH",
"824 94 OFFCURVE",
"814 80 OFFCURVE",
"803 66 CURVE",
"781 62 OFFCURVE",
"747 57 OFFCURVE",
"717 57 CURVE SMOOTH",
"424 57 LINE"
);
},
{
closed = 1;
nodes = (
"606 603 LINE",
"566 676 OFFCURVE",
"497 720 OFFCURVE",
"401 720 CURVE SMOOTH",
"175 720 OFFCURVE",
"54 531 OFFCURVE",
"54 284 CURVE SMOOTH",
"54 107 OFFCURVE",
"138 -15 OFFCURVE",
"299 -15 CURVE SMOOTH",
"407 -15 OFFCURVE",
"492 29 OFFCURVE",
"550 101 CURVE"
);
},
{
closed = 1;
nodes = (
"614 705 LINE",
"567 705 OFFCURVE",
"521 707 OFFCURVE",
"474 710 CURVE",
"486 656 LINE",
"559 644 LINE",
"559 631 OFFCURVE",
"598 583 OFFCURVE",
"596 568 CURVE SMOOTH",
"533 137 LINE SMOOTH",
"531 122 OFFCURVE",
"477 74 OFFCURVE",
"474 61 CURVE",
"395 45 LINE",
"383 -5 LINE",
"383 -5 OFFCURVE",
"503 0 OFFCURVE",
"528 0 CURVE",
"580 57 LINE",
"580 71 OFFCURVE",
"585 137 OFFCURVE",
"589 167 CURVE SMOOTH",
"643 538 LINE SMOOTH",
"647 568 OFFCURVE",
"662 632 OFFCURVE",
"666 649 CURVE"
);
},
{
closed = 1;
nodes = (
"605 338 LINE",
"706 338 LINE SMOOTH",
"726 338 OFFCURVE",
"771 333 OFFCURVE",
"782 332 CURVE",
"779 265 LINE",
"827 271 LINE",
"827 271 OFFCURVE",
"834 330 OFFCURVE",
"842 380 CURVE SMOOTH",
"845 400 OFFCURVE",
"857 464 OFFCURVE",
"857 464 CURVE",
"812 469 LINE",
"791 400 LINE",
"777 398 OFFCURVE",
"743 394 OFFCURVE",
"733 394 CURVE SMOOTH",
"615 394 LINE"
);
}
);
width = 955;
},
{
anchors = (
{
name = top;
position = "{489, 720}";
}
);
background = {
paths = (
{
closed = 1;
nodes = (
"233 479 OFFCURVE",
"289 623 OFFCURVE",
"430 623 CURVE SMOOTH",
"508 623 OFFCURVE",
"546 559 OFFCURVE",
"546 433 CURVE SMOOTH",
"546 225 OFFCURVE",
"490 82 OFFCURVE",
"350 82 CURVE SMOOTH",
"272 82 OFFCURVE",
"233 146 OFFCURVE",
"233 271 CURVE SMOOTH"
);
},
{
closed = 1;
nodes = (
"615 316 LINE",
"743 316 LINE SMOOTH",
"763 316 OFFCURVE",
"803 310 OFFCURVE",
"803 310 CURVE",
"803 250 LINE",
"868 256 LINE",
"868 256 OFFCURVE",
"876 333 OFFCURVE",
"883 383 CURVE SMOOTH",
"886 403 OFFCURVE",
"896 466 OFFCURVE",
"896 466 CURVE",
"836 471 LINE",
"818 407 LINE",
"818 407 OFFCURVE",
"794 398 OFFCURVE",
"775 398 CURVE SMOOTH",
"622 398 LINE"
);
},
{
closed = 1;
nodes = (
"839 623 LINE SMOOTH",
"869 623 OFFCURVE",
"896 621 OFFCURVE",
"915 619 CURVE",
"919 611 OFFCURVE",
"920 599 OFFCURVE",
"921 595 CURVE",
"922 580 OFFCURVE",
"921 552 OFFCURVE",
"921 536 CURVE",
"992 541 LINE",
"1008 692 LINE",
"992 710 LINE",
"992 710 OFFCURVE",
"900 705 OFFCURVE",
"880 705 CURVE SMOOTH",
"643 705 LINE",
"734 623 LINE"
);
},
{
closed = 1;
nodes = (
"568 0 LINE",
"791 0 LINE SMOOTH",
"811 0 OFFCURVE",
"901 -4 OFFCURVE",
"901 -4 CURVE",
"922 14 LINE",
"962 190 LINE",
"894 195 LINE",
"890 179 OFFCURVE",
"881 153 OFFCURVE",
"875 138 CURVE SMOOTH",
"870 128 OFFCURVE",
"862 113 OFFCURVE",
"850 95 CURVE",
"830 91 OFFCURVE",
"803 87 OFFCURVE",
"775 87 CURVE SMOOTH",
"655 87 LINE"
);
},
{
closed = 1;
nodes = (
"643 705 LINE",
"613 705 OFFCURVE",
"523 710 OFFCURVE",
"523 710 CURVE",
"507 635 LINE",
"568 623 LINE",
"567 607 OFFCURVE",
"587 562 OFFCURVE",
"580 512 CURVE SMOOTH",
"529 163 LINE SMOOTH",
"526 143 OFFCURVE",
"491 87 OFFCURVE",
"488 77 CURVE",
"423 65 LINE",
"418 -5 LINE",
"418 -5 OFFCURVE",
"538 0 OFFCURVE",
"568 0 CURVE",
"660 77 LINE",
"660 91 OFFCURVE",
"661 143 OFFCURVE",
"669 193 CURVE SMOOTH",
"719 542 LINE SMOOTH",
"722 562 OFFCURVE",
"733 608 OFFCURVE",
"738 623 CURVE"
);
},
{
closed = 1;
nodes = (
"669 613 LINE",
"620 680 OFFCURVE",
"542 720 OFFCURVE",
"441 720 CURVE SMOOTH",
"216 720 OFFCURVE",
"56 544 OFFCURVE",
"56 292 CURVE SMOOTH",
"56 107 OFFCURVE",
"164 -15 OFFCURVE",
"339 -15 CURVE SMOOTH",
"451 -15 OFFCURVE",
"548 29 OFFCURVE",
"616 101 CURVE"
);
}
);
};
layerId = "B953D09C-6DD0-450A-A78C-8C2188DD4016";
paths = (
{
closed = 1;
nodes = (
"233 479 OFFCURVE",
"289 623 OFFCURVE",
"430 623 CURVE SMOOTH",
"508 623 OFFCURVE",
"546 559 OFFCURVE",
"546 433 CURVE SMOOTH",
"546 225 OFFCURVE",
"490 82 OFFCURVE",
"350 82 CURVE SMOOTH",
"272 82 OFFCURVE",
"233 146 OFFCURVE",
"233 271 CURVE SMOOTH"
);
},
{
closed = 1;
nodes = (
"839 623 LINE SMOOTH",
"869 623 OFFCURVE",
"896 621 OFFCURVE",
"915 619 CURVE",
"919 611 OFFCURVE",
"920 599 OFFCURVE",
"921 595 CURVE",
"922 580 OFFCURVE",
"921 552 OFFCURVE",
"921 536 CURVE",
"992 541 LINE",
"1008 692 LINE",
"992 710 LINE",
"992 710 OFFCURVE",
"900 705 OFFCURVE",
"880 705 CURVE SMOOTH",
"643 705 LINE",
"734 623 LINE"
);
},
{
closed = 1;
nodes = (
"568 0 LINE",
"791 0 LINE SMOOTH",
"811 0 OFFCURVE",
"901 -4 OFFCURVE",
"901 -4 CURVE",
"922 14 LINE",
"962 190 LINE",
"894 195 LINE",
"890 179 OFFCURVE",
"881 153 OFFCURVE",
"875 138 CURVE SMOOTH",
"870 128 OFFCURVE",
"862 113 OFFCURVE",
"850 95 CURVE",
"830 91 OFFCURVE",
"803 87 OFFCURVE",
"775 87 CURVE SMOOTH",
"655 87 LINE"
);
},
{
closed = 1;
nodes = (
"643 705 LINE",
"613 705 OFFCURVE",
"523 710 OFFCURVE",
"523 710 CURVE",
"507 635 LINE",
"568 623 LINE",
"567 607 OFFCURVE",
"587 562 OFFCURVE",
"580 512 CURVE SMOOTH",
"529 163 LINE SMOOTH",
"526 143 OFFCURVE",
"491 87 OFFCURVE",
"488 77 CURVE",
"423 65 LINE",
"418 -5 LINE",
"418 -5 OFFCURVE",
"538 0 OFFCURVE",
"568 0 CURVE",
"660 77 LINE",
"660 91 OFFCURVE",
"661 143 OFFCURVE",
"669 193 CURVE SMOOTH",
"719 542 LINE SMOOTH",
"722 562 OFFCURVE",
"733 608 OFFCURVE",
"738 623 CURVE"
);
},
{
closed = 1;
nodes = (
"669 613 LINE",
"620 680 OFFCURVE",
"542 720 OFFCURVE",
"441 720 CURVE SMOOTH",
"216 720 OFFCURVE",
"56 544 OFFCURVE",
"56 292 CURVE SMOOTH",
"56 107 OFFCURVE",
"164 -15 OFFCURVE",
"339 -15 CURVE SMOOTH",
"451 -15 OFFCURVE",
"548 29 OFFCURVE",
"616 101 CURVE"
);
},
{
closed = 1;
nodes = (
"744 316 LINE SMOOTH",
"764 316 OFFCURVE",
"789 312 OFFCURVE",
"804 310 CURVE",
"804 250 LINE",
"868 256 LINE",
"868 256 OFFCURVE",
"876 333 OFFCURVE",
"884 383 CURVE SMOOTH",
"887 403 OFFCURVE",
"897 466 OFFCURVE",
"897 466 CURVE",
"836 471 LINE",
"817 404 LINE",
"807 402 OFFCURVE",
"785 398 OFFCURVE",
"775 398 CURVE SMOOTH",
"660 398 LINE",
"649 316 LINE"
);
}
);
width = 1007;
}
);
leftKerningGroup = O;
rightKerningGroup = E;
unicode = 0152;
},
{
color = 1;
glyphname = Oslash;
lastChange = "2018-05-16 11:35:00 +0000";
layers = (
{
anchors = (
{
name = top;
position = "{391, 720}";
}
);
background = {
paths = (
{
closed = 1;
nodes = (
"709 570 OFFCURVE",
"598 720 OFFCURVE",
"381 720 CURVE",
"164 720 OFFCURVE",
"53 570 OFFCURVE",
"53 352 CURVE",
"53 135 OFFCURVE",
"164 -15 OFFCURVE",
"381 -15 CURVE SMOOTH",
"598 -15 OFFCURVE",
"709 135 OFFCURVE",
"709 352 CURVE"
);
},
{
closed = 1;
nodes = (
"160 527 OFFCURVE",
"232 667 OFFCURVE",
"381 667 CURVE",
"530 667 OFFCURVE",
"602 527 OFFCURVE",
"602 352 CURVE",
"602 178 OFFCURVE",
"530 38 OFFCURVE",
"381 38 CURVE SMOOTH",
"232 38 OFFCURVE",
"160 178 OFFCURVE",
"160 352 CURVE"
);
}
);
};
components = (
{
name = O;
}
);
layerId = UUID0;
paths = (
{
closed = 1;
nodes = (
"653 815 LINE",
"611 838 LINE",
"111 -113 LINE",
"151 -136 LINE"
);
}
);
width = 762;
},
{
anchors = (
{
name = top;
position = "{394, 720}";
}
);
background = {
paths = (
{
closed = 1;
nodes = (
"756 578 OFFCURVE",
"616 724 OFFCURVE",
"399 724 CURVE",
"182 724 OFFCURVE",
"42 578 OFFCURVE",
"42 352 CURVE",
"42 127 OFFCURVE",
"182 -19 OFFCURVE",
"399 -19 CURVE SMOOTH",
"616 -19 OFFCURVE",
"756 127 OFFCURVE",
"756 352 CURVE"
);
},
{
closed = 1;
nodes = (
"222 539 OFFCURVE",
"279 627 OFFCURVE",
"399 627 CURVE",
"519 627 OFFCURVE",
"576 539 OFFCURVE",
"576 352 CURVE",
"576 166 OFFCURVE",
"519 78 OFFCURVE",
"399 78 CURVE SMOOTH",
"279 78 OFFCURVE",
"222 166 OFFCURVE",
"222 352 CURVE"
);
}
);
};
components = (
{
name = O;
transform = "{1, 0, 0, 1, -8, 0}";
}
);
layerId = "16643525-C5DD-48EC-8E99-463BF28F5E85";
paths = (
{
closed = 1;
nodes = (
"678 809 LINE",
"619 838 LINE",
"122 -108 LINE",
"179 -137 LINE"
);
}
);
width = 776;
},
{
anchors = (
{
name = top;
position = "{428, 720}";
}
);
background = {
paths = (
{
closed = 1;
nodes = (
"704 815 LINE",
"666 838 LINE",
"43 -113 LINE",
"78 -136 LINE"
);
},
{
closed = 1;
nodes = (
"697 599 OFFCURVE",
"608 720 OFFCURVE",
"426 720 CURVE",
"181 720 OFFCURVE",
"48 530 OFFCURVE",
"48 283 CURVE",
"48 106 OFFCURVE",
"136 -15 OFFCURVE",
"319 -15 CURVE SMOOTH",
"562 -15 OFFCURVE",
"697 174 OFFCURVE",
"697 421 CURVE"
);
},
{
closed = 1;
nodes = (
"152 481 OFFCURVE",
"245 667 OFFCURVE",
"418 667 CURVE",
"538 667 OFFCURVE",
"593 559 OFFCURVE",
"593 421 CURVE",
"593 223 OFFCURVE",
"498 38 OFFCURVE",
"327 38 CURVE SMOOTH",
"206 38 OFFCURVE",
"152 145 OFFCURVE",
"152 283 CURVE"
);
}
);
};
components = (
{
name = O;
transform = "{1, 0, 0, 1, -2, 0}";
}
);
layerId = "08C09966-8326-41C9-AE3D-74AAC6FC1D13";
paths = (
{
closed = 1;
nodes = (
"704 815 LINE",
"666 838 LINE",
"43 -113 LINE",
"78 -136 LINE"
);
}
);
width = 715;
},
{
anchors = (
{
name = top;
position = "{448, 720}";
}
);
background = {
paths = (
{
closed = 1;
nodes = (
"724 809 LINE",
"671 838 LINE",
"51 -108 LINE",
"102 -137 LINE"
);
},
{
closed = 1;
nodes = (
"739 602 OFFCURVE",
"628 724 OFFCURVE",
"441 724 CURVE",
"204 724 OFFCURVE",
"35 548 OFFCURVE",
"35 292 CURVE",
"35 103 OFFCURVE",
"146 -19 OFFCURVE",
"332 -19 CURVE SMOOTH",
"570 -19 OFFCURVE",
"739 157 OFFCURVE",
"739 413 CURVE"
);
},
{
closed = 1;
nodes = (
"207 484 OFFCURVE",
"270 627 OFFCURVE",
"426 627 CURVE",
"521 627 OFFCURVE",
"566 563 OFFCURVE",
"566 432 CURVE",
"566 220 OFFCURVE",
"504 78 OFFCURVE",
"346 78 CURVE SMOOTH",
"253 78 OFFCURVE",
"207 143 OFFCURVE",
"207 272 CURVE"
);
}
);
};
components = (
{
name = O;
transform = "{1, 0, 0, 1, -3, 0}";
}
);
layerId = "B953D09C-6DD0-450A-A78C-8C2188DD4016";
paths = (
{
closed = 1;
nodes = (
"724 809 LINE",
"671 838 LINE",
"51 -108 LINE",
"102 -137 LINE"
);
}
);
width = 743;
}
);
leftKerningGroup = O;
rightKerningGroup = O;
unicode = 00D8;
},
